<svg xmlns="http://www.w3.org/2000/svg" xmlns:xlink="http://www.w3.org/1999/xlink" viewBox="0 0 336.66 273.88"><defs><style>.cls-1{isolation:isolate;}.cls-2{fill:#d8def1;}.cls-10,.cls-11,.cls-12,.cls-13,.cls-14,.cls-15,.cls-16,.cls-17,.cls-18,.cls-19,.cls-2,.cls-20,.cls-21,.cls-22,.cls-23,.cls-24,.cls-25,.cls-26,.cls-27,.cls-28,.cls-29,.cls-3,.cls-30,.cls-31,.cls-32,.cls-33,.cls-34,.cls-35,.cls-36,.cls-37,.cls-38,.cls-39,.cls-4,.cls-40,.cls-41,.cls-42,.cls-43,.cls-44,.cls-46,.cls-47,.cls-48,.cls-5,.cls-50,.cls-6,.cls-7,.cls-8,.cls-9{fill-rule:evenodd;}.cls-3{fill:url(#_ÂÁ_Ï_ÌÌ_È_ËÂÌÚ_153);}.cls-4{fill:url(#_ÂÁ_Ï_ÌÌ_È_ËÂÌÚ_50);}.cls-5{fill:#530d41;opacity:0.3;}.cls-11,.cls-20,.cls-42,.cls-5,.cls-50,.cls-7{mix-blend-mode:multiply;}.cls-6{fill:url(#_ÂÁ_Ï_ÌÌ_È_ËÂÌÚ_194);}.cls-7{fill:#b01f36;}.cls-11,.cls-7{opacity:0.2;}.cls-8{fill:url(#_ÂÁ_Ï_ÌÌ_È_ËÂÌÚ_115);}.cls-9{fill:url(#_ÂÁ_Ï_ÌÌ_È_ËÂÌÚ_201);}.cls-10{fill:#f89e5a;}.cls-10,.cls-12,.cls-48{mix-blend-mode:soft-light;}.cls-11,.cls-20{fill:#821835;}.cls-12{fill:#fdbf58;}.cls-13{fill:url(#_ÂÁ_Ï_ÌÌ_È_ËÂÌÚ_13);}.cls-14{fill:url(#_ÂÁ_Ï_ÌÌ_È_ËÂÌÚ_13-2);}.cls-15{fill:#fdd1b4;}.cls-16{fill:url(#_ÂÁ_Ï_ÌÌ_È_ËÂÌÚ_192);}.cls-17{fill:#f58d91;}.cls-18{fill:url(#_ÂÁ_Ï_ÌÌ_È_ËÂÌÚ_232);}.cls-19{fill:url(#_ÂÁ_Ï_ÌÌ_È_ËÂÌÚ_192-2);}.cls-20,.cls-42,.cls-50{opacity:0.5;}.cls-21{fill:url(#_ÂÁ_Ï_ÌÌ_È_ËÂÌÚ_206);}.cls-22{fill:url(#_ÂÁ_Ï_ÌÌ_È_ËÂÌÚ_206-2);}.cls-23{fill:url(#_ÂÁ_Ï_ÌÌ_È_ËÂÌÚ_180);}.cls-24{fill:url(#_ÂÁ_Ï_ÌÌ_È_ËÂÌÚ_206-3);}.cls-25{fill:url(#_ÂÁ_Ï_ÌÌ_È_ËÂÌÚ_180-2);}.cls-26{fill:url(#_ÂÁ_Ï_ÌÌ_È_ËÂÌÚ_206-4);}.cls-27{fill:url(#_ÂÁ_Ï_ÌÌ_È_ËÂÌÚ_180-3);}.cls-28{fill:url(#_ÂÁ_Ï_ÌÌ_È_ËÂÌÚ_206-5);}.cls-29{fill:url(#_ÂÁ_Ï_ÌÌ_È_ËÂÌÚ_180-4);}.cls-30{fill:url(#_ÂÁ_Ï_ÌÌ_È_ËÂÌÚ_206-6);}.cls-31{fill:url(#_ÂÁ_Ï_ÌÌ_È_ËÂÌÚ_180-5);}.cls-32{fill:url(#_ÂÁ_Ï_ÌÌ_È_ËÂÌÚ_206-7);}.cls-33{fill:url(#_ÂÁ_Ï_ÌÌ_È_ËÂÌÚ_153-2);}.cls-34{fill:url(#_ÂÁ_Ï_ÌÌ_È_ËÂÌÚ_193);}.cls-35{fill:url(#_ÂÁ_Ï_ÌÌ_È_ËÂÌÚ_193-3);}.cls-36{fill:url(#_ÂÁ_Ï_ÌÌ_È_ËÂÌÚ_193-5);}.cls-37{fill:url(#_ÂÁ_Ï_ÌÌ_È_ËÂÌÚ_193-7);}.cls-38{fill:url(#_ÂÁ_Ï_ÌÌ_È_ËÂÌÚ_193-9);}.cls-39{fill:#feddc8;}.cls-40,.cls-41{mix-blend-mode:screen;}.cls-40{fill:url(#_ÂÁ_Ï_ÌÌ_È_ËÂÌÚ_267);}.cls-41{fill:url(#_ÂÁ_Ï_ÌÌ_È_ËÂÌÚ_267-2);}.cls-42{fill:#816191;}.cls-43{fill:url(#_ÂÁ_Ï_ÌÌ_È_ËÂÌÚ_153-3);}.cls-44{fill:url(#_ÂÁ_Ï_ÌÌ_È_ËÂÌÚ_153-4);}.cls-45{fill:#fff;}.cls-46{fill:url(#_ÂÁ_Ï_ÌÌ_È_ËÂÌÚ_115-2);}.cls-47{fill:url(#_ÂÁ_Ï_ÌÌ_È_ËÂÌÚ_102);}.cls-48{fill:#fcb558;}.cls-49{fill:#faf397;}.cls-50{fill:#ad2a42;}</style><radialGradient id="_ÂÁ_Ï_ÌÌ_È_ËÂÌÚ_153" cx="130.65" cy="259.34" r="77.48" gradientTransform="matrix(1.11, -0.03, 0.03, 1, -31.29, 6.09)" gradientUnits="userSpaceOnUse"><stop offset="0" stop-color="#7266ae"/><stop offset="0.99" stop-color="#8c54a2"/></radialGradient><linearGradient id="_ÂÁ_Ï_ÌÌ_È_ËÂÌÚ_50" x1="3.96" y1="267.62" x2="247.42" y2="267.62" gradientTransform="translate(-11.66 5.66) rotate(-1.67)" gradientUnits="userSpaceOnUse"><stop offset="0" stop-color="#613182"/><stop offset="0.99" stop-color="#2a1951"/></linearGradient><linearGradient id="_ÂÁ_Ï_ÌÌ_È_ËÂÌÚ_194" x1="119.92" y1="146.45" x2="119.92" y2="88.11" gradientUnits="userSpaceOnUse"><stop offset="0" stop-color="#faa71a"/><stop offset="1" stop-color="#ffd328"/></linearGradient><linearGradient id="_ÂÁ_Ï_ÌÌ_È_ËÂÌÚ_115" x1="120.19" y1="254.49" x2="120.19" y2="137.99" gradientUnits="userSpaceOnUse"><stop offset="0" stop-color="#f36f2e"/><stop offset="1" stop-color="#e03548"/></linearGradient><radialGradient id="_ÂÁ_Ï_ÌÌ_È_ËÂÌÚ_201" cx="119.28" cy="255.24" r="54.93" gradientUnits="userSpaceOnUse"><stop offset="0" stop-color="#fdd1aa"/><stop offset="0.99" stop-color="#f8b7a0"/></radialGradient><radialGradient id="_ÂÁ_Ï_ÌÌ_È_ËÂÌÚ_13" cx="44.57" cy="165.64" r="13.53" gradientUnits="userSpaceOnUse"><stop offset="0" stop-color="#ead7e4"/><stop offset="0.98" stop-color="#bdafd1"/></radialGradient><radialGradient id="_ÂÁ_Ï_ÌÌ_È_ËÂÌÚ_13-2" cx="232.98" cy="165.64" r="13.53" gradientTransform="matrix(-1, 0, 0, 1, 426.79, 0)" xlink:href="#_ÂÁ_Ï_ÌÌ_È_ËÂÌÚ_13"/><radialGradient id="_ÂÁ_Ï_ÌÌ_È_ËÂÌÚ_192" cx="89.75" cy="236.03" r="49.19" gradientUnits="userSpaceOnUse"><stop offset="0" stop-color="#70cddd"/><stop offset="0.99" stop-color="#53a2d9"/></radialGradient><linearGradient id="_ÂÁ_Ï_ÌÌ_È_ËÂÌÚ_232" x1="158.47" y1="237.49" x2="158.47" y2="162.89" gradientTransform="translate(0 56.82) scale(1 0.85)" gradientUnits="userSpaceOnUse"><stop offset="0" stop-color="#6757a5"/><stop offset="0.99" stop-color="#723792"/></linearGradient><radialGradient id="_ÂÁ_Ï_ÌÌ_È_ËÂÌÚ_192-2" cx="158.19" cy="237.15" r="29.67" xlink:href="#_ÂÁ_Ï_ÌÌ_È_ËÂÌÚ_192"/><radialGradient id="_ÂÁ_Ï_ÌÌ_È_ËÂÌÚ_206" cx="119.92" cy="130.57" r="54.98" gradientTransform="matrix(1, 0, 0, 1, 0, 0)" xlink:href="#_ÂÁ_Ï_ÌÌ_È_ËÂÌÚ_232"/><radialGradient id="_ÂÁ_Ï_ÌÌ_È_ËÂÌÚ_206-2" cx="17.64" cy="2328.22" r="16.54" gradientTransform="translate(21.59 -2131.8) scale(0.78 0.99)" xlink:href="#_ÂÁ_Ï_ÌÌ_È_ËÂÌÚ_232"/><radialGradient id="_ÂÁ_Ï_ÌÌ_È_ËÂÌÚ_180" cx="39.3" cy="2328.22" r="16.31" gradientTransform="translate(21.59 -2131.8) scale(0.78 0.99)" gradientUnits="userSpaceOnUse"><stop offset="0" stop-color="#fdd1aa"/><stop offset="0.99" stop-color="#f69a98"/></radialGradient><radialGradient id="_ÂÁ_Ï_ÌÌ_È_ËÂÌÚ_206-3" cx="60.97" cy="2328.22" r="16.1" gradientTransform="translate(21.59 -2131.8) scale(0.78 0.99)" xlink:href="#_ÂÁ_Ï_ÌÌ_È_ËÂÌÚ_232"/><radialGradient id="_ÂÁ_Ï_ÌÌ_È_ËÂÌÚ_180-2" cx="82.65" cy="2328.22" r="15.88" xlink:href="#_ÂÁ_Ï_ÌÌ_È_ËÂÌÚ_180"/><radialGradient id="_ÂÁ_Ï_ÌÌ_È_ËÂÌÚ_206-4" cx="104.32" cy="2328.22" r="15.67" gradientTransform="translate(21.59 -2131.8) scale(0.78 0.99)" xlink:href="#_ÂÁ_Ï_ÌÌ_È_ËÂÌÚ_232"/><radialGradient id="_ÂÁ_Ï_ÌÌ_È_ËÂÌÚ_180-3" cx="126.1" cy="2328.22" r="15.6" xlink:href="#_ÂÁ_Ï_ÌÌ_È_ËÂÌÚ_180"/><radialGradient id="_ÂÁ_Ï_ÌÌ_È_ËÂÌÚ_206-5" cx="147.82" cy="2328.22" r="15.74" gradientTransform="translate(21.59 -2131.8) scale(0.78 0.99)" xlink:href="#_ÂÁ_Ï_ÌÌ_È_ËÂÌÚ_232"/><radialGradient id="_ÂÁ_Ï_ÌÌ_È_ËÂÌÚ_180-4" cx="169.49" cy="2328.22" r="15.96" xlink:href="#_ÂÁ_Ï_ÌÌ_È_ËÂÌÚ_180"/><radialGradient id="_ÂÁ_Ï_ÌÌ_È_ËÂÌÚ_206-6" cx="191.16" cy="2328.22" r="16.17" gradientTransform="translate(21.59 -2131.8) scale(0.78 0.99)" xlink:href="#_ÂÁ_Ï_ÌÌ_È_ËÂÌÚ_232"/><radialGradient id="_ÂÁ_Ï_ÌÌ_È_ËÂÌÚ_180-5" cx="212.83" cy="2328.22" r="16.39" xlink:href="#_ÂÁ_Ï_ÌÌ_È_ËÂÌÚ_180"/><radialGradient id="_ÂÁ_Ï_ÌÌ_È_ËÂÌÚ_206-7" cx="234.5" cy="2328.22" r="16.62" gradientTransform="translate(21.59 -2131.8) scale(0.78 0.99)" xlink:href="#_ÂÁ_Ï_ÌÌ_È_ËÂÌÚ_232"/><radialGradient id="_ÂÁ_Ï_ÌÌ_È_ËÂÌÚ_153-2" cx="112.6" cy="141.69" r="76.14" gradientTransform="translate(21.73) scale(0.87 1)" xlink:href="#_ÂÁ_Ï_ÌÌ_È_ËÂÌÚ_153"/><radialGradient id="_ÂÁ_Ï_ÌÌ_È_ËÂÌÚ_193" cx="193.49" cy="2191.49" r="118.39" gradientTransform="matrix(1, 0.01, -0.01, 0.79, -57.79, -1587.29)" gradientUnits="userSpaceOnUse"><stop offset="0" stop-color="#ffedc1"/><stop offset="0.99" stop-color="#f8c78c"/></radialGradient><radialGradient id="_ÂÁ_Ï_ÌÌ_È_ËÂÌÚ_193-3" cx="193.63" cy="2192.14" r="118.5" xlink:href="#_ÂÁ_Ï_ÌÌ_È_ËÂÌÚ_193"/><radialGradient id="_ÂÁ_Ï_ÌÌ_È_ËÂÌÚ_193-5" cx="193.95" cy="2192.15" r="121.54" xlink:href="#_ÂÁ_Ï_ÌÌ_È_ËÂÌÚ_193"/><radialGradient id="_ÂÁ_Ï_ÌÌ_È_ËÂÌÚ_193-7" cx="193.81" cy="2191.56" r="118.84" xlink:href="#_ÂÁ_Ï_ÌÌ_È_ËÂÌÚ_193"/><radialGradient id="_ÂÁ_Ï_ÌÌ_È_ËÂÌÚ_193-9" cx="193.82" cy="2190.14" r="118.34" xlink:href="#_ÂÁ_Ï_ÌÌ_È_ËÂÌÚ_193"/><linearGradient id="_ÂÁ_Ï_ÌÌ_È_ËÂÌÚ_267" x1="95.57" y1="234.2" x2="95.57" y2="189.41" gradientUnits="userSpaceOnUse"><stop offset="0" stop-color="#963e5f"/><stop offset="1" stop-color="#87ccd9"/></linearGradient><linearGradient id="_ÂÁ_Ï_ÌÌ_È_ËÂÌÚ_267-2" x1="159.34" y1="237.11" x2="159.34" y2="198.99" xlink:href="#_ÂÁ_Ï_ÌÌ_È_ËÂÌÚ_267"/><radialGradient id="_ÂÁ_Ï_ÌÌ_È_ËÂÌÚ_153-3" cx="87.9" cy="216.72" r="15.06" gradientTransform="matrix(1, 0, 0, 1, 0, 0)" xlink:href="#_ÂÁ_Ï_ÌÌ_È_ËÂÌÚ_153"/><radialGradient id="_ÂÁ_Ï_ÌÌ_È_ËÂÌÚ_153-4" cx="87.2" cy="205.86" r="13.81" gradientTransform="matrix(1, 0, 0, 1, 0, 0)" xlink:href="#_ÂÁ_Ï_ÌÌ_È_ËÂÌÚ_153"/><linearGradient id="_ÂÁ_Ï_ÌÌ_È_ËÂÌÚ_115-2" x1="68.55" y1="99.09" x2="219.45" y2="99.09" xlink:href="#_ÂÁ_Ï_ÌÌ_È_ËÂÌÚ_115"/><linearGradient id="_ÂÁ_Ï_ÌÌ_È_ËÂÌÚ_102" x1="145.05" y1="119.18" x2="216.55" y2="119.18" gradientUnits="userSpaceOnUse"><stop offset="0" stop-color="#c74127"/><stop offset="1" stop-color="#a41d2e"/></linearGradient></defs><g class="cls-1"><g id="Layer_2" data-name="Layer 2"><g id="Layer_1-2" data-name="Layer 1"><path class="cls-2" d="M268.57,149a120.24,120.24,0,1,1-240.48,0C28.09,82.58,81.92,9,148.33,9S268.57,82.58,268.57,149Z"/><path class="cls-2" d="M279.65,131.24c8.7-8.11,29.83,6.3,37.93,15a21.52,21.52,0,0,1-1.08,30.42c-8.7,8.11-30.23,18.29-38.33,9.6S271,139.34,279.65,131.24Z"/><path class="cls-2" d="M101.84,1.45c3.39,2.59,2.08,13.85-6.85,19-3.15,1.81-9.09,2.27-12.48-.32s-7.15-8.49-6.38-12.06C78.07-1,98.46-1.14,101.84,1.45Z"/><path class="cls-2" d="M330.19,168.87c-2.43.24-3.34-8-2.91-10.48.52-3,1.72-6.25,4.15-6.5s4.91,4.56,5.22,7.63S332.62,168.62,330.19,168.87Z"/><polygon class="cls-3" points="42.16 259.77 0 269.19 243.38 262.81 204.54 253.37 42.16 259.77"/><polygon class="cls-4" points="0 269.19 3.31 273.88 239.17 269.96 243.38 262.81 0 269.19"/><polygon class="cls-5" points="205.91 270.51 208.99 263.82 225.43 263.34 222.31 270.03 205.91 270.51"/><polygon class="cls-6" points="33.52 88.64 37.44 144.22 203.26 146.45 206.31 88.11 33.52 88.64"/><polygon class="cls-7" points="33.52 88.64 37.67 120.62 204.44 117.28 203.63 139.44 37.07 138.96 33.52 88.64"/><polygon class="cls-8" points="45.3 253.9 40.39 138.5 199.99 137.99 194.76 254.49 45.3 253.9"/><polygon class="cls-9" points="41.66 252.71 42.24 258.22 196.5 258.22 196.9 252.25 136.88 253.9 41.66 252.71"/><polygon class="cls-10" points="46.72 242.54 66.31 241.78 66.3 248.65 46.74 248.65 46.72 242.54"/><polygon class="cls-10" points="127.06 236.09 146.65 235.33 146.63 242.2 127.08 242.2 127.06 236.09"/><polygon class="cls-10" points="79.28 249.58 98.87 248.82 98.86 253.43 79.29 253.18 79.28 249.58"/><polygon class="cls-10" points="170.63 203.13 190.21 202.37 190.2 209.25 170.65 209.25 170.63 203.13"/><polygon class="cls-10" points="138.06 172.32 157.65 171.56 157.63 178.43 138.08 178.43 138.06 172.32"/><polygon class="cls-10" points="53.04 235.67 72.63 234.91 72.61 241.78 53.06 241.78 53.04 235.67"/><polygon class="cls-11" points="51.07 212.63 70.66 211.87 70.64 218.74 51.09 218.74 51.07 212.63"/><polygon class="cls-11" points="116.3 243.44 133.74 242.76 133.73 248.88 116.32 248.88 116.3 243.44"/><polygon class="cls-11" points="57.68 171.22 75.12 170.55 75.11 176.67 57.7 176.67 57.68 171.22"/><polygon class="cls-11" points="128.13 180.32 145.58 179.64 145.56 185.76 128.15 185.76 128.13 180.32"/><polygon class="cls-11" points="178.83 210.83 196.75 210.13 196.26 216.27 178.85 216.27 178.83 210.83"/><polygon class="cls-11" points="146.65 180.02 164.57 179.32 164.08 185.46 146.67 185.46 146.65 180.02"/><polygon class="cls-12" points="47.07 205.81 68.55 206.03 68.55 211.67 47.07 211.87 47.07 205.81"/><path class="cls-13" d="M51.57,181.79,35.34,148.88h5l13.42,32.91A1.4,1.4,0,0,1,51.57,181.79Z"/><path class="cls-14" d="M186.81,181.79,203,148.88h-5l-13.41,32.91S185.78,183.14,186.81,181.79Z"/><polygon class="cls-15" points="60.33 242.09 58.96 178.2 123.17 178.2 121.69 241.35 60.33 242.09"/><polygon class="cls-16" points="62.95 238.76 118.69 238.18 119.98 181.37 62.15 181.4 62.95 238.76"/><polygon class="cls-17" points="123.17 178.2 124.22 178.2 123.17 241.35 121.69 241.35 123.17 178.2"/><polygon class="cls-17" points="62.95 238.76 62.15 181.4 63.55 181.37 63.55 238.76 62.95 238.76"/><polygon class="cls-15" points="136.85 257.88 137.33 191.31 180.42 191.89 177.21 258.22 136.85 257.88"/><polygon class="cls-18" points="139.85 258.22 141 194.96 177.1 194.96 174.28 258.22 139.85 258.22"/><polygon class="cls-17" points="177.1 194.96 175.55 194.96 173.06 258.21 174.28 258.22 177.1 194.96"/><polygon class="cls-19" points="143.98 245.44 143.98 198.11 173.09 198.11 170.58 245.44 143.98 245.44"/><polygon class="cls-20" points="197.66 189.76 199.22 155.1 41.29 159.51 42.38 185.24 197.66 189.76"/><polygon class="cls-21" points="43.47 134.06 42.24 127.07 197.59 127.07 195.63 133.18 43.47 134.06"/><path class="cls-22" d="M36.68,169h0a9.44,9.44,0,0,1-9.12-8.51l-1.25-13.31h17l1,13.31A7.7,7.7,0,0,1,36.68,169Z"/><path class="cls-23" d="M53.31,169h0a9.23,9.23,0,0,1-9-8.51l-1-13.31h17l.78,13.31A7.85,7.85,0,0,1,53.31,169Z"/><path class="cls-24" d="M70,169h0a9,9,0,0,1-8.82-8.51l-.78-13.31h17l.54,13.31A8,8,0,0,1,70,169Z"/><path class="cls-25" d="M86.58,169h0a8.86,8.86,0,0,1-8.67-8.51l-.54-13.31h17l.31,13.31A8.19,8.19,0,0,1,86.58,169Z"/><path class="cls-26" d="M103.21,169h0a8.65,8.65,0,0,1-8.51-8.51l-.31-13.31h17l.07,13.31A8.35,8.35,0,0,1,103.21,169Z"/><path class="cls-27" d="M119.85,169h0a8.47,8.47,0,0,1-8.37-8.51l-.07-13.31h17l-.16,13.31A8.54,8.54,0,0,1,119.85,169Z"/><path class="cls-28" d="M136.48,169h0a8.29,8.29,0,0,1-8.21-8.51l.16-13.31h17l-.39,13.31A8.72,8.72,0,0,1,136.48,169Z"/><path class="cls-29" d="M153.12,169h0a8.12,8.12,0,0,1-8.07-8.51l.39-13.31h17l-.63,13.31A8.91,8.91,0,0,1,153.12,169Z"/><path class="cls-30" d="M169.75,169h0a8,8,0,0,1-7.92-8.51l.63-13.31h17l-.86,13.31A9.12,9.12,0,0,1,169.75,169Z"/><path class="cls-31" d="M186.38,169h0a7.79,7.79,0,0,1-7.76-8.51l.86-13.31h17l-1.1,13.31A9.3,9.3,0,0,1,186.38,169Z"/><path class="cls-32" d="M203,169h0a7.64,7.64,0,0,1-7.62-8.51l1.1-13.31h17l-1.33,13.31A9.52,9.52,0,0,1,203,169Z"/><path class="cls-33" d="M43.46,134.06,26.31,147.19c69.28,3.93,116.19,4.1,187.21,0l-17.89-14Z"/><polygon class="cls-34" points="43.4 148.1 55.88 134.05 66.4 133.93 60.35 148.88 43.4 148.1"/><polygon class="cls-34" points="43.4 148.1 55.88 134.05 66.4 133.93 60.35 148.88 43.4 148.1"/><polygon class="cls-35" points="77.47 149.51 81.03 133.83 95.59 133.76 94.14 149.94 77.47 149.51"/><polygon class="cls-35" points="77.47 149.51 81.03 133.83 95.59 133.76 94.14 149.94 77.47 149.51"/><polygon class="cls-36" points="111.5 150.2 110.97 133.85 126.79 133.77 128.27 150.2 111.5 150.2"/><polygon class="cls-36" points="111.5 150.2 110.97 133.85 126.79 133.77 128.27 150.2 111.5 150.2"/><polygon class="cls-37" points="145.36 149.95 141.3 133.49 155.49 133.41 162.48 149.52 145.36 149.95"/><polygon class="cls-37" points="145.36 149.95 141.3 133.49 155.49 133.41 162.48 149.52 145.36 149.95"/><polygon class="cls-38" points="179.48 148.9 172.73 133.31 185.06 133.18 196.42 148.11 179.48 148.9"/><polygon class="cls-38" points="179.48 148.9 172.73 133.31 185.06 133.18 196.42 148.11 179.48 148.9"/><polygon class="cls-39" points="56.12 241.35 56.25 243.8 123.46 243.8 123.46 240.52 56.12 241.35"/><polygon class="cls-20" points="60.35 243.8 62.83 248.88 120.25 248.82 122.96 243.8 60.35 243.8"/><polygon class="cls-17" points="123.46 240.52 125.51 240.91 125.5 243.8 123.46 243.8 123.46 240.52"/><polygon class="cls-40" points="71.23 189.76 73.77 221.78 85.57 221.78 86.33 234.2 88.67 234.2 87.64 224.6 101.5 224.6 102.15 234.2 104.88 234.2 105.27 218.49 119.19 215.9 119.92 189.41 71.23 189.76"/><polygon class="cls-41" points="146.65 199.56 147.86 223.12 153.75 223.12 153.75 232.78 156.16 232.78 155.61 226.21 162.08 226.21 162.01 232.78 167.53 232.78 170.63 237.11 172.03 198.99 146.65 199.56"/><polygon class="cls-42" points="68.55 211.67 71.81 226.83 104.42 223.72 105.84 207.84 68.55 211.67"/><polygon class="cls-43" points="68.55 211.67 105.84 207.84 107.25 222.12 70.66 225.6 68.55 211.67"/><polygon class="cls-44" points="105.84 207.84 92.59 200.05 68.55 211.67 69.9 211.5 92.55 200.54 105.08 207.92 105.84 207.84"/><path class="cls-45" d="M77.8,216a2.69,2.69,0,0,1,.91-1.12,2.74,2.74,0,0,1,2.78-.26,2.78,2.78,0,0,1,1.11.93,2.54,2.54,0,0,1,.51,1.34,2.59,2.59,0,0,1-.25,1.43,2.77,2.77,0,0,1-3.7,1.36,2.8,2.8,0,0,1-1.61-2.27A2.75,2.75,0,0,1,77.8,216ZM79,218.11a1.71,1.71,0,0,0,.67.58,1.65,1.65,0,0,0,.88.15,1.58,1.58,0,0,0,.82-.31,1.65,1.65,0,0,0,.53-.69A1.76,1.76,0,0,0,82,217a1.81,1.81,0,0,0-.3-.87,1.76,1.76,0,0,0-.66-.58,1.69,1.69,0,0,0-1.7.16,1.67,1.67,0,0,0-.54.69,1.84,1.84,0,0,0-.14.91A1.69,1.69,0,0,0,79,218.11Z"/><path class="cls-45" d="M87.17,214.21a1.68,1.68,0,0,1,.67,1.29,2.24,2.24,0,0,1-.1.93,1.55,1.55,0,0,1-.55.75,2,2,0,0,1-1.07.38l-.77.07.16,1.73-1.07.1L83.93,214l1.65-.15A2.22,2.22,0,0,1,87.17,214.21Zm-.68,2.13a.85.85,0,0,0,.23-.35.78.78,0,0,0,0-.36,1,1,0,0,0-.22-.55.74.74,0,0,0-.68-.2l-.77.07.15,1.64.76-.07A.84.84,0,0,0,86.49,216.34Z"/><path class="cls-45" d="M92.34,213.23l.1,1-2.64.25.11,1.16,2.34-.22.09,1L90,216.7l.11,1.18,2.74-.26.1,1-3.82.36-.51-5.45Z"/><path class="cls-45" d="M98.46,212.65l.53,5.67h0l-4.13-3.08.32,3.21-1.08.11-.53-5.66h0L97.71,216l-.33-3.28Z"/><polygon class="cls-46" points="68.55 127.07 98.87 79.93 219.45 71.1 216.55 111.28 145.05 127.07 68.55 127.07"/><polygon class="cls-47" points="216.55 111.28 204.44 120.08 204.44 117.28 153.75 127.07 145.05 127.07 216.55 111.28"/><polygon class="cls-48" points="145.05 127.07 76.93 114.04 68.55 127.07 145.05 127.07"/><polygon class="cls-48" points="98.87 79.93 145.05 127.07 87.9 96.98 98.87 79.93"/><polygon class="cls-48" points="122.96 78.17 145.05 127.07 141.3 76.82 122.96 78.17"/><polygon class="cls-48" points="167.05 74.94 145.05 127.07 187.55 73.44 167.05 74.94"/><polygon class="cls-48" points="219.45 71.1 145.05 127.07 216.55 99.08 219.45 71.1"/><path class="cls-49" d="M126.86,114a8.63,8.63,0,0,1-.28,2.34,6.65,6.65,0,0,1-.73,1.72,4.69,4.69,0,0,1-1,1.18,5.1,5.1,0,0,1-1.14.73,5,5,0,0,1-1.11.38,4.94,4.94,0,0,1-.92.11l-.56,0c-.23,0-.5-.06-.81-.11s-.64-.14-1-.25a7.43,7.43,0,0,1-1.16-.45l.19-4.25a6,6,0,0,0,1.78,1.13,4,4,0,0,0,1.32.29A1.79,1.79,0,0,0,123,116a3.4,3.4,0,0,0,.53-2,5.1,5.1,0,0,0-.39-1.82,8.09,8.09,0,0,0-1.41-2.17c-.47-.53-.94-1.1-1.44-1.68a16.77,16.77,0,0,1-1.35-1.87,11.08,11.08,0,0,1-1-2.15,7.63,7.63,0,0,1-.39-2.48A8.33,8.33,0,0,1,118,99a6.05,6.05,0,0,1,1.24-2,4.92,4.92,0,0,1,1.78-1.2,5.56,5.56,0,0,1,2.1-.4,8,8,0,0,1,2,.26,9.64,9.64,0,0,1,2,.8l-.33,4.25a4.17,4.17,0,0,0-.91-.88,4.76,4.76,0,0,0-.93-.5,4.48,4.48,0,0,0-.83-.22,5.6,5.6,0,0,0-.63-.05,1.73,1.73,0,0,0-.9.24,2.35,2.35,0,0,0-.71.66,3.43,3.43,0,0,0-.47,1,4.28,4.28,0,0,0-.17,1.19,3.61,3.61,0,0,0,.42,1.74,8.93,8.93,0,0,0,1,1.53q.63.77,1.35,1.56a14.4,14.4,0,0,1,1.34,1.81,10.73,10.73,0,0,1,1,2.29A10.07,10.07,0,0,1,126.86,114Z"/><path class="cls-49" d="M137.12,99.26l-1.24-.05-1.5,0c-.08,1-.14,2.13-.19,3.25s-.09,2.26-.13,3.41-.05,2.31-.06,3.47,0,2.32,0,3.45c0,1.3,0,2.55,0,3.76s.06,2.37.11,3.5h-3.59q.15-2.86.24-6.11c.05-2.16.08-4.33.08-6.53,0-1.43,0-2.82-.05-4.18s-.07-2.69-.1-4h-1.54l-1.3.05,0-3.52c.4,0,.86.06,1.36.07l1.6,0,1.71,0h3.32c.5,0,.94,0,1.34,0Z"/><path class="cls-49" d="M150,108.15a30.31,30.31,0,0,1-.46,5.75,13.7,13.7,0,0,1-1.26,3.84,5.5,5.5,0,0,1-1.87,2.15,4.35,4.35,0,0,1-2.31.66,4.48,4.48,0,0,1-2.31-.63,5.37,5.37,0,0,1-1.89-2.08,13.17,13.17,0,0,1-1.28-3.83,31.27,31.27,0,0,1-.46-5.86,32.3,32.3,0,0,1,.46-5.93,14.16,14.16,0,0,1,1.28-4,5.62,5.62,0,0,1,1.89-2.21,4.19,4.19,0,0,1,2.31-.69,4.37,4.37,0,0,1,2.31.67,5.4,5.4,0,0,1,1.87,2.18,14.65,14.65,0,0,1,1.26,4A32.66,32.66,0,0,1,150,108.15Zm-3.76,0c0-1.76-.06-3.25-.17-4.47a20,20,0,0,0-.46-3,4.68,4.68,0,0,0-.69-1.64,1.06,1.06,0,0,0-.82-.51,1.08,1.08,0,0,0-.85.51,4.77,4.77,0,0,0-.7,1.66,19.93,19.93,0,0,0-.46,3c-.11,1.22-.17,2.7-.17,4.44s.06,3.19.17,4.36a17.88,17.88,0,0,0,.46,2.84,3.92,3.92,0,0,0,.7,1.52,1.1,1.1,0,0,0,.85.46,1.08,1.08,0,0,0,.82-.48,4.4,4.4,0,0,0,.69-1.57,18.28,18.28,0,0,0,.46-2.84C146.15,111.27,146.21,109.84,146.21,108.15Z"/><path class="cls-49" d="M161.68,103a12.34,12.34,0,0,1-.21,2.26,10,10,0,0,1-.68,2.2,9,9,0,0,1-1.22,2,7.55,7.55,0,0,1-1.82,1.63,50,50,0,0,0,2.08,4.63,40.85,40.85,0,0,0,2.54,4.28l-4.22.23L155.29,112c0,1.37.1,2.73.16,4.08s.16,2.68.26,4h-4.12q.27-3.84.4-7.66t.12-7.71c0-1.5,0-3,0-4.48s-.07-3-.13-4.52a9.34,9.34,0,0,1,1.81-.35c.61-.06,1.13-.08,1.56-.08a8.19,8.19,0,0,1,1.1.09,5.69,5.69,0,0,1,1.36.38,6.37,6.37,0,0,1,1.41.81A5.36,5.36,0,0,1,160.44,98a7.53,7.53,0,0,1,.89,2.08A10.84,10.84,0,0,1,161.68,103Zm-6.43,6.32a3.14,3.14,0,0,0,1-.5,3.71,3.71,0,0,0,.78-.75,4.47,4.47,0,0,0,.57-.89,7.52,7.52,0,0,0,.38-1,9.79,9.79,0,0,0,.39-2.39s0-.16,0-.41,0-.58-.09-1-.14-.8-.25-1.25a6.7,6.7,0,0,0-.46-1.3,4.07,4.07,0,0,0-.78-1.13,2.69,2.69,0,0,0-1.15-.69c-.13,1.77-.23,3.53-.31,5.28s-.11,3.51-.11,5.28Z"/><path class="cls-49" d="M170.35,110.94c-.35,0-.7,0-1.06-.06h-1.71c-.22,0-.44,0-.65,0l-.07,6c.92,0,1.82-.06,2.69-.13s1.8-.17,2.78-.32V120l-1.83-.06h-1.77c-.88,0-1.74,0-2.6,0s-1.73.07-2.64.13q.15-3.15.24-6.22c.06-2,.09-4.13.09-6.22s0-4-.07-6-.14-4-.26-6c1.32.11,2.59.16,3.79.16.77,0,1.53,0,2.29-.06l2.44-.16v3.88c-.7-.13-1.39-.22-2.07-.29a19.9,19.9,0,0,0-2-.1h-.65c-.12,1.41-.19,2.81-.23,4.2s-.07,2.8-.09,4.2c.29,0,.58,0,.88,0h1.71c.28,0,.55,0,.83,0Z"/><polygon class="cls-50" points="48.56 259.52 39.06 264.51 196.5 258.22 83.89 258.22 48.56 259.52"/><path class="cls-45" d="M115.2,85.42v7.41h-1.74l-2.4-3.37v3.37H109V85.42h1.75l2.39,3.36V85.42Z"/><path class="cls-45" d="M121.37,90.49H118a.93.93,0,0,0,.35.5,1.07,1.07,0,0,0,.63.18,1.46,1.46,0,0,0,.55-.1,1.59,1.59,0,0,0,.48-.33L121,92a2.54,2.54,0,0,1-2.15.93,3.06,3.06,0,0,1-1.56-.38,2.73,2.73,0,0,1-1-1.08,3.27,3.27,0,0,1-.37-1.54,3.14,3.14,0,0,1,.37-1.55,2.65,2.65,0,0,1,1-1.07,2.74,2.74,0,0,1,1.42-.38,2.79,2.79,0,0,1,1.37.35,2.57,2.57,0,0,1,1,1,3.4,3.4,0,0,1,.36,1.62S121.39,90.15,121.37,90.49Zm-3.18-1.73a1,1,0,0,0-.27.57h1.58a1,1,0,0,0-.27-.56.7.7,0,0,0-.52-.21A.73.73,0,0,0,118.19,88.76Z"/><path class="cls-45" d="M122.17,86.23a1.3,1.3,0,0,1,0-1.75,1.19,1.19,0,0,1,.89-.34,1.24,1.24,0,0,1,.89.32,1.16,1.16,0,0,1,.33.85,1.29,1.29,0,0,1-.33.91,1.32,1.32,0,0,1-1.78,0ZM122,87h2v5.79h-2Z"/><path class="cls-45" d="M130.47,87v4.63a3.52,3.52,0,0,1-.78,2.49,2.9,2.9,0,0,1-2.21.83,4.65,4.65,0,0,1-1.38-.19,3.17,3.17,0,0,1-1.09-.53l.68-1.63a2.24,2.24,0,0,0,.73.41,2.45,2.45,0,0,0,.85.16,1.13,1.13,0,0,0,.89-.31,1.31,1.31,0,0,0,.28-.9v-.1a1.59,1.59,0,0,1-1.36.61,2.13,2.13,0,0,1-1.17-.34,2.34,2.34,0,0,1-.87-1,3.11,3.11,0,0,1-.33-1.46,3.18,3.18,0,0,1,.33-1.47,2.29,2.29,0,0,1,.87-1,2.14,2.14,0,0,1,1.17-.35,1.58,1.58,0,0,1,1.46.76V87Zm-2.25,3.35a1,1,0,0,0,.24-.67.93.93,0,0,0-.24-.67.83.83,0,0,0-1.21,0,.93.93,0,0,0-.24.67.91.91,0,0,0,.25.67.82.82,0,0,0,1.2,0Z"/><path class="cls-45" d="M136.25,87.58a2.93,2.93,0,0,1,.56,2v3.3h-2V89.94c0-.67-.2-1-.6-1a.67.67,0,0,0-.55.28,1.52,1.52,0,0,0-.21.89v2.72h-2V85h2V87.5a1.86,1.86,0,0,1,1.38-.57A1.83,1.83,0,0,1,136.25,87.58Z"/><path class="cls-45" d="M142.17,87.3a2.48,2.48,0,0,1,.86,1,4.11,4.11,0,0,1,0,3.18,2.51,2.51,0,0,1-.86,1,2.14,2.14,0,0,1-1.2.36,1.59,1.59,0,0,1-1.35-.58v.48h-1.93V85h2v2.46a1.58,1.58,0,0,1,1.25-.5A2.07,2.07,0,0,1,142.17,87.3Zm-1.11,3.47a1.65,1.65,0,0,0,0-1.68.7.7,0,0,0-1.15,0,1.71,1.71,0,0,0,0,1.68.7.7,0,0,0,1.15,0Z"/><path class="cls-45" d="M145.12,92.55a2.69,2.69,0,0,1-1-1.07,3.43,3.43,0,0,1,0-3.1,2.63,2.63,0,0,1,1-1.07,2.87,2.87,0,0,1,1.47-.38,2.94,2.94,0,0,1,1.48.38,2.77,2.77,0,0,1,1,1.07,3.52,3.52,0,0,1,0,3.1,2.73,2.73,0,0,1-2.5,1.45A2.78,2.78,0,0,1,145.12,92.55Zm2-1.78a1.71,1.71,0,0,0,0-1.68.71.71,0,0,0-1.16,0,1.71,1.71,0,0,0,0,1.68.71.71,0,0,0,1.16,0Z"/><path class="cls-45" d="M155.47,87v5.79h-1.93v-.55a1.74,1.74,0,0,1-.63.49,1.83,1.83,0,0,1-.77.16,1.86,1.86,0,0,1-1.5-.67,3.07,3.07,0,0,1-.57-2V87h2v2.78a1.63,1.63,0,0,0,.16.85.53.53,0,0,0,.48.25.58.58,0,0,0,.49-.28,1.54,1.54,0,0,0,.2-.88V87Z"/><path class="cls-45" d="M159.9,86.93v2.12a2.42,2.42,0,0,0-.45,0c-.7,0-1,.41-1,1.25v2.57h-2V87h1.94v.62A1.84,1.84,0,0,1,159.9,86.93Z"/><path class="cls-45" d="M165.36,87.58a2.93,2.93,0,0,1,.55,2v3.3h-2V89.94c0-.67-.2-1-.61-1a.68.68,0,0,0-.55.28,1.52,1.52,0,0,0-.21.89v2.72h-2V85h2V87.5a1.89,1.89,0,0,1,1.39-.57A1.84,1.84,0,0,1,165.36,87.58Z"/><path class="cls-45" d="M168,92.55a2.84,2.84,0,0,1-1-1.07,3.43,3.43,0,0,1,0-3.1,2.77,2.77,0,0,1,1-1.07,2.93,2.93,0,0,1,1.47-.38,2.88,2.88,0,0,1,1.48.38,2.63,2.63,0,0,1,1,1.07,3.52,3.52,0,0,1,0,3.1,2.69,2.69,0,0,1-1,1.07,2.79,2.79,0,0,1-1.48.38A2.83,2.83,0,0,1,168,92.55Zm2.05-1.78a1.71,1.71,0,0,0,0-1.68.7.7,0,0,0-1.15,0,1.65,1.65,0,0,0,0,1.68.7.7,0,0,0,1.15,0Z"/><path class="cls-45" d="M174.11,92.55a2.84,2.84,0,0,1-1-1.07,3.43,3.43,0,0,1,0-3.1,2.77,2.77,0,0,1,1-1.07,3.07,3.07,0,0,1,3,0,2.67,2.67,0,0,1,1,1.07,3.43,3.43,0,0,1,0,3.1,2.74,2.74,0,0,1-1,1.07,3.07,3.07,0,0,1-3,0Zm2-1.78a1.65,1.65,0,0,0,0-1.68.7.7,0,0,0-1.15,0,1.65,1.65,0,0,0,0,1.68.7.7,0,0,0,1.15,0Z"/><path class="cls-45" d="M184.53,85v7.86H182.6v-.48a1.59,1.59,0,0,1-1.35.58,2.14,2.14,0,0,1-1.2-.36,2.51,2.51,0,0,1-.86-1,4.11,4.11,0,0,1,0-3.18,2.48,2.48,0,0,1,.86-1,2.07,2.07,0,0,1,1.2-.37,1.58,1.58,0,0,1,1.25.5V85Zm-2.22,5.8a1.71,1.71,0,0,0,0-1.68.7.7,0,0,0-1.15,0,1.65,1.65,0,0,0,0,1.68.7.7,0,0,0,1.15,0Z"/></g></g></g></svg>