<svg xmlns="http://www.w3.org/2000/svg" xmlns:xlink="http://www.w3.org/1999/xlink" viewBox="0 0 656.11 554.47"><defs><style>.cls-1{fill:#fff;}.cls-1,.cls-10,.cls-11,.cls-12,.cls-13,.cls-14,.cls-15,.cls-16,.cls-17,.cls-18,.cls-20,.cls-21,.cls-22,.cls-4,.cls-6,.cls-7,.cls-8,.cls-9{fill-rule:evenodd;}.cls-2{fill:url(#linear-gradient);}.cls-3{mask:url(#mask);}.cls-4{fill:#042538;}.cls-5{mask:url(#mask-2);}.cls-6{fill:#eeeeef;}.cls-7{fill:#ac2759;}.cls-8{fill:#d73b77;}.cls-9{fill:#e84f8a;}.cls-10{fill:#1f417e;}.cls-11{fill:#265aa0;}.cls-12{fill:#d8ac31;}.cls-13{fill:#fad05b;}.cls-14{fill:#e6e6e5;}.cls-15{fill:#211a15;}.cls-16{fill:#5c6f8c;}.cls-17{fill:#f3a173;}.cls-18{fill:#d37a4f;}.cls-19{mask:url(#mask-3);}.cls-20{fill:#d1b699;}.cls-21{fill:#d2d2d2;}.cls-22{fill:#20366b;}.cls-23{fill:#662d91;}</style><linearGradient id="linear-gradient" x1="-1134.26" y1="659.68" x2="-1135.62" y2="659.84" gradientTransform="matrix(-208.01, -369.54, -275.49, 155.07, -53959.07, -521406.84)" gradientUnits="userSpaceOnUse"><stop offset="0" stop-color="#662c83"/><stop offset="0.15" stop-color="#602c86"/><stop offset="0.36" stop-color="#513d93"/><stop offset="0.6" stop-color="#3659a8"/><stop offset="0.77" stop-color="#2072b9"/><stop offset="0.89" stop-color="#2d90cf" stop-opacity="0.98"/><stop offset="1" stop-color="#39a9e0" stop-opacity="0.97"/></linearGradient><mask id="mask" x="187.73" y="30.42" width="352.78" height="525.49" maskUnits="userSpaceOnUse"><g id="mask-4"><polygon id="path-3" class="cls-1" points="187.73 89.54 423.61 30.42 540.51 496.78 304.64 555.91 187.73 89.54"/></g></mask><mask id="mask-2" x="0" y="482.67" width="457.79" height="11.75" maskUnits="userSpaceOnUse"><g id="mask-2-2" data-name="mask-2"><polygon id="path-1" class="cls-1" points="0 482.68 457.79 482.68 457.79 494.42 0 494.42 0 482.68"/></g></mask><mask id="mask-3" x="0" y="254.15" width="458.29" height="241.75" maskUnits="userSpaceOnUse"><g id="mask-4-2" data-name="mask-4"><polygon id="path-3-2" data-name="path-3" class="cls-1" points="0 495.9 458.29 495.9 458.29 254.16 0 254.16 0 495.9"/></g></mask></defs><g id="Layer_2" data-name="Layer 2"><g id="Layer_1-2" data-name="Layer 1"><path id="Path" class="cls-2" d="M516.56,236.74a69.2,69.2,0,0,0,15.11,61,331.23,331.23,0,0,0,63.67,55.85C656.63,395,710,496.69,553.13,542.48S202.67,499.43,144.61,336.72,272.68-20,388.37,1.66C494.49,21.48,541.27,127.71,516.56,236.74Z"/><g id="Group-74"><g class="cls-3"><path id="Fill-72" class="cls-4" d="M503.31,506.11,341.83,546.58a38.24,38.24,0,0,1-46.47-27.68L197,126.55a38.25,38.25,0,0,1,27.92-46.33L386.41,39.74a38.25,38.25,0,0,1,46.47,27.68l98.35,392.36a38.25,38.25,0,0,1-27.92,46.33"/></g></g><path id="Fill-75" class="cls-1" d="M425.3,69.3l97.45,388.75a25.39,25.39,0,0,1-18.48,30.79L334.6,531.37a25.39,25.39,0,0,1-30.82-18.43L206.33,124.19a25.38,25.38,0,0,1,18.49-30.77L274.51,81a7.5,7.5,0,0,0,.21,1.55,7.21,7.21,0,0,0,8.76,5.24L340.1,73.56a7.22,7.22,0,0,0,5.24-8.75,6.81,6.81,0,0,0-.54-1.47l49.69-12.45A25.36,25.36,0,0,1,425.3,69.3"/><g id="Page-1"><g id="Feature-Intro-3"><g id="Group-392"><g id="Group-3"><g class="cls-5"><path id="Fill-1" class="cls-6" d="M457.79,488.55c0,3.24-102.48,5.87-228.89,5.87S0,491.79,0,488.55s102.48-5.88,228.9-5.88,228.89,2.63,228.89,5.88"/></g></g><path id="Fill-4" class="cls-7" d="M238.78,363.91h.75V350.39a6.67,6.67,0,0,1,13.34,0v13.52h.75V350.39a7.42,7.42,0,0,0-14.84,0Z"/><polygon id="Fill-6" class="cls-8" points="261.91 409.88 222.47 409.88 224.56 359.46 264 359.46 261.91 409.88"/><polygon id="Fill-8" class="cls-9" points="231.97 409.88 271.41 409.88 269.32 359.46 229.89 359.46 231.97 409.88"/><polygon id="Fill-10" class="cls-7" points="232.85 409.88 228.4 406.92 223.95 409.88 232.85 409.88"/><polygon id="Fill-12" class="cls-7" points="226.92 405.64 226.92 359.46 229.33 359.46 231.37 409.88 226.92 405.64"/><path id="Fill-14" class="cls-7" d="M256.58,362.42a1.49,1.49,0,1,0,1.49-1.48,1.49,1.49,0,0,0-1.49,1.48"/><path id="Fill-16" class="cls-7" d="M243.23,362.42a1.49,1.49,0,1,0,3,0,1.49,1.49,0,0,0-3,0"/><path id="Fill-18" class="cls-7" d="M243.23,363.91H244V350.39a6.67,6.67,0,0,1,13.34,0v13.52h.75V350.39a7.42,7.42,0,0,0-14.84,0Z"/><path id="Fill-20" class="cls-10" d="M262.51,352h.72V338.52a6.7,6.7,0,0,1,13.4,0V352h.72V338.52a7.42,7.42,0,0,0-14.84,0Z"/><polygon id="Fill-22" class="cls-11" points="287.05 400.99 246.2 400.99 248.36 349.07 289.21 349.07 287.05 400.99"/><polygon id="Fill-24" class="cls-11" points="255.78 400.99 296.63 400.99 294.46 349.07 253.62 349.07 255.78 400.99"/><polygon id="Fill-26" class="cls-10" points="256.58 400.99 251.39 396.54 246.2 400.99 256.58 400.99"/><polygon id="Fill-28" class="cls-10" points="252.13 396.62 252.13 349.07 254.54 349.07 256.58 400.99 252.13 396.62"/><path id="Fill-30" class="cls-10" d="M280.31,352a1.49,1.49,0,1,0,1.49-1.48,1.49,1.49,0,0,0-1.49,1.48"/><path id="Fill-32" class="cls-10" d="M267,352a1.49,1.49,0,1,0,1.49-1.48A1.49,1.49,0,0,0,267,352"/><path id="Fill-34" class="cls-10" d="M267,352h.72V338.52a6.7,6.7,0,0,1,13.4,0V352h.72V338.52a7.42,7.42,0,0,0-14.84,0Z"/><path id="Fill-36" class="cls-7" d="M293.66,386.15h.7V368.71a8.21,8.21,0,1,1,16.4,0v17.44h.7V368.71a8.91,8.91,0,1,0-17.8,0Z"/><polygon id="Fill-38" class="cls-8" points="323.61 446.96 272.9 446.96 275.58 383.19 326.29 383.19 323.61 446.96"/><polygon id="Fill-40" class="cls-9" points="284.48 446.96 335.19 446.96 332.5 383.19 281.8 383.19 284.48 446.96"/><polygon id="Fill-42" class="cls-7" points="284.76 445.48 278.83 441.03 272.9 445.48 284.76 445.48"/><polygon id="Fill-44" class="cls-7" points="278.83 441.6 278.83 383.19 282.04 383.19 284.76 446.96 278.83 441.6"/><path id="Fill-46" class="cls-7" d="M315.91,386.15a1.48,1.48,0,1,0,1.48-1.48,1.49,1.49,0,0,0-1.48,1.48"/><path id="Fill-48" class="cls-7" d="M299.59,386.15a1.49,1.49,0,1,0,3,0,1.49,1.49,0,0,0-3,0"/><path id="Fill-50" class="cls-7" d="M299.59,386.15h.7V368.71a8.21,8.21,0,1,1,16.4,0v17.44h.7V368.71a8.91,8.91,0,1,0-17.8,0Z"/><path id="Fill-52" class="cls-7" d="M278.83,427.68h.7V410.23a8.21,8.21,0,1,1,16.4,0v17.45h.7V410.23a8.91,8.91,0,1,0-17.8,0Z"/><polygon id="Fill-54" class="cls-9" points="308.77 487.01 258.06 487.01 260.75 423.23 311.46 423.23 308.77 487.01"/><polygon id="Fill-56" class="cls-8" points="269.65 487.01 320.36 487.01 317.67 423.23 266.96 423.23 269.65 487.01"/><polygon id="Fill-58" class="cls-7" points="269.93 487.01 264 482.56 258.06 487.01 269.93 487.01"/><polygon id="Fill-60" class="cls-7" points="264 481.64 264 423.23 267.21 423.23 269.93 487.01 264 481.64"/><path id="Fill-62" class="cls-7" d="M301.08,427.68a1.48,1.48,0,1,0,1.48-1.48,1.48,1.48,0,0,0-1.48,1.48"/><path id="Fill-64" class="cls-7" d="M283.28,427.68a1.48,1.48,0,1,0,1.48-1.48,1.48,1.48,0,0,0-1.48,1.48"/><path id="Fill-66" class="cls-7" d="M284.76,427.68h.7V410.23a8.21,8.21,0,1,1,16.4,0v17.45h.7V410.23a8.91,8.91,0,1,0-17.8,0Z"/><path id="Fill-68" class="cls-7" d="M221,427.68h.69V410.23a8.21,8.21,0,1,1,16.41,0v17.45h.69V410.23a8.9,8.9,0,1,0-17.79,0Z"/><polygon id="Fill-70" class="cls-8" points="250.93 487.01 200.22 487.01 202.91 423.23 253.62 423.23 250.93 487.01"/><polygon id="Fill-72-2" data-name="Fill-72" class="cls-7" points="213.29 487.01 264 487.01 261.31 423.23 210.6 423.23 213.29 487.01"/><polygon id="Fill-74" class="cls-7" points="212.09 487.01 206.16 482.56 200.22 487.01 212.09 487.01"/><polygon id="Fill-76" class="cls-7" points="206.16 481.64 206.16 423.23 209.37 423.23 212.09 487.01 206.16 481.64"/><path id="Fill-78" class="cls-7" d="M243.23,427.68a1.49,1.49,0,1,0,1.49-1.48,1.49,1.49,0,0,0-1.49,1.48"/><path id="Fill-80" class="cls-7" d="M226.92,427.68a1.49,1.49,0,1,0,1.48-1.48,1.48,1.48,0,0,0-1.48,1.48"/><path id="Fill-82" class="cls-7" d="M226.92,427.68h.7V410.23a8.21,8.21,0,1,1,16.4,0v17.45h.7V410.23a8.91,8.91,0,1,0-17.8,0Z"/><path id="Fill-84" class="cls-12" d="M320.36,427.68h.7V410.23a8.21,8.21,0,1,1,16.4,0v17.45h.69V410.23a8.9,8.9,0,1,0-17.79,0Z"/><polygon id="Fill-86" class="cls-13" points="350.3 487.01 299.59 487.01 302.28 423.23 352.99 423.23 350.3 487.01"/><polygon id="Fill-88" class="cls-13" points="311.18 487.01 361.88 487.01 359.2 423.23 308.49 423.23 311.18 487.01"/><polygon id="Fill-90" class="cls-12" points="312.94 487.01 307.01 482.56 301.08 487.01 312.94 487.01"/><polygon id="Fill-92" class="cls-12" points="307.01 481.64 307.01 423.23 310.22 423.23 312.94 487.01 307.01 481.64"/><path id="Fill-94" class="cls-12" d="M342.6,427.68a1.49,1.49,0,1,0,1.49-1.48,1.49,1.49,0,0,0-1.49,1.48"/><path id="Fill-96" class="cls-12" d="M326.29,427.68a1.49,1.49,0,1,0,1.48-1.48,1.48,1.48,0,0,0-1.48,1.48"/><path id="Fill-98" class="cls-12" d="M326.29,427.68h.7V410.23a8.21,8.21,0,1,1,16.4,0v17.45h.7V410.23a8.91,8.91,0,1,0-17.8,0Z"/><path id="Fill-100" class="cls-12" d="M235.82,392.09h.7V374.64a8.21,8.21,0,1,1,16.4,0v17.45h.7V374.64a8.91,8.91,0,1,0-17.8,0Z"/><polygon id="Fill-102" class="cls-13" points="267.25 451.41 216.54 451.41 219.22 387.64 269.93 387.64 267.25 451.41"/><polygon id="Fill-104" class="cls-13" points="228.12 451.41 278.83 451.41 276.14 387.64 225.44 387.64 228.12 451.41"/><polygon id="Fill-106" class="cls-12" points="226.92 451.41 220.99 446.96 215.05 451.41 226.92 451.41"/><polygon id="Fill-108" class="cls-12" points="222.47 446.05 222.47 387.64 225.68 387.64 228.4 451.41 222.47 446.05"/><path id="Fill-110" class="cls-12" d="M258.07,392.09a1.48,1.48,0,1,0,1.48-1.49,1.48,1.48,0,0,0-1.48,1.49"/><path id="Fill-112" class="cls-12" d="M241.75,392.09a1.49,1.49,0,1,0,1.48-1.49,1.48,1.48,0,0,0-1.48,1.49"/><path id="Fill-114" class="cls-12" d="M241.75,392.09h.7V374.64a8.21,8.21,0,1,1,16.4,0v17.45h.7V374.64a8.91,8.91,0,1,0-17.8,0Z"/><path id="Fill-116" class="cls-10" d="M259.55,439.55h.72V426a6.7,6.7,0,0,1,13.39,0v13.53h.72V426a7.42,7.42,0,0,0-14.83,0Z"/><polygon id="Fill-118" class="cls-11" points="284.08 488.49 243.23 488.49 245.4 436.58 286.25 436.58 284.08 488.49"/><polygon id="Fill-120" class="cls-11" points="252.81 488.49 293.66 488.49 291.5 436.58 250.65 436.58 252.81 488.49"/><polygon id="Fill-122" class="cls-10" points="253.62 488.49 248.43 484.04 243.23 488.49 253.62 488.49"/><polygon id="Fill-124" class="cls-10" points="247.68 484.12 247.68 436.58 250.09 436.58 252.13 488.49 247.68 484.12"/><path id="Fill-126" class="cls-10" d="M277.35,439.55a1.48,1.48,0,1,0,1.48-1.49,1.48,1.48,0,0,0-1.48,1.49"/><path id="Fill-128" class="cls-10" d="M264,439.55a1.48,1.48,0,1,0,1.48-1.49,1.48,1.48,0,0,0-1.48,1.49"/><path id="Fill-130" class="cls-10" d="M265.48,439.55h.72V426a6.7,6.7,0,0,1,13.39,0v13.53h.72V426a7.42,7.42,0,0,0-14.83,0Z"/><path id="Fill-132" class="cls-14" d="M361.88,328.17s7-8.09,29.67,3.11Z"/><path id="Fill-134" class="cls-14" d="M415.29,350.56s14.13-.22,6.76,12.68-6.76-12.68-6.76-12.68"/><path id="Fill-136" class="cls-14" d="M370.86,328.66s28.22-4.39,39.81,17.91-42.15-5.27-39.81-17.91"/><path id="Fill-138" class="cls-7" d="M360.4,302.82s-.79-12.12-13.39-13-15.16,17.75-12.18,22.68,25.57-9.64,25.57-9.64"/><path id="Fill-140" class="cls-9" d="M330.85,312.25c1.14,3.36,10.31,3.64,20.49.63s17.5-8.17,16.36-11.52-10.31-3.63-20.48-.63-17.5,8.17-16.37,11.52"/><polygon id="Fill-142" class="cls-13" points="369.3 473.45 364.15 478.11 358.92 473.24 363.24 467.73 369.3 473.45"/><path id="Fill-144" class="cls-15" d="M365.51,476.37a48.64,48.64,0,0,0,3.15,6.86,3.79,3.79,0,0,1,.61,2.5,1.51,1.51,0,0,1-2.41,1l-12.77-9.65c-1.37-1-1.52-1.92-.17-3s2.95-3.19,4.15-3.31c2.54-.26,5,0,7.44,5.61"/><polygon id="Fill-146" class="cls-13" points="419.73 473.01 418.8 479.59 411.17 478.92 410.83 472.18 419.73 473.01"/><path id="Fill-148" class="cls-15" d="M418.32,478.11a47.46,47.46,0,0,0,6.63,3.1,3.61,3.61,0,0,1,2,1.45,1.46,1.46,0,0,1-1.26,2.17l-15.75.69c-1.69.07-2.35-.49-2-2.08s.32-4.12,1.18-4.94c1.79-1.72,3.85-3,9.17-.39"/><path id="Fill-150" class="cls-10" d="M423.17,411.59s4.05,43.49-4.09,62.07h-9.29s2.59-43.29-12.51-55.48c0,0-6.61,45-29.85,55.48l-7-5.23s11.67-32.67,7.58-54.06a6.33,6.33,0,0,1,6.87-7.42Z"/><path id="Fill-152" class="cls-16" d="M414.87,473.66c1.83-24.37-2.9-38.38-7.2-45.84-4.68-8.13-9.74-10.43-9.95-10.52l-.24.58s5.12,2.33,9.7,10.31c4.23,7.39,8.9,21.26,7.08,45.42Z"/><path id="Fill-154" class="cls-16" d="M365.4,472.17c18.39-25.46,15.63-51.64,15.6-51.9l-.66.06c0,.26,2.76,26.22-15.49,51.49Z"/><path id="Fill-156" class="cls-9" d="M393.72,344.91c10.24,13.8,30.68,44.81,31.94,73.87,0,0-18.07-8.28-55.37-5.46,0,0-1.1-38.21-18.5-58.61C340.91,342,350.43,333,363.68,331.48a33,33,0,0,1,30,13.43"/><path id="Fill-158" class="cls-14" d="M370.06,328.31s-5.39,4.07,12.58,21.78,20,68.78,44.5,79.07c0,0,1.32-84.93-57.08-100.85"/><path id="Fill-160" class="cls-14" d="M349.88,335.73s19.21,2.48,23.69,20,12,34.75,12,47.34c0,16-10.25,19.68-16.28,23.11,0,0-1.88-49.46-13.3-63.22s-13.51-20.76-6.15-27.25"/><path id="Fill-162" class="cls-17" d="M362,309.62a5.33,5.33,0,0,1,3.52-4.7c3.43-1.22,6.94,14.17-.91,13.75a11.18,11.18,0,0,1-2.31,10.73c-.57.69-9.22,11.59-18.41-1.76,0,0,1.06,1.25-2.67,1.16s-5.66-10.66-3.75-11.74,3.55,2.71,3.55,2.71-6.3-9.71,1.89-16.44,18.68-2,19.09,6.29"/><polygon id="Fill-164" class="cls-18" points="348.54 312 349.35 322.38 352.99 320.96 348.54 312"/><path id="Fill-166" class="cls-15" d="M353.21,313.75c.29.8.76,1.34,1,1.19s.29-.92,0-1.73-.76-1.34-1.05-1.19-.29.92,0,1.73"/><path id="Fill-168" class="cls-15" d="M345.79,318.2c.29.8.76,1.34,1,1.19s.28-.92,0-1.73-.76-1.34-1.05-1.19-.28.92,0,1.73"/><path id="Fill-170" class="cls-18" d="M361.92,311.24s1.22-2,2.47-2.2,2.87,5,1.3,6.47-2.22,1-2.34.08,1.28-2.06.83-2.81-2.61.11-2.26-1.54"/><path id="Fill-172" class="cls-18" d="M340.39,320.53s-1.27-1.42-2-1.06.12,6.33,1.4,7.07,1.45-.06,1.23-1-1.32-1.46-1.33-2.42,1.39-1.1.68-2.58"/><path id="Fill-174" class="cls-1" d="M350.47,329.65c-2.42-.58-2.65-4.37-.25-5a2.17,2.17,0,0,1,.89-.07c2.13.26,5.12-1.15,6.29-2s3.26,3.11-1.22,5.88a7.62,7.62,0,0,1-5.71,1.27"/><path id="Fill-176" class="cls-15" d="M353.42,310.07a4.52,4.52,0,1,0,1.78-.37,4.53,4.53,0,0,0-1.78.37m-3,6.21h0a5.2,5.2,0,1,1,4.77,3.13,5.19,5.19,0,0,1-4.77-3.13"/><path id="Fill-178" class="cls-15" d="M343,313a4.52,4.52,0,1,0,6,2.35,4.48,4.48,0,0,0-2.49-2.4,4.37,4.37,0,0,0-1.66-.32,4.53,4.53,0,0,0-1.8.37m-.11,9a5.18,5.18,0,1,1,4-.06,5.13,5.13,0,0,1-4,.06"/><polygon id="Fill-180" class="cls-15" points="357.52 310.51 360.4 309.67 360.31 309.03 357.44 309.87 357.52 310.51"/><polygon id="Fill-182" class="cls-15" points="338.59 317.93 341.12 315.51 340.68 314.96 338.15 317.38 338.59 317.93"/><polygon id="Fill-184" class="cls-15" points="345.8 312 351.5 309.55 351.28 309.03 345.57 311.48 345.8 312"/><path id="Fill-186" class="cls-10" d="M370.9,328.31l.65-.16-2.89-10.47a5,5,0,0,1,.56-3.94,5.41,5.41,0,0,1,3.29-2.42,5.59,5.59,0,0,1,4.1.54,5.2,5.2,0,0,1,2.51,3.16L382,325.49l.64-.16-2.89-10.47a5.82,5.82,0,0,0-2.82-3.55,6.25,6.25,0,0,0-4.6-.6,6,6,0,0,0-3.69,2.71,5.6,5.6,0,0,0-.63,4.42Z"/><polygon id="Fill-188" class="cls-11" points="400.45 359.98 369.22 368.36 360.4 327.79 391.63 319.41 400.45 359.98"/><polygon id="Fill-190" class="cls-11" points="377.3 365.39 409.34 357.12 396.9 317.93 364.85 326.2 377.3 365.39"/><polygon id="Fill-192" class="cls-10" points="376.72 366.37 372.1 363.91 369.3 368.36 376.72 366.37"/><polygon id="Fill-194" class="cls-10" points="371.99 363.05 361.88 327.34 363.94 326.83 376.72 365.39 371.99 363.05"/><path id="Fill-196" class="cls-10" d="M385.66,325.72a1.48,1.48,0,1,0,1.06-1.81,1.48,1.48,0,0,0-1.06,1.81"/><path id="Fill-198" class="cls-10" d="M375.28,327.21a1.48,1.48,0,1,0,1.06-1.82,1.48,1.48,0,0,0-1.06,1.82"/><path id="Fill-200" class="cls-10" d="M375.35,326.83l.64-.16-2.88-10.48a5,5,0,0,1,.56-3.93,5.37,5.37,0,0,1,3.29-2.42,5.44,5.44,0,0,1,6.61,3.7L386.46,324l.64-.17-2.89-10.47a6.09,6.09,0,0,0-7.42-4.14,6,6,0,0,0-3.69,2.71,5.6,5.6,0,0,0-.63,4.42Z"/><path id="Fill-202" class="cls-12" d="M365.31,352l.57-.16-3.2-13.15a7,7,0,0,1,.63-5,6.11,6.11,0,0,1,3.69-3.07,6,6,0,0,1,7.43,4.69l3.2,13.15.57-.17L375,335.19a6.48,6.48,0,0,0-12.2-1.79,7.7,7.7,0,0,0-.69,5.49Z"/><polygon id="Fill-204" class="cls-13" points="400.45 392.32 361.12 402.47 350.02 353.3 389.34 343.14 400.45 392.32"/><polygon id="Fill-206" class="cls-13" points="369.4 399.5 407.86 389.42 392.93 341.66 354.47 351.74 369.4 399.5"/><polygon id="Fill-208" class="cls-12" points="369.3 400.49 363.76 398.02 360.4 402.47 369.3 400.49"/><polygon id="Fill-210" class="cls-12" points="364.1 396.53 352.99 351.2 355.25 350.56 369.3 399.5 364.1 396.53"/><path id="Fill-212" class="cls-12" d="M381.21,346.49a1.48,1.48,0,1,0,1.06-1.81,1.49,1.49,0,0,0-1.06,1.81"/><path id="Fill-214" class="cls-12" d="M367.87,350.94a1.48,1.48,0,1,0,1.05-1.82,1.48,1.48,0,0,0-1.05,1.82"/><path id="Fill-216" class="cls-12" d="M369.76,350.56l.57-.17-3.2-13.14a7,7,0,0,1,.63-5,6.11,6.11,0,0,1,3.69-3.07,5.6,5.6,0,0,1,4.6.69,6.53,6.53,0,0,1,2.83,4l3.2,13.15.57-.17-3.2-13.14a7.2,7.2,0,0,0-3.1-4.41,6.19,6.19,0,0,0-5.05-.75,6.7,6.7,0,0,0-4.05,3.37,7.7,7.7,0,0,0-.69,5.49Z"/><path id="Fill-218" class="cls-7" d="M391.67,355l.64-.17-2.88-10.47a5,5,0,0,1,.55-3.93,5.33,5.33,0,0,1,3.29-2.42,5.58,5.58,0,0,1,4.1.54,5.18,5.18,0,0,1,2.52,3.16l2.88,10.47.64-.17-2.88-10.47a5.85,5.85,0,0,0-2.82-3.54,6.23,6.23,0,0,0-4.61-.6,6,6,0,0,0-3.69,2.71,5.6,5.6,0,0,0-.63,4.42Z"/><polygon id="Fill-220" class="cls-8" points="421.21 386.68 389.98 395.05 381.17 354.49 412.39 346.11 421.21 386.68"/><polygon id="Fill-222" class="cls-9" points="396.57 392.09 428.63 383.81 416.18 344.63 384.13 352.9 396.57 392.09"/><polygon id="Fill-224" class="cls-7" points="397.48 393.07 392.87 390.6 390.06 395.05 397.48 393.07"/><polygon id="Fill-226" class="cls-7" points="392.75 389.75 382.65 354.03 384.71 353.52 397.48 392.09 392.75 389.75"/><path id="Fill-228" class="cls-7" d="M406.43,350.94a1.48,1.48,0,1,0,1.05-1.82,1.48,1.48,0,0,0-1.05,1.82"/><path id="Fill-230" class="cls-7" d="M394.56,352.42a1.48,1.48,0,1,0,1.06-1.81,1.49,1.49,0,0,0-1.06,1.81"/><path id="Fill-232" class="cls-7" d="M396.12,353.52l.64-.16-2.89-10.47a5.19,5.19,0,0,1,3.85-6.35,5.53,5.53,0,0,1,4.1.54,5.17,5.17,0,0,1,2.51,3.15l2.89,10.47.64-.16L405,340.07a5.89,5.89,0,0,0-2.82-3.55,6.28,6.28,0,0,0-4.61-.6,6,6,0,0,0-3.69,2.71,5.6,5.6,0,0,0-.63,4.42Z"/><path id="Fill-234" class="cls-14" d="M351.68,363.17s-1.1-5-1.1-5c-.67-2-1.55-2.58-3.1-4.59-2.72-3.54-1.21-14.88-1.21-14.88-8,9-14.47,27.36-9.13,41.49,9.11,24.1,36.61,4.15,36.61,4.15l-5-11.38s-21.08,7-17.08-9.78"/><path id="Fill-236" class="cls-17" d="M370.78,376.65s5.11-4,8.23-3.84S375.7,376,375.7,376s6.51-1.22,10.41-.5,3.54,3.36-3.7,5.77-8.59,1.86-8.59,1.86Z"/><path id="Fill-238" class="cls-17" d="M419,356.49s-3,3.27-4.71,5.2,1.31,7.73,7.68,3.91-3-9.11-3-9.11"/><path id="Fill-240" class="cls-17" d="M420.75,359.46s2.05-3.72-2.51-5.94l1.49,5.94Z"/><path id="Fill-242" class="cls-9" d="M360.4,305.3s-12.06-.69-21.51,6.7l-.74-6.38,7.74-4.81,9.62-.68,3.16.68,1.73,1.81Z"/><path id="Fill-244" class="cls-17" d="M64.05,302.87a5,5,0,0,0-4.74-2.75c-3.39.23-.7,14.83,5.85,11.53,0,0,0,9.69,5.75,12.62,4.31,2.2,12.34,2.33,15.28-12.62,0,0-.45,1.47,2.71,0s.9-11.32-1.13-11.54-2,3.67-2,3.67,1.8-10.74-7.68-13.48-16.72,5.26-14,12.57"/><path id="Fill-246" class="cls-11" d="M63.28,302.13a.64.64,0,0,1,.28.37c.27,1,1.2,4.43,1.52,6,.38,1.82,1.75-1.39,1.12-3.12s-3.67-4.16-2.71-6.47,4.83-.42,5.08-3.67,2.63-4.63,4.92-3.69,2.42,4,4.91,3.69,3,0,3.74,1.73,1.62,1.87,1.62,3.18-.38,5.38,0,6.32,1.37,0,1.37,0,0-4,0-4.81a2.17,2.17,0,0,1,1.84-2c1.27-.35,3.14-5,1.15-6.3s-4.24-2.18-4.86-7.28-3-6.67-7.11-6.67-6.59,6.07-9,7.16-7,5.28-6.32,7.67a7.09,7.09,0,0,1,.08,2.9,4.9,4.9,0,0,0,2.29,5l0,0"/><path id="Fill-248" class="cls-11" d="M65.6,304.92s0,5.62,2.87,6.67,4.23-1.85,7.22-1.06,8-2,7.83-4.51h1.4a54.67,54.67,0,0,0,1,7.55c.82,3.95-3,5.8-4.5,9.36s-5.85,4.74-9.8,3.29-3.55-4.07-7.63-7.37.54-9,.54-9a60,60,0,0,0-1.94-8.27Z"/><path id="Fill-250" class="cls-1" d="M82.93,313.16s-2.11-1.93-4-.82-5.29,1.11-6.73.82-1.93,4.11,3.36,4.7,8.18-2.55,7.41-4.7"/><polygon id="Fill-252" class="cls-18" points="74.94 298.65 77.12 308.66 74.16 309.03 74.94 298.65"/><path id="Fill-254" class="cls-15" d="M71.19,301.61c0,.82-.33,1.49-.74,1.49s-.74-.67-.74-1.49.33-1.48.74-1.48.74.67.74,1.48"/><path id="Fill-256" class="cls-15" d="M80.09,301.61c0,.82-.33,1.49-.74,1.49s-.74-.67-.74-1.49.33-1.48.74-1.48.74.67.74,1.48"/><path id="Fill-258" class="cls-15" d="M70.45,297.77A4.59,4.59,0,1,0,75,302.36a4.6,4.6,0,0,0-4.59-4.59m0,9.78a5.19,5.19,0,1,1,5.19-5.19,5.2,5.2,0,0,1-5.19,5.19"/><polygon id="Fill-260" class="cls-15" points="62.51 300.13 62.29 299.35 66.52 297.17 66.74 297.95 62.51 300.13"/><g class="cls-19"><polygon id="Fill-262" class="cls-15" points="72.67 298.63 77.12 298.63 77.12 297.19 72.67 297.19 72.67 298.63"/></g><g class="cls-19"><polygon id="Fill-264" class="cls-15" points="86.02 300.11 87.5 300.11 87.5 298.67 86.02 298.67 86.02 300.11"/></g><g class="cls-19"><path id="Fill-265" class="cls-18" d="M61.86,302.63s-1.32-1.21-2.14-1-.32,4.93,1.07,5.61,1.64.08,1.45-.68-1.38-1.25-1.32-2,1.63-.74.94-1.95"/></g><g class="cls-19"><path id="Fill-266" class="cls-18" d="M86,303.47s.79-1.83,1.61-1.86,2,5.46.93,6.71-1.46.65-1.54-.27.82-1.88.52-2.7-1.73-.27-1.52-1.88"/></g><g class="cls-19"><path id="Fill-267" class="cls-15" d="M80.83,297.77a4.59,4.59,0,1,0,4.59,4.59,4.6,4.6,0,0,0-4.59-4.59m0,9.78A5.19,5.19,0,1,1,86,302.36a5.2,5.2,0,0,1-5.19,5.19"/></g><g class="cls-19"><path id="Fill-268" class="cls-20" d="M51.57,390.6s-9.16,27.33,6.73,25.08,16.92-10,16.92-10l1.9-5.15Z"/></g><g class="cls-19"><polygon id="Fill-269" class="cls-13" points="105.3 476.51 104.04 484.04 96.4 482.92 96.4 475.14 105.3 476.51"/></g><g class="cls-19"><path id="Fill-270" class="cls-15" d="M104.16,481.33a48.18,48.18,0,0,0,6.47,3.45,3.59,3.59,0,0,1,1.92,1.56,1.49,1.49,0,0,1-1.36,2.15H95.44c-1.68,0-2.32-.6-1.85-2.2s.51-4.17,1.4-5c1.87-1.67,4-2.88,9.17,0"/></g><g class="cls-19"><polygon id="Fill-271" class="cls-13" points="62.29 476.51 63.55 484.04 71.19 482.92 71.19 475.14 62.29 476.51"/></g><g class="cls-19"><path id="Fill-272" class="cls-10" d="M54.66,383.19s-5.34,56.28,5.9,94.92H72s3.68-51.63,11.86-71.94c0,0,11.16,29.64,10.49,71.94h11s15.25-64.28,2-94.92Z"/></g><g class="cls-19"><path id="Fill-273" class="cls-16" d="M68.22,399.5s-2.21,13-14.8,17.8c0,0-.15-15.17.28-17.8Z"/></g><g class="cls-19"><path id="Fill-274" class="cls-16" d="M94.92,396s5.91,13.43,17.8,18.34c0,0-.09-13.22-2-19.28Z"/></g><g class="cls-19"><path id="Fill-275" class="cls-16" d="M95.88,476.62l-.61,0c3.38-47.32-10.59-70.58-10.73-70.81l.51-.34c.14.24,14.22,23.67,10.83,71.19"/></g><g class="cls-19"><path id="Fill-276" class="cls-15" d="M62,481.33a48.46,48.46,0,0,1-6.46,3.45,3.58,3.58,0,0,0-1.93,1.56,1.49,1.49,0,0,0,1.36,2.15H70.67c1.69,0,2.32-.6,1.86-2.2s-.52-4.17-1.41-5c-1.87-1.67-4-2.88-9.17,0"/></g><g class="cls-19"><polygon id="Fill-277" class="cls-16" points="59.33 475.14 59.9 478.11 72.32 478.11 72.67 475.14 59.33 475.14"/></g><g class="cls-19"><path id="Fill-278" class="cls-21" d="M49.7,412.85s5.84-13.34,24.13-8,36.83,7.33,46.3-1.27c0,0-20.18-77.62-42.83-80.91s-46.13,19.69-27.6,90.17"/></g><g class="cls-19"><path id="Fill-279" class="cls-12" d="M86,322.38h-.66V308.83a6.76,6.76,0,0,0-13.51,0v13.55h-.66V308.83a7.42,7.42,0,0,1,14.83,0Z"/></g><g class="cls-19"><polygon id="Fill-280" class="cls-13" points="61.49 369.84 102.34 369.84 100.17 319.41 59.33 319.41 61.49 369.84"/></g><g class="cls-19"><polygon id="Fill-281" class="cls-13" points="92.76 369.84 51.91 369.84 54.07 319.41 94.92 319.41 92.76 369.84"/></g><g class="cls-19"><polygon id="Fill-282" class="cls-12" points="91.95 369.84 97.15 365.39 102.34 369.84 91.95 369.84"/></g><g class="cls-19"><polygon id="Fill-283" class="cls-12" points="96.4 365.6 96.4 319.41 93.99 319.41 91.95 369.84 96.4 365.6"/></g><g class="cls-19"><path id="Fill-284" class="cls-12" d="M68.22,322.38a1.48,1.48,0,1,1-1.48-1.48,1.48,1.48,0,0,1,1.48,1.48"/></g><g class="cls-19"><path id="Fill-285" class="cls-12" d="M81.57,322.38a1.48,1.48,0,1,1-1.48-1.48,1.48,1.48,0,0,1,1.48,1.48"/></g><g class="cls-19"><path id="Fill-286" class="cls-12" d="M81.57,322.38h-.65V308.83a6.76,6.76,0,0,0-13.52,0v13.55h-.66V308.83a7.42,7.42,0,0,1,14.83,0Z"/></g><g class="cls-19"><path id="Fill-287" class="cls-7" d="M80.09,331.28h-.65V320.67a5.29,5.29,0,0,0-10.57,0v10.61h-.65V320.67a5.94,5.94,0,0,1,11.87,0Z"/></g><g class="cls-19"><polygon id="Fill-288" class="cls-8" points="59.56 371.32 91.95 371.32 90.24 329.79 57.84 329.79 59.56 371.32"/></g><g class="cls-19"><polygon id="Fill-289" class="cls-9" points="84.31 371.32 51.91 371.32 53.63 329.79 86.02 329.79 84.31 371.32"/></g><g class="cls-19"><polygon id="Fill-290" class="cls-7" points="84.54 369.84 88.25 366.87 91.95 369.84 84.54 369.84"/></g><g class="cls-19"><polygon id="Fill-291" class="cls-7" points="88.99 367.83 88.99 329.79 87.38 329.79 86.02 371.32 88.99 367.83"/></g><g class="cls-19"><path id="Fill-292" class="cls-7" d="M65.26,331.28a1.49,1.49,0,1,1-1.49-1.49,1.49,1.49,0,0,1,1.49,1.49"/></g><g class="cls-19"><path id="Fill-293" class="cls-7" d="M77.12,331.28a1.48,1.48,0,1,1-1.48-1.49,1.48,1.48,0,0,1,1.48,1.49"/></g><g class="cls-19"><path id="Fill-294" class="cls-7" d="M75.64,331.28H75V320.67a5.29,5.29,0,0,0-10.57,0v10.61h-.65V320.67a5.94,5.94,0,0,1,11.87,0Z"/></g><g class="cls-19"><path id="Fill-295" class="cls-10" d="M63.36,350.56l-3.72-11.09a6,6,0,0,1,.4-4.77,6.33,6.33,0,0,1,3.75-3.12,6.51,6.51,0,0,1,8.13,4l3.72,11.09-.62.2L71.3,335.8A5.85,5.85,0,0,0,64,332.19a5.72,5.72,0,0,0-3.37,2.8,5.42,5.42,0,0,0-.35,4.28L64,350.36Z"/></g><g class="cls-19"><polygon id="Fill-296" class="cls-11" points="67.44 393.57 100.85 382.86 85.32 341.66 51.91 352.37 67.44 393.57"/></g><g class="cls-19"><polygon id="Fill-297" class="cls-11" points="93.44 385.75 60.7 396.54 48.94 353.92 81.69 343.14 93.44 385.75"/></g><g class="cls-19"><polygon id="Fill-298" class="cls-10" points="93.44 384.67 96.03 380.22 100.85 382.35 93.44 384.67"/></g><g class="cls-19"><polygon id="Fill-299" class="cls-10" points="96.4 381.4 83.68 343.14 81.57 343.81 93.68 386.15 96.4 381.4"/></g><g class="cls-19"><path id="Fill-300" class="cls-10" d="M60.74,351.58a1.48,1.48,0,1,1-1.87-.95,1.49,1.49,0,0,1,1.87.95"/></g><g class="cls-19"><path id="Fill-301" class="cls-10" d="M72.6,348.62a1.48,1.48,0,1,1-2.82.91,1.48,1.48,0,0,1,2.82-.91"/></g><g class="cls-19"><path id="Fill-302" class="cls-10" d="M60.39,352,56.68,341a6.22,6.22,0,0,1,4.14-7.88,6.5,6.5,0,0,1,8.13,4l3.72,11.09-.62.2-3.72-11.09A5.86,5.86,0,0,0,61,333.67a5.59,5.59,0,0,0-3.72,7.08L61,351.84Z"/></g><g class="cls-19"><path id="Fill-303" class="cls-17" d="M42.52,374c6.44,5,18.39,8.75,40.54,4.25l-.81-8.66s-25.85,6-36.26-26.4L39.09,355A14.75,14.75,0,0,0,42.52,374"/></g><g class="cls-19"><path id="Fill-304" class="cls-17" d="M106.44,337.33a7.9,7.9,0,0,0-4.39.47,2.39,2.39,0,0,1,.37,2.47c-1.24,3.42-2,7.13-2.86,10.66a17.89,17.89,0,0,1-1.47,4.67,9.11,9.11,0,0,1-.9,1.24c-1.83,15-12.65,24.09-12.65,24.09l4.76,5.22c35.63-25.56,17.14-48.82,17.14-48.82"/></g><g class="cls-19"><path id="Fill-305" class="cls-14" d="M53.27,342.19c0-.05.11-2.43.11-2.48.06-4.36.48-11.4.48-11.4-8.56,4.73-20,14.22-22.37,28.77-4,24.82,29.23,21.51,29.23,21.51l1.57-14.3s-16.58-12.09-9-22.1"/></g><g class="cls-19"><path id="Fill-306" class="cls-14" d="M107.44,337.14a46.45,46.45,0,0,0-6.56-7.35c0,3.79,0,9.24.05,13,.12,6.15.36,2.27-.34,8.09.06,1-2.73,10.6-2.7,11.63l14,2.9s7.41-11.43-4.48-28.25"/></g><g class="cls-19"><path id="Fill-307" class="cls-17" d="M83.06,368.87s3.11-4,6-4.87S87,368.27,87,368.27s5.64-3.24,9.47-3.7,4.33,2.33-1.6,7-10.57,5.67-10.57,5.67Z"/></g><g class="cls-19"><path id="Fill-308" class="cls-17" d="M84,380.22s-6.08.56-8,2.83,4.4.11,4.4.11-5,3.63-7,6.9.15,5,6.49,1.8,9.11-7,9.11-7Z"/></g><g class="cls-19"><path id="Fill-309" class="cls-10" d="M53.39,414.33h-.6V402.75a5.34,5.34,0,1,0-10.66,0v11.58h-.6V402.75a5.94,5.94,0,1,1,11.86,0Z"/></g><g class="cls-19"><polygon id="Fill-310" class="cls-11" points="33.01 455.86 68.22 455.86 66.36 412.85 31.15 412.85 33.01 455.86"/></g><g class="cls-19"><polygon id="Fill-311" class="cls-11" points="60.43 455.86 25.21 455.86 27.08 412.85 62.29 412.85 60.43 455.86"/></g><g class="cls-19"><polygon id="Fill-312" class="cls-10" points="59.33 455.86 63.77 452.89 68.22 455.86 59.33 455.86"/></g><g class="cls-19"><polygon id="Fill-313" class="cls-10" points="62.29 452.24 62.29 412.85 60.69 412.85 59.33 455.86 62.29 452.24"/></g><g class="cls-19"><path id="Fill-314" class="cls-10" d="M38.56,414.33a1.48,1.48,0,1,1-1.48-1.48,1.49,1.49,0,0,1,1.48,1.48"/></g><g class="cls-19"><path id="Fill-315" class="cls-10" d="M50.43,414.33a1.49,1.49,0,1,1-3,0,1.49,1.49,0,0,1,3,0"/></g><g class="cls-19"><path id="Fill-316" class="cls-10" d="M50.43,414.33h-.61V402.75a5.34,5.34,0,1,0-10.66,0v11.58h-.6V402.75a5.94,5.94,0,1,1,11.87,0Z"/></g><g class="cls-19"><path id="Fill-317" class="cls-12" d="M68.22,438.06h-.67V423.53a7.5,7.5,0,0,0-15,0v14.53h-.67V423.53a8.17,8.17,0,0,1,16.31,0Z"/></g><g class="cls-19"><polygon id="Fill-318" class="cls-13" points="42.28 488.49 84.54 488.49 82.3 433.61 40.05 433.61 42.28 488.49"/></g><g class="cls-19"><polygon id="Fill-319" class="cls-13" points="74.89 488.49 32.63 488.49 34.87 433.61 77.12 433.61 74.89 488.49"/></g><g class="cls-19"><polygon id="Fill-320" class="cls-12" points="75.64 489.97 80.83 485.52 86.02 489.97 75.64 489.97"/></g><g class="cls-19"><polygon id="Fill-321" class="cls-12" points="80.09 483.87 80.09 433.61 77.68 433.61 75.64 488.49 80.09 483.87"/></g><g class="cls-19"><path id="Fill-322" class="cls-12" d="M48.94,438.06a1.48,1.48,0,1,1-1.48-1.48,1.49,1.49,0,0,1,1.48,1.48"/></g><g class="cls-19"><path id="Fill-323" class="cls-12" d="M63.77,438.06a1.48,1.48,0,1,1-1.48-1.48,1.49,1.49,0,0,1,1.48,1.48"/></g><g class="cls-19"><path id="Fill-324" class="cls-12" d="M63.77,438.06H63.1V423.53a7.5,7.5,0,0,0-15,0v14.53h-.67V423.53a8.17,8.17,0,0,1,16.31,0Z"/></g><g class="cls-19"><path id="Fill-325" class="cls-7" d="M40,448.44h-.6V436.86a5.34,5.34,0,1,0-10.66,0v11.58h-.6V436.86a5.94,5.94,0,1,1,11.86,0Z"/></g><g class="cls-19"><polygon id="Fill-326" class="cls-8" points="18.18 488.49 53.39 488.49 51.53 445.48 16.32 445.48 18.18 488.49"/></g><g class="cls-19"><polygon id="Fill-327" class="cls-9" points="45.6 488.49 10.38 488.49 12.25 445.48 47.46 445.48 45.6 488.49"/></g><g class="cls-19"><polygon id="Fill-328" class="cls-7" points="44.49 488.49 48.94 485.52 53.39 488.49 44.49 488.49"/></g><g class="cls-19"><polygon id="Fill-329" class="cls-7" points="48.94 484.87 48.94 445.48 47.34 445.48 45.98 488.49 48.94 484.87"/></g><g class="cls-19"><path id="Fill-330" class="cls-7" d="M25.21,448.44A1.48,1.48,0,1,1,23.73,447a1.49,1.49,0,0,1,1.48,1.48"/></g><g class="cls-19"><path id="Fill-331" class="cls-7" d="M37.08,448.44A1.49,1.49,0,1,1,35.6,447a1.49,1.49,0,0,1,1.48,1.48"/></g><g class="cls-19"><path id="Fill-332" class="cls-7" d="M35.6,448.44H35V436.86a5.34,5.34,0,1,0-10.66,0v11.58h-.6V436.86a5.94,5.94,0,1,1,11.87,0Z"/></g><g class="cls-19"><path id="Fill-333" class="cls-12" d="M179.46,441h.66V427.48a6.76,6.76,0,0,1,13.51,0V441h.66V427.48a7.42,7.42,0,0,0-14.83,0Z"/></g><g class="cls-19"><polygon id="Fill-334" class="cls-13" points="203.99 488.49 163.15 488.49 165.31 438.06 206.16 438.06 203.99 488.49"/></g><g class="cls-19"><polygon id="Fill-335" class="cls-13" points="172.72 488.49 213.57 488.49 211.41 438.06 170.56 438.06 172.72 488.49"/></g><g class="cls-19"><polygon id="Fill-336" class="cls-12" points="173.53 488.49 168.34 484.04 163.15 488.49 173.53 488.49"/></g><g class="cls-19"><polygon id="Fill-337" class="cls-12" points="167.59 484.25 167.59 438.06 170 438.06 172.04 488.49 167.59 484.25"/></g><g class="cls-19"><path id="Fill-338" class="cls-12" d="M197.26,441a1.48,1.48,0,1,0,1.48-1.48,1.48,1.48,0,0,0-1.48,1.48"/></g><g class="cls-19"><path id="Fill-339" class="cls-12" d="M183.91,441a1.48,1.48,0,1,0,1.48-1.48,1.48,1.48,0,0,0-1.48,1.48"/></g><g class="cls-19"><path id="Fill-340" class="cls-12" d="M185.39,441h.66V427.48a6.76,6.76,0,0,1,13.52,0V441h.65V427.48a7.42,7.42,0,0,0-14.83,0Z"/></g><g class="cls-19"><path id="Fill-341" class="cls-7" d="M186.87,416.38s-.21,3.68-24.73,1.93-28.66-6.1-28.66-6.1l16.14-9.14,33.26-3.57Z"/></g><g class="cls-19"><path id="Fill-342" class="cls-11" d="M151.28,319.41a13.35,13.35,0,1,0,13.35-13.35,13.35,13.35,0,0,0-13.35,13.35"/></g><g class="cls-19"><path id="Fill-343" class="cls-11" d="M143.86,331.28a20.77,20.77,0,1,0,20.77-20.77,20.76,20.76,0,0,0-20.77,20.77"/></g><g class="cls-19"><path id="Fill-344" class="cls-11" d="M137.93,358.72a27.44,27.44,0,1,0,27.44-27.44,27.44,27.44,0,0,0-27.44,27.44"/></g><g class="cls-19"><path id="Fill-345" class="cls-17" d="M180.94,476.27v6.27l5.82,8.92,3.08-2s-1-3.79-3.08-5.57v-10.2Z"/></g><g class="cls-19"><path id="Fill-346" class="cls-9" d="M180.64,479.59s-3,1.7-2.63,3.49a20,20,0,0,1,.82,5.1v3.28h1v-5s.12-1.77,1.34-.94a23.44,23.44,0,0,1,2.16,3.57,4,4,0,0,0,2.74,2.37h8.15a1.49,1.49,0,0,0-1.63-1.78,3.72,3.72,0,0,1-3.61-1.93s-1.81,1-3.38-1.18-1.52-5.64-5-7"/></g><g class="cls-19"><path id="Fill-347" class="cls-17" d="M129,470.69l-3,5.65.49,10.67,3.44-.43s1-3.85.14-6.41L135,471Z"/></g><g class="cls-19"><path id="Fill-348" class="cls-9" d="M127.52,475.14s-3.39.16-3.93,1.9a21.15,21.15,0,0,1-1.84,4.82l-1.62,2.85.89.46,2.46-4.36s1-1.49,1.59-.23a22,22,0,0,1,.05,4.06,3.69,3.69,0,0,0,1.13,3.25l6.85,3.57a1.43,1.43,0,0,0-.49-2.26,3.35,3.35,0,0,1-2.08-3.27s-2,.1-2.25-2.51,1.51-5.58-.76-8.28"/></g><g class="cls-19"><path id="Fill-349" class="cls-17" d="M218,320.38,202,344.2a4.3,4.3,0,0,1-1.82,1.41L179.66,358,175,347.6,197.69,337l15.86-17.63Z"/></g><g class="cls-19"><polygon id="Fill-350" class="cls-17" points="117.08 398.02 137.7 381.6 152.76 360.88 143.95 357.97 132.29 375.85 114.2 394.68 117.08 398.02"/></g><g class="cls-19"><polygon id="Fill-351" class="cls-10" points="177.83 398.02 187.31 438.83 188.36 478.11 180.33 478.11 176.69 440.6 158.69 412.79 177.83 398.02"/></g><g class="cls-19"><polygon id="Fill-352" class="cls-10" points="170.56 402.47 153.58 441.86 134.67 476.62 127.55 472.54 143.26 437.99 141.35 404.6 170.56 402.47"/></g><g class="cls-19"><polygon id="Fill-353" class="cls-22" points="183.38 478.11 183.91 478.09 182.57 440.43 182.54 440.37 168.05 414.33 167.59 414.62 182.05 440.6 183.38 478.11"/></g><g class="cls-19"><polygon id="Fill-354" class="cls-22" points="131.03 473.66 148.91 438.19 151.28 412.9 150.71 412.85 148.35 438.03 130.52 473.4 131.03 473.66"/></g><g class="cls-19"><path id="Fill-355" class="cls-9" d="M192.81,352.06l-9.15,5.44a16.73,16.73,0,0,0-2.48,11.38L187.29,417s-22.2-4.1-35.8,0S132,417,132,417l15-48.6-7.53-2.11a1.51,1.51,0,0,1-.84-2.27c2.1-3.25,7-10.42,12.14-15.25,6.34-5.92,15.62-2.56,34.06-7a1.41,1.41,0,0,1,1.48.55Z"/></g><g class="cls-19"><path id="Fill-356" class="cls-17" d="M169.56,340.18l1,9.28a9.71,9.71,0,0,1-8.9,0l2.44-9.28Z"/></g><g class="cls-19"><path id="Fill-357" class="cls-17" d="M175,322.18s.18,16.37-4.86,20-10.35-4.15-12.74-14.78,17.16-15.71,17.6-5.26"/></g><g class="cls-19"><path id="Fill-358" class="cls-17" d="M173.53,326.83c0,2.46,1,4.45,2.22,4.45s2.23-2,2.23-4.45-1-4.45-2.23-4.45-2.22,2-2.22,4.45"/></g><g class="cls-19"><path id="Fill-359" class="cls-17" d="M152.81,331.59c.24,2.46,1.42,4.3,2.62,4.13s2-2.31,1.74-4.76-1.42-4.29-2.63-4.12-2,2.3-1.73,4.75"/></g><g class="cls-19"><path id="Fill-360" class="cls-11" d="M164.65,317.24s-.13,7.91,8.61,6.44c6.38-1.07,1.85-6.35-1.06-9.11a4,4,0,0,0-4.51-.69c-1.6.77-3.3,1.94-3,3.36"/></g><g class="cls-19"><path id="Fill-361" class="cls-11" d="M166.11,317.76c-.44.25-2.27,9-9.94,9.07s0-6.36,0-6.36l4.1-3.5,5.84-.52Z"/></g><g class="cls-19"><polygon id="Fill-362" class="cls-18" points="165.68 323.86 167.59 330.86 164.63 331.28 165.68 323.86"/></g><g class="cls-19"><path id="Fill-363" class="cls-15" d="M167.59,325.34a3,3,0,1,0,3-3,3,3,0,0,0-3,3"/></g><g class="cls-19"><path id="Fill-364" class="cls-15" d="M158.7,326.83a3,3,0,1,0,3-3,3,3,0,0,0-3,3"/></g><g class="cls-19"><polygon id="Fill-365" class="cls-15" points="172.45 325.35 175.01 324.44 174.6 323.86 172.04 324.77 172.45 325.35"/></g><g class="cls-19"><polygon id="Fill-366" class="cls-15" points="163.22 325.35 167.59 324.61 167.52 323.86 163.15 324.6 163.22 325.35"/></g><g class="cls-19"><polygon id="Fill-367" class="cls-15" points="158.62 325.35 158.69 324.53 155.81 323.86 155.73 324.68 158.62 325.35"/></g><g class="cls-19"><path id="Fill-368" class="cls-18" d="M175.18,326.1s1.18-1.15,1.86-.61a3,3,0,0,1,.79,3.12c-.43,1.3-1.09,1.21-1.38,1.16s-.59-.76-.23-1.38.66-.69.36-1.09-2.13-.05-1.4-1.2"/></g><g class="cls-19"><path id="Fill-369" class="cls-18" d="M157,327.58s-1.18-1.15-1.86-.6a2.94,2.94,0,0,0-.78,3.11c.42,1.31,1.08,1.21,1.37,1.16s.6-.76.23-1.37-.66-.69-.36-1.1,2.13,0,1.4-1.2"/></g><g class="cls-19"><path id="Fill-370" class="cls-1" d="M172,335.43s-.27-1.56-2.21-1.08-3.32,1.08-5,.13-2.9,1.21,0,2.12,6.17,1,7.16-1.17"/></g><g class="cls-19"><path id="Fill-371" class="cls-1" d="M175,331.28a1.49,1.49,0,0,0,3,0,1.49,1.49,0,1,0-3,0"/></g><g class="cls-19"><path id="Fill-372" class="cls-1" d="M155.73,334.24a1.49,1.49,0,1,0,1.48-1.48,1.49,1.49,0,0,0-1.48,1.48"/></g><g class="cls-19"><path id="Fill-373" class="cls-1" d="M176.49,322.38S174.63,316,165.65,316s-9.45,10.88-9.45,10.88-3.26-11.8,7.32-14.47,13,10,13,10"/></g><g class="cls-19"><path id="Fill-374" class="cls-17" d="M213,319.94a6.42,6.42,0,0,1-3-3.2c-.93-2.28-1.69-2.25-2.23-3.23s.37-1.9,1.33-1.28.9,2.08,2.73.33c0,0-.24-2.1.63-2.05s1.24,1.16,1.24,1.16,1.55-1.71,2.33-.38l.79,1.33s1.56-.45,1.72.6-.58,1.15-.58,1.15,2-1.1,1.39.95a25.93,25.93,0,0,1-2.44,4.66,1.94,1.94,0,0,1-2.56.69Z"/></g><g class="cls-19"><path id="Fill-375" class="cls-17" d="M114.46,394.11a5.8,5.8,0,0,0-4.39-.2c-2.33.89-2.81.22-3.9.48a1.07,1.07,0,0,0-.08,2.08c1.1.36,2.16-.77,2.06,2.09,0,0-1.72,1.35-1.11,2.05s1.69.2,1.69.2-.25,2.59,1.27,2.28l1.52-.31s.7,1.66,1.59,1a1,1,0,0,0,.48-1.35s.52,2.54,1.63.49a30.93,30.93,0,0,0,1.87-5.52,2.29,2.29,0,0,0-1.19-2.69Z"/></g><g class="cls-19"><polygon id="Fill-376" class="cls-11" points="90.86 455.86 60.81 437.23 85.63 399.5 115.68 418.13 90.86 455.86"/></g><g class="cls-19"><polygon id="Fill-377" class="cls-11" points="68.22 440.83 97.54 458.83 118.65 420.46 89.33 402.47 68.22 440.83"/></g><g class="cls-19"><polygon id="Fill-378" class="cls-10" points="68.22 441.03 66.6 436.58 60.81 437.49 68.22 441.03"/></g><g class="cls-19"><polygon id="Fill-379" class="cls-10" points="66.74 435.73 88.54 400.99 90.47 402.13 68.3 441.03 66.74 435.73"/></g><g class="cls-19"><path id="Fill-380" class="cls-10" d="M108.49,416.53a1.48,1.48,0,1,0,2-.5,1.48,1.48,0,0,0-2,.5"/></g><g class="cls-19"><path id="Fill-381" class="cls-10" d="M96.62,410.59a1.48,1.48,0,1,0,2-.49,1.49,1.49,0,0,0-2,.49"/></g><g class="cls-19"><path id="Fill-382" class="cls-10" d="M98.46,411.37l6.46-10.23a5.92,5.92,0,0,1,3.35-2.5l-.2-.62a6.62,6.62,0,0,0-3.72,2.78L97.89,411Z"/></g><g class="cls-19"><path id="Fill-383" class="cls-10" d="M110.28,417.3l6-10.27a6.69,6.69,0,0,0,.33-6l-.56.27a6,6,0,0,1-.3,5.44l-6,10.27Z"/></g><g class="cls-19"><polygon id="Fill-384" class="cls-13" points="231.19 257.12 262.51 272.34 241.93 312 210.6 296.77 231.19 257.12"/></g><g class="cls-19"><polygon id="Fill-385" class="cls-13" points="256.58 269.34 224.08 254.16 206.16 295.33 238.66 310.51 256.58 269.34"/></g><g class="cls-19"><polygon id="Fill-386" class="cls-12" points="255.1 270.47 257.18 274.92 262.51 273.5 255.1 270.47"/></g><g class="cls-19"><polygon id="Fill-387" class="cls-12" points="258.06 274.25 240.74 312 238.78 311.03 256.04 268.99 258.06 274.25"/></g><g class="cls-19"><path id="Fill-388" class="cls-12" d="M219.36,297.8a1.48,1.48,0,1,0-2,.7,1.48,1.48,0,0,0,2-.7"/></g><g class="cls-19"><path id="Fill-389" class="cls-12" d="M228.26,303.74a1.48,1.48,0,1,0-2,.7,1.49,1.49,0,0,0,2-.7"/></g><g class="cls-19"><path id="Fill-390" class="cls-12" d="M219.76,317.93a6.63,6.63,0,0,0,3.37-3.27l5.27-11.27-.59-.29-5.28,11.27a6,6,0,0,1-3,2.94Z"/></g><g class="cls-19"><path id="Fill-391" class="cls-12" d="M212.92,313.48l.52-.32a5.79,5.79,0,0,1-.23-5.25L218,297.43l-.54-.26-4.81,10.47a6.44,6.44,0,0,0,.25,5.84"/></g></g></g></g><path class="cls-23" d="M243.9,158.67a11.26,11.26,0,0,1-3.92-.77l1-4.07a11.13,11.13,0,0,0,3.5.81,12.32,12.32,0,0,0,3.68-.31,6.38,6.38,0,0,0,2.91-1.38,2,2,0,0,0,.71-2,1.52,1.52,0,0,0-1.23-1.16,15.38,15.38,0,0,0-3.11-.33,31.49,31.49,0,0,1-3.47-.34,6,6,0,0,1-2.54-1.09,4.33,4.33,0,0,1-1.6-2.61,6.14,6.14,0,0,1,.27-3.89,7.47,7.47,0,0,1,2.66-3.18,13.41,13.41,0,0,1,4.67-2,16.86,16.86,0,0,1,4-.49,10.65,10.65,0,0,1,3.43.53l-.9,4a8.47,8.47,0,0,0-2.82-.55,11,11,0,0,0-3,.32,6.25,6.25,0,0,0-3,1.45,2.1,2.1,0,0,0-.72,2.07,1.49,1.49,0,0,0,.76,1,3.76,3.76,0,0,0,1.42.42c.54.06,1.3.11,2.26.14a24.9,24.9,0,0,1,3.44.29,5.82,5.82,0,0,1,2.5,1.05,4.12,4.12,0,0,1,1.53,2.48A6,6,0,0,1,256,153a7.64,7.64,0,0,1-2.69,3.19,13.33,13.33,0,0,1-4.7,2A17.19,17.19,0,0,1,243.9,158.67Z"/><path class="cls-23" d="M274.78,135.06l.66,16.3-4.28,1-.08-1.6a7,7,0,0,1-4.34,2.92,7.15,7.15,0,0,1-3.56,0,6.47,6.47,0,0,1-3-1.83,7.51,7.51,0,0,1-1.81-3.49,9.82,9.82,0,0,1,0-4.91,8.65,8.65,0,0,1,2.33-4,8.5,8.5,0,0,1,4.05-2.22c2.39-.58,4.26-.2,5.62,1.12l-.1-2.21Zm-5.34,13.36a4.5,4.5,0,0,0,1.18-2.2,6.06,6.06,0,0,0-.06-2.8,3.44,3.44,0,0,0-1.55-2.28,3.65,3.65,0,0,0-2.84-.3,4.47,4.47,0,0,0-3.39,3.42,6.06,6.06,0,0,0,.06,2.8,3.48,3.48,0,0,0,1.55,2.29,3.69,3.69,0,0,0,2.84.29A4.5,4.5,0,0,0,269.44,148.42Z"/><path class="cls-23" d="M302.77,129.51a5.18,5.18,0,0,1,2.44,3.53,10,10,0,0,1,.26,2l.37,9-4.51,1.08-.35-8.69a6.3,6.3,0,0,0-.17-1.21,2.43,2.43,0,0,0-1.06-1.64,2.59,2.59,0,0,0-2-.17q-3.27.8-3.13,4.89l.34,8.36-4.51,1.09-.36-8.69a5.88,5.88,0,0,0-.16-1.19,2.47,2.47,0,0,0-1.06-1.65,2.51,2.51,0,0,0-2-.18c-2.18.52-3.23,2.18-3.15,4.95l.35,8.29-4.51,1.09-.66-16.29,4.28-1,0,1.7a7.17,7.17,0,0,1,4.44-3,6.36,6.36,0,0,1,3,0,4.44,4.44,0,0,1,2.35,1.44,7.92,7.92,0,0,1,2.17-2.53,8.45,8.45,0,0,1,3.14-1.44A6,6,0,0,1,302.77,129.51Z"/><path class="cls-23" d="M325.12,132.42l-11.9,2.87c.66,2.08,2.26,2.82,4.78,2.21a7.16,7.16,0,0,0,2.18-.92,6.17,6.17,0,0,0,1.64-1.53l2.59,2.52a9,9,0,0,1-2.6,2.28,12,12,0,0,1-3.4,1.38,10.08,10.08,0,0,1-4.41.16,6.52,6.52,0,0,1-3.36-1.77,7.2,7.2,0,0,1-1.86-3.44,9.63,9.63,0,0,1,.05-4.92,8.6,8.6,0,0,1,2.47-4,9.78,9.78,0,0,1,4.46-2.32,8.9,8.9,0,0,1,4.12-.11,6.36,6.36,0,0,1,3.15,1.78,7.23,7.23,0,0,1,1.78,3.39A12.38,12.38,0,0,1,325.12,132.42Zm-11.23-2.57a4.81,4.81,0,0,0-1,2.74l7.72-1.87a3.16,3.16,0,0,0-1.51-2.13,3.76,3.76,0,0,0-2.74-.24A4.43,4.43,0,0,0,313.89,129.85Z"/><path class="cls-23" d="M252.27,193.35a11.45,11.45,0,0,1-3.91-.76l1-4.08a11.26,11.26,0,0,0,3.5.81,12.06,12.06,0,0,0,3.69-.31,6.38,6.38,0,0,0,2.91-1.38,2,2,0,0,0,.71-2,1.55,1.55,0,0,0-1.23-1.16,16.26,16.26,0,0,0-3.11-.33,32,32,0,0,1-3.48-.34,6,6,0,0,1-2.54-1.09,4.28,4.28,0,0,1-1.59-2.61,6.14,6.14,0,0,1,.27-3.89,7.4,7.4,0,0,1,2.66-3.18,13.36,13.36,0,0,1,4.66-2,17,17,0,0,1,4-.49,10.6,10.6,0,0,1,3.43.53l-.89,4a8.48,8.48,0,0,0-2.83-.55,10.89,10.89,0,0,0-3,.32,6.34,6.34,0,0,0-3,1.45,2.13,2.13,0,0,0-.73,2.07,1.49,1.49,0,0,0,.76,1,3.81,3.81,0,0,0,1.42.42c.55.06,1.3.11,2.27.14a24.74,24.74,0,0,1,3.43.29,5.72,5.72,0,0,1,2.5,1,4.08,4.08,0,0,1,1.54,2.48,6.12,6.12,0,0,1-.28,3.91,7.64,7.64,0,0,1-2.69,3.19,13.38,13.38,0,0,1-4.71,2A17.15,17.15,0,0,1,252.27,193.35Z"/><path class="cls-23" d="M272.84,182.88a3.19,3.19,0,0,0,.09.65c.25,1,.92,1.37,2,1.1a3.64,3.64,0,0,0,1.69-1l1.44,3a7.47,7.47,0,0,1-3.65,1.86,5.27,5.27,0,0,1-3.8-.3,4.11,4.11,0,0,1-2.1-2.86,8.28,8.28,0,0,1-.18-1.39l-.28-6.57-2.39.58-.15-3.64,2.4-.58-.16-4,4.51-1.09.16,4,3.87-.93.15,3.63-3.88.94Z"/><path class="cls-23" d="M284,185.33a6.58,6.58,0,0,1-3.34-1.78,7,7,0,0,1-1.85-3.42,9.2,9.2,0,0,1,.1-4.92,8.93,8.93,0,0,1,2.57-4,10,10,0,0,1,4.54-2.35,9.47,9.47,0,0,1,4.34-.14,6.7,6.7,0,0,1,3.32,1.79,7,7,0,0,1,1.85,3.42,9.17,9.17,0,0,1-.08,4.91,8.93,8.93,0,0,1-2.57,4,10.09,10.09,0,0,1-4.56,2.35A9.5,9.5,0,0,1,284,185.33Zm5.9-5.14a4.5,4.5,0,0,0,1.18-2.2,5.93,5.93,0,0,0-.07-2.8,3.46,3.46,0,0,0-1.53-2.29,3.59,3.59,0,0,0-2.82-.29,4.41,4.41,0,0,0-2.21,1.22,4.51,4.51,0,0,0-1.19,2.2,5.89,5.89,0,0,0,.07,2.79,3.45,3.45,0,0,0,1.54,2.29,3.66,3.66,0,0,0,2.84.29A4.39,4.39,0,0,0,289.87,180.19Z"/><path class="cls-23" d="M304.76,164.8a10.66,10.66,0,0,1,3.25-1.3l.2,4.35c-.55.1-.91.16-1.06.2a5.11,5.11,0,0,0-3,1.8,5.44,5.44,0,0,0-.91,3.55l.32,7.88L299,182.37l-.66-16.3,4.27-1,.07,1.94A6.14,6.14,0,0,1,304.76,164.8Z"/><path class="cls-23" d="M326.25,168.85l-11.91,2.87c.67,2.09,2.26,2.82,4.78,2.21a7.06,7.06,0,0,0,2.18-.92,5.73,5.73,0,0,0,1.64-1.53l2.6,2.53a9.39,9.39,0,0,1-2.6,2.28,12.56,12.56,0,0,1-3.4,1.37,10.13,10.13,0,0,1-4.42.16,6.52,6.52,0,0,1-3.36-1.77,7.06,7.06,0,0,1-1.85-3.44,9.42,9.42,0,0,1,0-4.92,8.57,8.57,0,0,1,2.47-4,9.7,9.7,0,0,1,4.45-2.32,8.9,8.9,0,0,1,4.12-.1,6.27,6.27,0,0,1,3.15,1.77,7.26,7.26,0,0,1,1.78,3.4A12.14,12.14,0,0,1,326.25,168.85ZM315,166.29a4.76,4.76,0,0,0-1,2.73l7.72-1.87a3.13,3.13,0,0,0-1.51-2.13,3.77,3.77,0,0,0-2.73-.24A4.42,4.42,0,0,0,315,166.29Z"/><path class="cls-23" d="M329.38,174.5a2.63,2.63,0,0,1-1.2-1.68,3,3,0,0,1,.35-2.38,3.06,3.06,0,0,1,1.93-1.36,2.71,2.71,0,0,1,2.07.27,2.55,2.55,0,0,1,1.19,1.7,3,3,0,0,1-2.25,3.72A2.68,2.68,0,0,1,329.38,174.5Zm7.72-1.87a2.56,2.56,0,0,1-1.2-1.68,3,3,0,0,1,.34-2.37,3,3,0,0,1,1.94-1.36,2.63,2.63,0,0,1,2.07.27,2.58,2.58,0,0,1,1.19,1.7,2.94,2.94,0,0,1-.36,2.36,3,3,0,0,1-1.89,1.36A2.64,2.64,0,0,1,337.1,172.63Zm7.75-1.87a2.56,2.56,0,0,1-1.2-1.68,3,3,0,0,1,.34-2.38,3,3,0,0,1,1.93-1.35,2.66,2.66,0,0,1,2.07.26,2.6,2.6,0,0,1,1.19,1.71,2.94,2.94,0,0,1-.36,2.36,3,3,0,0,1-1.89,1.36A2.62,2.62,0,0,1,344.85,170.76Z"/><path class="cls-23" d="M275.12,215.44a4.39,4.39,0,0,1,1.31,2.33,5.49,5.49,0,0,1-1.33,5.37,12.31,12.31,0,0,1-6.23,3.21l-10.61,2.56-.84-21.2,9.77-2.36a9.18,9.18,0,0,1,5.32,0,4,4,0,0,1,2.59,3,5.35,5.35,0,0,1-.2,3.4,6.42,6.42,0,0,1-2.16,2.65A4.38,4.38,0,0,1,275.12,215.44Zm-12.91-5.16.19,5,4.77-1.15a5,5,0,0,0,2.7-1.43,2.5,2.5,0,0,0,.51-2.37c-.3-1.27-1.45-1.67-3.43-1.19Zm9,11a2.54,2.54,0,0,0,.57-2.44q-.5-2.07-3.53-1.34l-5.67,1.36.23,5.24,5.52-1.33A5.6,5.6,0,0,0,271.19,221.27Z"/><path class="cls-23" d="M295.12,213.07,283.21,216c.67,2.08,2.26,2.82,4.79,2.21a7.12,7.12,0,0,0,2.17-.93,6,6,0,0,0,1.64-1.52l2.6,2.52a9.39,9.39,0,0,1-2.6,2.28,12.49,12.49,0,0,1-3.41,1.37A9.93,9.93,0,0,1,284,222a6.45,6.45,0,0,1-3.36-1.77,7.06,7.06,0,0,1-1.85-3.44,9.42,9.42,0,0,1,.05-4.92,8.68,8.68,0,0,1,2.46-4,9.67,9.67,0,0,1,4.46-2.31,8.77,8.77,0,0,1,4.12-.11,6.21,6.21,0,0,1,3.15,1.78,7.18,7.18,0,0,1,1.78,3.39A12.14,12.14,0,0,1,295.12,213.07Zm-11.24-2.56a4.76,4.76,0,0,0-1,2.73l7.72-1.86a3.08,3.08,0,0,0-1.51-2.13,3.68,3.68,0,0,0-2.73-.24A4.35,4.35,0,0,0,283.88,210.51Z"/><path class="cls-23" d="M303,212.29a2.71,2.71,0,0,0,.1.65c.24,1,.91,1.37,2,1.1a3.64,3.64,0,0,0,1.69-1l1.44,3a7.51,7.51,0,0,1-3.65,1.86,5.29,5.29,0,0,1-3.81-.3,4.1,4.1,0,0,1-2.09-2.86,7.18,7.18,0,0,1-.19-1.39l-.27-6.57-2.4.58-.14-3.64,2.4-.58-.17-4,4.51-1.08.16,4,3.88-.93.14,3.63-3.87.94Z"/><path class="cls-23" d="M315.26,209.34a3.19,3.19,0,0,0,.09.65c.25,1,.92,1.37,2,1.1a3.58,3.58,0,0,0,1.69-1l1.44,3.05a7.47,7.47,0,0,1-3.65,1.86,5.32,5.32,0,0,1-3.8-.3,4.11,4.11,0,0,1-2.1-2.86,8.28,8.28,0,0,1-.18-1.39l-.28-6.58-2.39.58-.15-3.63,2.4-.58-.16-4,4.51-1.09.16,4,3.87-.94.15,3.64-3.88.94Z"/><path class="cls-23" d="M337.57,202.82l-11.91,2.87c.67,2.09,2.26,2.82,4.79,2.21a7.27,7.27,0,0,0,2.18-.92,6.13,6.13,0,0,0,1.63-1.53l2.6,2.52a9.08,9.08,0,0,1-2.6,2.28,12.14,12.14,0,0,1-3.4,1.38,10.08,10.08,0,0,1-4.41.16,6.59,6.59,0,0,1-3.37-1.77,7.1,7.1,0,0,1-1.85-3.44,9.52,9.52,0,0,1,0-4.92,8.6,8.6,0,0,1,2.47-4,9.73,9.73,0,0,1,4.46-2.32,8.86,8.86,0,0,1,4.11-.11,6.35,6.35,0,0,1,3.16,1.78,7.37,7.37,0,0,1,1.78,3.39A12.38,12.38,0,0,1,337.57,202.82Zm-11.23-2.57a4.67,4.67,0,0,0-1,2.74l7.71-1.87a3.1,3.1,0,0,0-1.51-2.13,3.77,3.77,0,0,0-2.73-.24A4.4,4.4,0,0,0,326.34,200.25Z"/><path class="cls-23" d="M346.43,191.44a10.66,10.66,0,0,1,3.25-1.3l.19,4.35c-.54.1-.9.16-1.05.2a5.11,5.11,0,0,0-3,1.8,5.44,5.44,0,0,0-.91,3.55l.32,7.88L340.69,209l-.67-16.3,4.28-1,.07,1.94A6.06,6.06,0,0,1,346.43,191.44Z"/><path class="cls-23" d="M270.61,245.2l.19,4.6,9.4-2.26.15,3.81-9.42,2.28.21,4.9,11-2.66.12,3.94-15.66,3.78-.84-21.2,15.29-3.7.12,3.95Z"/><path class="cls-23" d="M294.18,248.71l6.22,6.73-4.77,1.15-3.7-4.15-3.33,5.85-5.14,1.24,5.85-9.85-6-6.58L288,242l3.56,4,3.23-5.62,5-1.2Z"/><path class="cls-23" d="M314.31,236.27a6.33,6.33,0,0,1,3,1.82,7.42,7.42,0,0,1,1.81,3.49,9.64,9.64,0,0,1,0,4.92,8.67,8.67,0,0,1-6.41,6.21q-3.56.85-5.58-1.1l.32,8.06L303,260.75l-.89-22.17,4.28-1,0,1.61a7.05,7.05,0,0,1,4.34-2.92A7.19,7.19,0,0,1,314.31,236.27Zm-.78,11.61a4.58,4.58,0,0,0,1.18-2.2,6,6,0,0,0-.07-2.79,3.45,3.45,0,0,0-1.54-2.29,3.66,3.66,0,0,0-2.84-.29,4.46,4.46,0,0,0-2.19,1.21,4.58,4.58,0,0,0-1.18,2.2,5.93,5.93,0,0,0,.07,2.8,3.46,3.46,0,0,0,1.53,2.29,3.6,3.6,0,0,0,2.82.29A4.49,4.49,0,0,0,313.53,247.88Z"/><path class="cls-23" d="M337.71,239.49l-11.91,2.87c.67,2.08,2.26,2.82,4.79,2.21a7.27,7.27,0,0,0,2.18-.92,6.13,6.13,0,0,0,1.63-1.53l2.6,2.52a9.08,9.08,0,0,1-2.6,2.28,12.26,12.26,0,0,1-3.4,1.38,10.24,10.24,0,0,1-4.41.16,6.55,6.55,0,0,1-3.37-1.77,7.1,7.1,0,0,1-1.85-3.44,9.42,9.42,0,0,1,.05-4.92,8.6,8.6,0,0,1,2.47-4,9.75,9.75,0,0,1,4.45-2.32,8.91,8.91,0,0,1,4.12-.11,6.2,6.2,0,0,1,3.15,1.78,7.29,7.29,0,0,1,1.79,3.39A13.18,13.18,0,0,1,337.71,239.49Zm-11.23-2.57a4.67,4.67,0,0,0-1,2.74l7.71-1.87a3.1,3.1,0,0,0-1.51-2.13,3.77,3.77,0,0,0-2.73-.24A4.4,4.4,0,0,0,326.48,236.92Z"/><path class="cls-23" d="M346.57,228.11a10.55,10.55,0,0,1,3.25-1.3l.19,4.35c-.55.09-.9.16-1.05.2a5.17,5.17,0,0,0-3,1.8,5.5,5.5,0,0,0-.9,3.55l.31,7.88-4.5,1.09-.67-16.3,4.28-1,.07,1.94A6,6,0,0,1,346.57,228.11Z"/><path class="cls-23" d="M352.93,223.29a2.26,2.26,0,0,1-1.14-1.49,2.55,2.55,0,0,1,.36-2.12,3.12,3.12,0,0,1,2-1.28,2.91,2.91,0,0,1,2.08.18,2.12,2.12,0,0,1,1.12,1.43,2.69,2.69,0,0,1-.35,2.21,3.25,3.25,0,0,1-2,1.29A2.81,2.81,0,0,1,352.93,223.29Zm-.43,3.11,4.48-1.08.67,16.29-4.48,1.09Z"/><path class="cls-23" d="M376.87,230,365,232.9c.67,2.09,2.26,2.82,4.79,2.21a7.27,7.27,0,0,0,2.18-.92,6.13,6.13,0,0,0,1.63-1.53l2.6,2.53a9.39,9.39,0,0,1-2.6,2.28,12.56,12.56,0,0,1-3.4,1.37,10.08,10.08,0,0,1-4.41.16,6.55,6.55,0,0,1-3.37-1.77,7.1,7.1,0,0,1-1.85-3.44,9.42,9.42,0,0,1,.05-4.92,8.6,8.6,0,0,1,2.47-4,9.75,9.75,0,0,1,4.45-2.32,8.77,8.77,0,0,1,4.12-.1,6.19,6.19,0,0,1,3.15,1.77,7.28,7.28,0,0,1,1.79,3.4A13,13,0,0,1,376.87,230Zm-11.23-2.57a4.67,4.67,0,0,0-1,2.74l7.71-1.87a3.06,3.06,0,0,0-1.51-2.12,3.72,3.72,0,0,0-2.73-.25A4.4,4.4,0,0,0,365.64,227.46Z"/><path class="cls-23" d="M392.78,217.88a5.13,5.13,0,0,1,2.47,3.55,9,9,0,0,1,.26,1.93l.34,9-4.51,1.09-.33-8.73a4.88,4.88,0,0,0-.14-1.1,2.53,2.53,0,0,0-1.12-1.69,2.8,2.8,0,0,0-2.14-.15A4.33,4.33,0,0,0,385,223.5a5.36,5.36,0,0,0-.82,3.36l.34,8.27-4.5,1.09-.67-16.3,4.28-1,.06,1.76a7.49,7.49,0,0,1,4.65-3.14A6.14,6.14,0,0,1,392.78,217.88Z"/><path class="cls-23" d="M404,229.75a6.62,6.62,0,0,1-3.35-1.78,7,7,0,0,1-1.85-3.42,9.21,9.21,0,0,1,.1-4.92,8.91,8.91,0,0,1,2.6-4,10.15,10.15,0,0,1,4.6-2.36,8.8,8.8,0,0,1,4.53,0,6.71,6.71,0,0,1,3.41,2.26l-3.36,2.83a3.64,3.64,0,0,0-4-1.28,4.66,4.66,0,0,0-2.23,1.23,4.59,4.59,0,0,0-1.21,2.2,5.83,5.83,0,0,0,0,2.78,3.52,3.52,0,0,0,1.57,2.3,3.7,3.7,0,0,0,2.88.29,4.38,4.38,0,0,0,3.31-3l3.83,1.28a8,8,0,0,1-2.41,3.49,10.63,10.63,0,0,1-8.49,2.17Z"/><path class="cls-23" d="M432,216.7l-11.91,2.88c.67,2.08,2.26,2.82,4.79,2.21a7,7,0,0,0,2.18-.93,5.94,5.94,0,0,0,1.63-1.52l2.6,2.52a9.39,9.39,0,0,1-2.6,2.28,12.24,12.24,0,0,1-3.4,1.37,9.93,9.93,0,0,1-4.41.16,6.41,6.41,0,0,1-3.37-1.77,7.07,7.07,0,0,1-1.85-3.43,9.42,9.42,0,0,1,.05-4.92,8.68,8.68,0,0,1,2.47-4,9.83,9.83,0,0,1,4.45-2.31,8.91,8.91,0,0,1,4.12-.11,6.13,6.13,0,0,1,3.15,1.78,7.19,7.19,0,0,1,1.79,3.39A13.07,13.07,0,0,1,432,216.7Zm-11.23-2.56a4.67,4.67,0,0,0-1,2.73l7.71-1.86a3.1,3.1,0,0,0-1.51-2.13,3.68,3.68,0,0,0-2.73-.24A4.34,4.34,0,0,0,420.81,214.14Z"/></g></g></svg>