<svg xmlns="http://www.w3.org/2000/svg" xmlns:xlink="http://www.w3.org/1999/xlink" viewBox="0 0 171.84 80.58"><defs><style>.cls-1{fill:#fff;}.cls-1,.cls-10,.cls-11,.cls-12,.cls-13,.cls-14,.cls-15,.cls-16,.cls-18,.cls-20,.cls-21,.cls-22,.cls-23,.cls-24,.cls-25,.cls-26,.cls-27,.cls-28,.cls-29,.cls-3,.cls-30,.cls-31,.cls-32,.cls-34,.cls-35,.cls-36,.cls-4,.cls-6,.cls-8{fill-rule:evenodd;}.cls-2{mask:url(#mask);}.cls-3{fill:#c4e8f0;}.cls-4{fill:#22c0d8;}.cls-5{fill:none;stroke:#042538;stroke-linecap:round;stroke-linejoin:round;stroke-width:0.22px;}.cls-6{fill:#51c5d5;}.cls-7{mask:url(#mask-2-2);}.cls-8{fill:#042538;}.cls-9{mask:url(#mask-3);}.cls-10{fill:#53bf9e;}.cls-11{fill:#fbb87a;}.cls-12{fill:#fbad46;}.cls-13{fill:#ffe4c6;}.cls-14{fill:#f26b60;}.cls-15{fill:#f8afaa;}.cls-16{fill:#f9a160;}.cls-17{mask:url(#mask-69);}.cls-18{fill:#0590a8;}.cls-19{mask:url(#mask-106);}.cls-20{fill:#eeeeef;}.cls-21{fill:#ac2759;}.cls-22{fill:#d73b77;}.cls-23{fill:#e84f8a;}.cls-24{fill:#1f417e;}.cls-25{fill:#265aa0;}.cls-26{fill:#d8ac31;}.cls-27{fill:#fad05b;}.cls-28{fill:#e6e6e5;}.cls-29{fill:#211a15;}.cls-30{fill:#5c6f8c;}.cls-31{fill:#f3a173;}.cls-32{fill:#d37a4f;}.cls-33{mask:url(#mask-107);}.cls-34{fill:#d1b699;}.cls-35{fill:#d2d2d2;}.cls-36{fill:#20366b;}</style><mask id="mask" x="45.21" y="9.86" width="125.1" height="68.59" maskUnits="userSpaceOnUse"><g id="mask-2"><polygon id="path-1" class="cls-1" points="45.21 9.86 170.31 9.86 170.31 78.45 45.21 78.45 45.21 9.86"/></g></mask><mask id="mask-2-2" x="83.58" y="0" width="39.68" height="78.45" maskUnits="userSpaceOnUse"><g id="mask-4"><polygon id="path-3" class="cls-1" points="83.58 0 123.25 0 123.25 78.45 83.58 78.45 83.58 0"/></g></mask><mask id="mask-3" x="37.53" y="-1.51" width="134.32" height="79.96" maskUnits="userSpaceOnUse"><g id="mask-6"><polygon id="path-5" class="cls-1" points="37.53 78.45 171.84 78.45 171.84 -1.51 37.53 -1.51 37.53 78.45"/></g></mask><mask id="mask-69" x="37.53" y="-1.51" width="134.32" height="80.07" maskUnits="userSpaceOnUse"><g id="mask-6-68" data-name="mask-6"><polygon id="path-5-67" data-name="path-5" class="cls-1" points="37.53 78.45 171.84 78.45 171.84 -1.51 37.53 -1.51 37.53 78.45"/></g></mask><mask id="mask-106" x="0" y="77.33" width="126.64" height="3.25" maskUnits="userSpaceOnUse"><g id="mask-2-3" data-name="mask-2"><polygon id="path-1-2" data-name="path-1" class="cls-1" points="0 77.33 126.64 77.33 126.64 80.58 0 80.58 0 77.33"/></g></mask><mask id="mask-107" x="0" y="14.12" width="126.77" height="66.87" maskUnits="userSpaceOnUse"><g id="mask-4-3" data-name="mask-4"><polygon id="path-3-2" data-name="path-3" class="cls-1" points="0 80.99 126.77 80.99 126.77 14.12 0 14.12 0 80.99"/></g></mask></defs><g id="Layer_2" data-name="Layer 2"><g id="Layer_1-2" data-name="Layer 1"><g id="Page-1"><g id="Feature-Intro-4"><g id="Group-318"><g id="Group-3"><g class="cls-2"><path id="Fill-1" class="cls-3" d="M59.11,78.45h77l32.81-.14c.83-5.11,1.67-10.27,1.33-15.44s-1.95-10.41-5.45-14.21c-3.31-3.58-8.43-6.31-8.91-11.16-.43-4.4,3.39-8.51,2.59-12.86a8.15,8.15,0,0,0-5.42-5.8,17.68,17.68,0,0,0-8.22-.48c-6.87.92-13.41,3.48-20.08,5.38S111,26.92,104.23,25.22c-5.72-1.44-10.68-4.91-15.6-8.15s-10.17-6.4-16-7.09S60.12,11.7,57.66,17.07C54,25,60.74,35.19,56.55,42.9c-2.32,4.28-7.43,6.45-9.87,10.67-2.61,4.51-1.49,10.44,1.4,14.78,2.77,4.18,6.92,7.21,11,10.1"/></g></g><path id="Fill-4" class="cls-3" d="M52.13,44.69a5.77,5.77,0,0,0,1.94-5.08c-.36-1.86-2.33-3.39-4.1-2.81-1.36.44-2.14,1.84-3,3a16,16,0,0,1-4.49,4.33c-.91.58-2,1.19-2.23,2.25-.38,1.53,1.31,2.93,2.86,2.85,2.44-.12,7.24-2.9,9-4.56"/><path id="Fill-6" class="cls-1" d="M61.1,21.85H86.94a3.14,3.14,0,0,0-3-2.62,15.06,15.06,0,0,0-2.47.44A2.33,2.33,0,0,1,79.23,19c-.52-.71-.32-1.77-.88-2.44a2,2,0,0,0-2.06-.47c-.72.18-1.37.57-2.07.81a2.4,2.4,0,0,1-2.14-.12c-.83-.59-.85-1.78-1.28-2.69a3,3,0,0,0-5.66.67c-.2,1,0,2.13-.73,2.77s-1.93.25-2.83.63a2.23,2.23,0,0,0-1,2.83,2.92,2.92,0,0,0,.5.83"/><path id="Fill-8" class="cls-1" d="M138.24,29a1,1,0,0,0,1-.94,8.33,8.33,0,0,1,.16-1,1.73,1.73,0,0,0-.44-1.79c-.75-.51-1.76.25-2.65.1a2.18,2.18,0,0,1-1.42-1.33,8.69,8.69,0,0,0-.91-1.8,2.83,2.83,0,0,0-3.87-.24,10,10,0,0,0-1.63,2.17,3,3,0,0,1-2.16,1.5c-1.51.07-2.64-1.73-4.16-1.65-1.14.07-1.92,1.16-2.5,2.16s-1.3,2.1-2.44,2.25-2.17-.7-3.22-.4a1.63,1.63,0,0,0-1,1Z"/><path id="Fill-10" class="cls-4" d="M140.17,15.56h0a2,2,0,0,0-2-2,2,2,0,0,0,2-2,2,2,0,0,0,2,2,2,2,0,0,0-2,2"/><path id="Fill-12" class="cls-4" d="M142.65,16.46h0a1.36,1.36,0,0,0-1.35-1.35,1.35,1.35,0,0,0,1.35-1.35A1.34,1.34,0,0,0,144,15.11a1.35,1.35,0,0,0-1.34,1.35"/><path id="Fill-14" class="cls-4" d="M155.22,38.92h0a.89.89,0,0,0-.89-.9.89.89,0,0,0,.89-.9.9.9,0,0,0,.9.9.9.9,0,0,0-.9.9"/><path id="Fill-16" class="cls-4" d="M75.71,9.27h0a1.35,1.35,0,0,0-1.35-1.35,1.34,1.34,0,0,0,1.35-1.34,1.34,1.34,0,0,0,1.35,1.34,1.35,1.35,0,0,0-1.35,1.35"/><path id="Fill-18" class="cls-4" d="M44.72,21.4h0a1.81,1.81,0,0,0-1.8-1.8,1.8,1.8,0,0,0,1.8-1.79,1.79,1.79,0,0,0,1.79,1.79,1.8,1.8,0,0,0-1.79,1.8"/><path id="Fill-20" class="cls-4" d="M41.57,21.85h0a1.35,1.35,0,0,0-1.35-1.35,1.34,1.34,0,0,0,1.35-1.34,1.34,1.34,0,0,0,1.35,1.34,1.35,1.35,0,0,0-1.35,1.35"/><path id="Fill-22" class="cls-4" d="M74.59,7h0A1.13,1.13,0,0,0,73.47,5.9a1.12,1.12,0,0,0,1.12-1.12A1.12,1.12,0,0,0,75.71,5.9,1.13,1.13,0,0,0,74.59,7"/><path id="Fill-24" class="cls-4" d="M86.26,45.44,87,43.66a25.45,25.45,0,0,0-6.72-9.81l-1.45,1.69.61-2.46a28.88,28.88,0,0,0-5.12-3.59,28,28,0,0,0,1.36,15.09L78,45.75,76.34,46a22.72,22.72,0,0,0,5.24,7l2,0-1.3.64a20.93,20.93,0,0,0,5.22,3.31,22,22,0,0,0-.12-12.2Z"/><line id="Stroke-26" class="cls-5" x1="74.81" y1="29.94" x2="87.39" y2="55.99"/><line id="Stroke-28" class="cls-5" x1="74.36" y1="36.67" x2="78.41" y2="38.47"/><line id="Stroke-30" class="cls-5" x1="82.45" y1="36.23" x2="81.1" y2="42.96"/><line id="Stroke-32" class="cls-5" x1="77.96" y1="47.46" x2="84.25" y2="49.7"/><path id="Fill-34" class="cls-6" d="M87.81,68.72,90.35,67a26.79,26.79,0,0,0-4.16-11.27A29.46,29.46,0,0,0,83.34,52l-1.5,2,.77-2.77a35.84,35.84,0,0,0-14.09-8.69.33.33,0,0,0-.38.51,21.41,21.41,0,0,1,3.15,6.19l2.24.8-1.88.36a53.7,53.7,0,0,1,1.29,5.69c.47,2.66.88,5.36,1.51,8l2.63,1.34-2.24.14a26.45,26.45,0,0,0,2,5.09c2.09,3.94,5.93,7.32,10.3,7.8A2.21,2.21,0,0,0,89.43,77a22.42,22.42,0,0,0,1.07-8.38Z"/><path id="Stroke-36" class="cls-5" d="M70.32,43.86S84.65,55.15,87.39,77.55"/><line id="Stroke-38" class="cls-5" x1="73.47" y1="52.4" x2="80.65" y2="56.89"/><line id="Stroke-40" class="cls-5" x1="81.1" y1="51.05" x2="82.45" y2="60.48"/><line id="Stroke-42" class="cls-5" x1="74.81" y1="60.48" x2="84.25" y2="65.42"/><path id="Stroke-44" class="cls-5" d="M78.86,70.82c0,.05,8.08,5.39,8.08,5.39"/><path id="Stroke-46" class="cls-5" d="M87.84,60s-2.31,9.42-2.24,9.44"/><path id="Fill-48" class="cls-4" d="M119.32,53.44l-2.54-1.76a26.56,26.56,0,0,1,4.16-11.28,29.28,29.28,0,0,1,2.84-3.66l1.51,2L124.52,36a35.73,35.73,0,0,1,14.09-8.69.32.32,0,0,1,.37.5,21.44,21.44,0,0,0-3.14,6.2l-2.24.8,1.88.36a53.15,53.15,0,0,0-1.29,5.69c-.48,2.66-.88,5.36-1.52,8l-2.62,1.35,2.23.14a25.12,25.12,0,0,1-2,5.08c-2.09,4-5.93,7.32-10.29,7.81a2.2,2.2,0,0,1-2.31-1.49,22.5,22.5,0,0,1-1.07-8.39Z"/><path id="Stroke-50" class="cls-5" d="M136.36,29.49S123,37,120.18,61.83"/><line id="Stroke-52" class="cls-5" x1="130.52" y1="31.73" x2="128.72" y2="37.12"/><line id="Stroke-54" class="cls-5" x1="133.66" y1="37.12" x2="125.13" y2="43.41"/><line id="Stroke-56" class="cls-5" x1="121.53" y1="40.27" x2="121.98" y2="51.5"/><line id="Stroke-58" class="cls-5" x1="130.07" y1="51.95" x2="121.08" y2="57.34"/><path id="Fill-60" class="cls-6" d="M129.18,69l2.51,0A33.14,33.14,0,0,0,140,56l-2.75-.92,3.23-.49a38,38,0,0,0,1.71-8c-8,1.93-13.48,5.35-17.32,9.2l-.26,3.3-1.11-1.83a29.83,29.83,0,0,0-5.68,9.85l1,2.39-1.42-1.25a28.09,28.09,0,0,0-1.31,8A28.12,28.12,0,0,0,130.64,70Z"/><line id="Stroke-62" class="cls-5" x1="117.04" y1="74.86" x2="141.75" y2="47.01"/><line id="Stroke-64" class="cls-5" x1="134.56" y1="50.15" x2="132.76" y2="57.34"/><line id="Stroke-66" class="cls-5" x1="137.25" y1="59.14" x2="128.27" y2="62.28"/><line id="Stroke-68" class="cls-5" x1="123.33" y1="58.24" x2="123.78" y2="67.22"/><line id="Stroke-70" class="cls-5" x1="126.47" y1="71.71" x2="119.29" y2="72.16"/><g id="Group-74"><g class="cls-7"><path id="Fill-72" class="cls-8" d="M117,78.45H89.83a6.24,6.24,0,0,1-6.25-6.22v-66A6.24,6.24,0,0,1,89.83,0H117a6.24,6.24,0,0,1,6.25,6.23v66A6.24,6.24,0,0,1,117,78.45"/></g></g><path id="Fill-75" class="cls-1" d="M122,6.22v65.4a4.14,4.14,0,0,1-4.15,4.14H89.29a4.14,4.14,0,0,1-4.14-4.14V6.22a4.14,4.14,0,0,1,4.14-4.14h8.36a1.15,1.15,0,0,0,0,.26A1.17,1.17,0,0,0,98.8,3.51h9.53a1.17,1.17,0,0,0,1.17-1.17,2.28,2.28,0,0,0,0-.26h8.35A4.15,4.15,0,0,1,122,6.22"/><g class="cls-9"><path id="Fill-121" class="cls-3" d="M117.77,16.46H115a2,2,0,0,1,0-4h2.8a2,2,0,0,1,0,4"/></g><g class="cls-9"><path id="Fill-122" class="cls-10" d="M117.49,16.46h0a1.88,1.88,0,0,1-1.8-2v-.14a1.81,1.81,0,1,1,3.6,0v.14a1.88,1.88,0,0,1-1.8,2"/></g><g class="cls-9"><path id="Fill-123" class="cls-8" d="M94.58,16.24a3.37,3.37,0,1,1-3.37-3.37,3.36,3.36,0,0,1,3.37,3.37"/></g><g class="cls-9"><path id="Fill-124" class="cls-1" d="M91.21,14.21a1.13,1.13,0,0,0-1.12,1.13v.12a1.1,1.1,0,0,0,.35.69,1.11,1.11,0,0,0,1.54,0,1.1,1.1,0,0,0,.35-.69v-.12a1.13,1.13,0,0,0-1.12-1.13"/></g><g class="cls-9"><path id="Fill-125" class="cls-1" d="M92.78,17.58v.23H89.64v-.23a1.39,1.39,0,0,1,.59-1.12,1.27,1.27,0,0,0,2,0,1.39,1.39,0,0,1,.59,1.12"/></g><g class="cls-9"><polygon id="Fill-126" class="cls-3" points="95.48 16.01 101.77 16.01 101.77 15.11 95.48 15.11 95.48 16.01"/></g><g class="cls-9"><polygon id="Fill-127" class="cls-3" points="95.48 17.36 107.16 17.36 107.16 16.46 95.48 16.46 95.48 17.36"/></g><g class="cls-9"><path id="Fill-143" class="cls-10" d="M132.31,9.27a4.49,4.49,0,1,1-4.49-4.49,4.49,4.49,0,0,1,4.49,4.49"/></g><g class="cls-9"><path id="Fill-144" class="cls-1" d="M127.28,12a.31.31,0,0,1-.2-.07l-1.8-1.23a.35.35,0,0,1-.09-.49.36.36,0,0,1,.5-.09l1.5,1,2.67-3.94a.36.36,0,0,1,.5-.09.35.35,0,0,1,.1.49l-2.88,4.23a.36.36,0,0,1-.23.15h-.07"/></g><g class="cls-9"><path id="Fill-145" class="cls-11" d="M134.45,76l-1.22-13.81,1.11-2.82-3.07-.49c-.55-.09-1.13-.15-1.71-.21-.19.7-.38,1.41-.57,2.14a5,5,0,0,0-.06,2.38c.46,2.2.95,4.41,1.39,6.38.78,3.49,1.43,6.22,1.56,6.78a6.3,6.3,0,0,1-3.35,1.47.24.24,0,0,0-.21.11.34.34,0,0,0,.07.43.2.2,0,0,0,.19.07l6-.62a.47.47,0,0,0,.41-.44,5.08,5.08,0,0,0-.57-1.36Z"/></g><g class="cls-9"><path id="Stroke-146" class="cls-5" d="M129.17,62.28l.45.45"/></g><g class="cls-9"><path id="Fill-147" class="cls-8" d="M134.74,76.42s.54,1,.09,1.68-5.23.31-6.49.24a.53.53,0,0,1-.46-.35c-.1-.28-.12-.66.43-.75a5.26,5.26,0,0,1,1.89,0s-.89.34-.67.51c.39.3,3.65-.3,4.5-1.1s.71-.2.71-.2"/></g><g class="cls-9"><path id="Fill-148" class="cls-11" d="M142.2,60.36c-1.6-.24-3.2-.52-4.8-.78l.06,16.69a6.33,6.33,0,0,1-3.5,1.12.24.24,0,0,0-.23.09.34.34,0,0,0,0,.44.23.23,0,0,0,.18.08h6.22a.46.46,0,0,0,.46-.39,3.92,3.92,0,0,0-.1-1.46c.07-.61,1-8.79,1.68-15.79"/></g><g class="cls-9"><path id="Stroke-149" class="cls-5" d="M137.85,63.63a.55.55,0,0,0,.16.45"/></g><g class="cls-9"><path id="Fill-150" class="cls-8" d="M140.59,76.43s.53,1,.07,1.7-5.23.25-6.49.16a.54.54,0,0,1-.46-.36c-.09-.29-.11-.67.45-.76a5.2,5.2,0,0,1,1.89,0s-.9.34-.68.51c.39.3,3.65-.26,4.51-1.06s.71-.19.71-.19"/></g><g class="cls-9"><path id="Fill-151" class="cls-11" d="M134.53,41a23.11,23.11,0,0,0-2.36-2.81c-.25.54-.57,1.2-.92,1.93l-2.86-4.8-.23-.4-1.24.34c0,.07,0,.13,0,.19a24.36,24.36,0,0,0,2.55,8.15l0,0a2.15,2.15,0,0,0,3.81,0l0-.06c.47-.91.87-1.78,1.21-2.55l0,0"/></g><g class="cls-9"><path id="Fill-152" class="cls-11" d="M127.86,34c0,.07-.06.13-.11.15s-.64-1.57-.88-1.55.2,1.19.2,1.19-.56-1.2-.68-1.08.24,1.25.24,1.25-.7-1.14-.77-1,.36,1.13.36,1.13c-.3-.38-.48-.5-.58-.53s-.08,0-.06.07a9.24,9.24,0,0,0,1.62,2.08l.85-.11a3.54,3.54,0,0,0,.22-.88,3.1,3.1,0,0,1-.41-.76"/></g><g class="cls-9"><path id="Stroke-153" class="cls-5" d="M128.27,35.33s3.89,6.19,4,7.18"/></g><g class="cls-9"><line id="Stroke-154" class="cls-5" x1="130.97" y1="40.27" x2="131.86" y2="41.17"/></g><g class="cls-9"><path id="Fill-155" class="cls-12" d="M125.73,33.93l1.83,0a.16.16,0,0,0,.16-.14l.1-2.81a.14.14,0,0,0-.15-.14l-1.83-.06a.15.15,0,0,0-.16.14l-.1,2.81c0,.08.06.14.15.15"/></g><g class="cls-9"><polygon id="Fill-156" class="cls-8" points="127.76 31.8 127.75 32.18 127.43 32.17 127.44 31.82 127.61 31.73 127.76 31.8"/></g><g class="cls-9"><path id="Fill-157" class="cls-8" d="M127.12,31.37l.19.05v.09l-.19,0,0,.18h0s-.06,0-.06,0l0-.4s0,0,.06,0h0Z"/></g><g class="cls-9"><path id="Fill-158" class="cls-8" d="M127.62,31.54l-.18,0v-.09l.18,0v-.1h0s.06,0,.06,0l0,.4s0,0-.07,0h0Z"/></g><g class="cls-9"><polygon id="Fill-159" class="cls-8" points="127.53 31.55 127.53 31.37 127.67 31.38 127.66 31.64 127.53 31.55"/></g><g class="cls-9"><polygon id="Fill-160" class="cls-8" points="127.53 31.64 127.54 31.37 127.67 31.38 127.66 31.58 127.53 31.64"/></g><g class="cls-9"><polygon id="Fill-161" class="cls-13" points="126.74 32.63 126.81 31.29 126.66 31.28 126.58 32.63 126.74 32.63"/></g><g class="cls-9"><polygon id="Fill-162" class="cls-13" points="126.72 33.08 126.83 31.29 126.68 31.28 126.56 33.08 126.72 33.08"/></g><g class="cls-9"><polygon id="Fill-163" class="cls-13" points="127.21 31.73 127.24 31.29 127.08 31.28 127.06 31.73 127.21 31.73"/></g><g class="cls-9"><path id="Fill-164" class="cls-14" d="M126.26,34.87l1.47-.58a.15.15,0,0,0,.08-.19l-1-2.72a.13.13,0,0,0-.17-.09l-1.48.58a.16.16,0,0,0-.08.19l1,2.72a.14.14,0,0,0,.18.09"/></g><g class="cls-9"><polygon id="Fill-165" class="cls-15" points="126.02 33.05 125.64 31.73 125.58 31.77 125.96 33.08 126.02 33.05"/></g><g class="cls-9"><polygon id="Fill-166" class="cls-15" points="126.47 33.5 125.67 31.73 125.58 31.76 126.38 33.53 126.47 33.5"/></g><g class="cls-9"><polygon id="Fill-167" class="cls-15" points="126.46 32.15 126.18 31.73 126.03 31.76 126.32 32.18 126.46 32.15"/></g><g class="cls-9"><polygon id="Fill-168" class="cls-8" points="126.32 31.28 127.37 34.31 127.07 34.43 126.02 31.4 126.32 31.28"/></g><g class="cls-9"><path id="Fill-169" class="cls-11" d="M127.73,35.26a1.19,1.19,0,0,0,.84,0c.32-.19.05-1.2-.09-1.34a2,2,0,0,0-1.07-.35c-.15.09.22.6.48.64,0,0-.53.74-.16,1.08"/></g><g class="cls-9"><path id="Fill-170" class="cls-11" d="M148.48,43.42a29.67,29.67,0,0,0-.26-3.17,2.73,2.73,0,0,0-1-1.72c-1.18-.92-2.36-1.71-3.42-2.38-.79-.5-1.51-.92-2.14-1.27A24.4,24.4,0,0,1,140,37.75c1.39.88,3.23,2.1,5.08,3.34.9,3.65,1.67,7,1.72,7.18h0v.11s-1.14.84-1.16,1.26.89-.42.92-.21-.23,1-.16,1.08.45-.11.45-.11a.35.35,0,0,0,.53.1.54.54,0,0,0,.6-.13.63.63,0,0,0,.44-.34,7.08,7.08,0,0,0-.24-2.14,21.21,21.21,0,0,0,.35-4.48"/></g><g class="cls-9"><line id="Stroke-171" class="cls-5" x1="144.89" y1="40.72" x2="146.69" y2="48.35"/></g><g class="cls-9"><path id="Fill-172" class="cls-11" d="M141.56,34.86a1.76,1.76,0,0,0-1.16-.46,2.44,2.44,0,0,1-1-.22,11.76,11.76,0,0,1,0-4.21v0l-3.45,2a1,1,0,0,1,.11.38h0a4.47,4.47,0,0,1-.08,1.07c-.07.4-.16.76-.2.9a5.88,5.88,0,0,1-1.61,1.06c-1.12.68-1.24,2.64-.8,4.59s1.36,4.86,1.36,4.86l5.79-.08c-.19-1.76,1-4.3,1.52-7.19a2.8,2.8,0,0,0-.56-2.63"/></g><g class="cls-9"><path id="Fill-173" class="cls-8" d="M135.91,33.51c1.76.25,2.66-2.14,2.69-2.23a2.09,2.09,0,0,1-1.26,1,3.13,3.13,0,0,1-1.35.08h0a4.94,4.94,0,0,1-.07,1.13"/></g><g class="cls-9"><path id="Fill-174" class="cls-12" d="M141,45c-.32-.51.21-2.75.78-4.88a10.43,10.43,0,0,0,1,.9,14.57,14.57,0,0,0,2-3.93,30.67,30.67,0,0,0-5.7-3.12s-1.54,3.57-3.08,3.25-.81-2.47-.81-2.47a5.91,5.91,0,0,0-1.07.59v0l-.15.16a3.81,3.81,0,0,0-1,1.18,8.26,8.26,0,0,0-1.14,1.66c-.41,1-.67,1.43-.67,1.43A39.44,39.44,0,0,0,133.58,44s.15-.21.27-.52l.45,1.77c-1.82,2.24-6.41,15.08-5.45,15.55s13.2,2.36,13.2,2.36,1.1-12.15.87-13.78A12.59,12.59,0,0,0,141,45"/></g><g class="cls-9"><polygon id="Fill-175" class="cls-8" points="141.75 39.72 140.4 38.47 141.47 40.72 141.75 39.72"/></g><g class="cls-9"><path id="Fill-176" class="cls-8" d="M142.71,40.72h0a.08.08,0,0,1,0-.08,32.44,32.44,0,0,0,2.12-3.91.06.06,0,0,1,.08,0,.06.06,0,0,1,0,.07,32.18,32.18,0,0,1-2.13,3.94.05.05,0,0,1,0,0"/></g><g class="cls-9"><path id="Fill-177" class="cls-8" d="M133.6,43.86a.05.05,0,0,1,0,0l-2.13-4.37a.07.07,0,0,1,0-.08.05.05,0,0,1,.08,0l2.13,4.37a.07.07,0,0,1,0,.09h0"/></g><g class="cls-9"><path id="Fill-178" class="cls-8" d="M134.05,43.41s-.05,0-.05,0a11.87,11.87,0,0,1-.61-1.67,4.4,4.4,0,0,1-.14-1.77,6.6,6.6,0,0,1,.36-1.3c0-.1.07-.2.1-.3a3.65,3.65,0,0,0,.27-1.6.06.06,0,0,1,.05-.06s.06,0,.07,0a3.86,3.86,0,0,1-.28,1.65l-.1.3a6.24,6.24,0,0,0-.36,1.28,4.36,4.36,0,0,0,.15,1.72,12.91,12.91,0,0,0,.59,1.65.06.06,0,0,1,0,.08h0"/></g><g class="cls-9"><path id="Fill-179" class="cls-8" d="M132.82,56h0a.08.08,0,0,1,0-.09,20.58,20.58,0,0,0,4.8-8.84.07.07,0,0,1,.08,0,.06.06,0,0,1,0,.07A20.71,20.71,0,0,1,132.87,56l-.05,0"/></g><g class="cls-9"><path id="Fill-180" class="cls-8" d="M136.41,53.74h0a.05.05,0,0,1,0-.07A32.46,32.46,0,0,0,137.6,48s0-.06.06-.05a0,0,0,0,1,0,.06,31.55,31.55,0,0,1-1.25,5.74s0,0,0,0"/></g><g class="cls-9"><path id="Fill-181" class="cls-8" d="M141.21,62.28h0a0,0,0,0,1,0-.06c0-.07.57-7.08.88-9.84A11.9,11.9,0,0,0,141,46.79c-.17-.44-.33-.87-.45-1.25-.52-1.69.63-5.52.68-5.68a.06.06,0,0,1,.07,0,.06.06,0,0,1,0,.08s-1.19,4-.68,5.6c.12.38.28.8.45,1.25a12,12,0,0,1,1.07,5.65c-.31,2.76-.88,9.76-.89,9.83a0,0,0,0,1,0,.05"/></g><g class="cls-9"><path id="Fill-182" class="cls-8" d="M141.69,61.83h0L128.77,59.7s-.05,0-.05-.07a.05.05,0,0,1,.07,0l12.91,2.12a.08.08,0,0,1,.05.07.06.06,0,0,1-.06,0"/></g><g class="cls-9"><path id="Stroke-183" class="cls-5" d="M135.91,41.62a1,1,0,0,1,.9.45"/></g><g class="cls-9"><path id="Fill-184" class="cls-8" d="M136,37.57a1.31,1.31,0,0,1-.48-.08c-1.33-.48-.92-2.52-.92-2.54a.06.06,0,0,1,.07,0,.05.05,0,0,1,.05.07s-.39,2,.84,2.39,2.78-1,3.81-3.35c0,0,0-.05.08,0a.08.08,0,0,1,0,.09c-.81,1.84-2.2,3.5-3.48,3.5"/></g><g class="cls-9"><path id="Fill-185" class="cls-11" d="M140.37,29a.63.63,0,0,0-.71-.46l-.09,0a3.64,3.64,0,0,0-.8-2.81c-1.51-1.35-3.67-.88-4.12.34a10,10,0,0,0-.53,3.11c0,.46,0,.91,0,1.34v.13a2.17,2.17,0,0,0,.07.57A2.57,2.57,0,0,0,136,32.57a2.65,2.65,0,0,0,2.33-.61,3.17,3.17,0,0,0,1-1.76,1.32,1.32,0,0,0,.4,0,1.13,1.13,0,0,0,.48-.41.89.89,0,0,0,.11-.71"/></g><g class="cls-9"><path id="Fill-186" class="cls-16" d="M135,29.71a.7.7,0,0,1-.71.68.58.58,0,0,1-.19,0c0-.42,0-.86,0-1.3a.55.55,0,0,1,.18,0,.69.69,0,0,1,.71.67"/></g><g class="cls-9"><path id="Fill-187" class="cls-16" d="M138.15,29.71a.67.67,0,1,1-1.34,0,.67.67,0,1,1,1.34,0"/></g><g class="cls-9"><path id="Fill-188" class="cls-8" d="M135.46,28.59c0,.25-.1.45-.23.45s-.22-.2-.22-.45.1-.45.22-.45.23.2.23.45"/></g><g class="cls-9"><path id="Fill-189" class="cls-8" d="M134.56,27.74a1,1,0,0,0,.14.24.54.54,0,0,0,.21.16h0s.08,0,.09-.08a.12.12,0,0,0-.06-.13h0a.42.42,0,0,1-.33-.23h0a.06.06,0,0,0,0,0"/></g><g class="cls-9"><path id="Fill-190" class="cls-8" d="M136.36,28.59c0,.25.1.45.22.45s.23-.2.23-.45-.1-.45-.23-.45-.22.2-.22.45"/></g><g class="cls-9"><path id="Fill-191" class="cls-8" d="M137.21,27.7a.41.41,0,0,1-.33.23s-.07,0-.07.1a.09.09,0,0,0,.07.11h0a.47.47,0,0,0,.21-.16.72.72,0,0,0,.14-.24,0,0,0,0,0,0,0Z"/></g><g class="cls-9"><path id="Fill-192" class="cls-8" d="M135.46,29.49a.8.8,0,0,0,.27.31.69.69,0,0,0,.4.14.77.77,0,0,0,.4-.14c.06,0,.1-.1.15-.14l.13-.17-.16.13-.17.1a.76.76,0,0,1-.35.11.81.81,0,0,1-.36-.1,2.34,2.34,0,0,1-.31-.24"/></g><g class="cls-9"><path id="Fill-193" class="cls-8" d="M135.91,30.54a.28.28,0,0,0,.22.14.34.34,0,0,0,.23-.14.64.64,0,0,1-.23.05.59.59,0,0,1-.22-.05"/></g><g class="cls-9"><path id="Fill-194" class="cls-8" d="M136.4,27.33a.59.59,0,0,1,.35-.09,1.58,1.58,0,0,1,.38,0,.87.87,0,0,1,.33.12.73.73,0,0,1,.23.19s0,.07,0,.09a.14.14,0,0,1-.13,0h0a1,1,0,0,0-.23-.12,1.49,1.49,0,0,0-.25-.07,1.17,1.17,0,0,0-.27,0h-.32c-.06,0-.1-.05-.08-.09l0,0"/></g><g class="cls-9"><path id="Fill-195" class="cls-8" d="M135.42,27.33a.64.64,0,0,0-.36-.09,1.69,1.69,0,0,0-.38,0,.93.93,0,0,0-.33.12.73.73,0,0,0-.23.19s0,.07,0,.09a.13.13,0,0,0,.12,0h0a1.27,1.27,0,0,1,.23-.12l.25-.07a1.22,1.22,0,0,1,.27,0h.32c.06,0,.1-.05.08-.09s0,0,0,0"/></g><g class="cls-9"><path id="Fill-196" class="cls-8" d="M136.1,27.69c0,.15,0,.29-.07.44s0,.28-.07.42l0,.1s0,.08,0,.12a.24.24,0,0,0,.1.23.19.19,0,0,0,.19,0,.61.61,0,0,0,.16-.12c-.11.05-.23.09-.31,0a.24.24,0,0,1-.05-.14.51.51,0,0,1,0-.09l0-.11a2.12,2.12,0,0,0,.06-.44c0-.15,0-.3,0-.45"/></g><g class="cls-9"><path id="Fill-197" class="cls-8" d="M140.4,29a.4.4,0,0,0-.12-.3.33.33,0,0,0-.33,0,.69.69,0,0,0-.28.2,1,1,0,0,0-.16.29.07.07,0,0,0,0,.1.08.08,0,0,0,.08,0h0a.65.65,0,0,1,.25-.18.13.13,0,0,1,.11,0,.27.27,0,0,1,.07.12c0,.1.06.21,0,.26a.53.53,0,0,1-.33,0,.5.5,0,0,0,.36,0,.19.19,0,0,0,.13-.17.44.44,0,0,0,0-.2.41.41,0,0,0-.11-.19.23.23,0,0,0-.22-.05.8.8,0,0,0-.33.22l.13.08a.88.88,0,0,1,.34-.44.28.28,0,0,1,.25,0,.38.38,0,0,1,.16.24"/></g><g class="cls-9"><path id="Fill-198" class="cls-8" d="M140.83,27.36a4,4,0,0,0-6.24-2.05c-1.68,1.2-1.39,7.53-1.31,8.89a.25.25,0,0,0,.28.23l2.17-.2c0-.18.1-.4.14-.64a5,5,0,0,0,.09-.85,1.64,1.64,0,0,0,0-.23,2.54,2.54,0,0,1-1.84-1.22,1.66,1.66,0,0,1-.07-.55v-.13c0-.42,0-.85,0-1.29a13.75,13.75,0,0,1,.13-1.44,16.68,16.68,0,0,0,3.83.24c.41-.18.41-1.05.41-1.05a3.51,3.51,0,0,1,0,2.46,5.92,5.92,0,0,0,1.14-.84l.09,0a.63.63,0,0,1,.72.44.77.77,0,0,1-.11.69,1,1,0,0,1-.48.39,1.12,1.12,0,0,1-.41,0,13.18,13.18,0,0,0-.16,3.68l2.28-.22a.24.24,0,0,0,.23-.24,22,22,0,0,0-.92-6.08"/></g><g class="cls-9"><path id="Fill-199" class="cls-11" d="M153,69l-2.22,7.44,1,.64,1.06,0s1.84-4,3.36-7.44A22.74,22.74,0,0,1,153,69"/></g><g class="cls-9"><path id="Fill-200" class="cls-8" d="M155.67,71.28c-.06.15-.13.29-.19.43a24.73,24.73,0,0,1-2.95-1.32l.14-.47a25,25,0,0,0,3,1.36"/></g><g class="cls-9"><path id="Fill-201" class="cls-14" d="M152.41,78.45c-.11.06-3.25-1.1-3.25-1.1a.37.37,0,0,1-.2-.48.59.59,0,0,1,.42-.36,4.68,4.68,0,0,1,.54-.09,1.63,1.63,0,0,0,.57-.21c0-.18,0-.36,0-.54a.38.38,0,0,1,0-.18.35.35,0,0,1,.19-.15.73.73,0,0,1,.68.14,1.09,1.09,0,0,1,.31.53,2.73,2.73,0,0,1,.06.64c0,.12.11.17.22.17a.93.93,0,0,0,.33-.07.57.57,0,0,1,.34,0,.53.53,0,0,1,.29.42,1.21,1.21,0,0,1-.11.72,1.16,1.16,0,0,1-.44.59"/></g><g class="cls-17"><line id="Stroke-202" class="cls-5" x1="148.93" y1="77.1" x2="152.08" y2="78.45"/></g><g class="cls-9"><path id="Fill-203" class="cls-11" d="M162.48,70c0-.18,0-.36,0-.53a17.77,17.77,0,0,1-2.54.26h-.66l.14,1.05a1.74,1.74,0,0,0,.74,1.18l2.33,1.6,3,2.19,1.26-.79.14-.61S164.74,72,162.48,70"/></g><g class="cls-9"><path id="Fill-204" class="cls-8" d="M162.86,70.29c0,.15-.05.24-.09.26a20.56,20.56,0,0,1-3.35.71,2.46,2.46,0,0,1-.14-.55v-.14a29.66,29.66,0,0,0,3.25-.65l.34.37"/></g><g class="cls-9"><path id="Fill-205" class="cls-14" d="M167.8,75.06c0,.14-2.44,2.82-2.44,2.82a.36.36,0,0,1-.53,0,.67.67,0,0,1-.14-.57,5.5,5.5,0,0,1,.16-.58,2.11,2.11,0,0,0,.05-.66l-.48-.24a.46.46,0,0,1-.16-.11.36.36,0,0,1,0-.25.81.81,0,0,1,.42-.62,1,1,0,0,1,.63-.09,2.69,2.69,0,0,1,.61.19c.11.05.21,0,.26-.15a1.45,1.45,0,0,0,.08-.36.58.58,0,0,1,.12-.34.5.5,0,0,1,.51-.13,1.13,1.13,0,0,1,.61.4,1.21,1.21,0,0,1,.35.68"/></g><g class="cls-9"><line id="Stroke-206" class="cls-5" x1="165.11" y1="77.55" x2="167.35" y2="74.86"/></g><g class="cls-9"><path id="Fill-207" class="cls-4" d="M155.06,60.07s-3.1,9.34-3,9.54a16,16,0,0,0,3.61,1.65c.31-.08,2.59-6.89,2.59-6.89s.58,6.06.7,6.14a22.1,22.1,0,0,0,3.76-.63c.47-.19-.54-8.47-2-9.85Z"/></g><g class="cls-9"><polygon id="Fill-208" class="cls-8" points="158.37 64.38 157.02 63.18 157.83 65.87 158.37 64.38"/></g><g class="cls-9"><path id="Stroke-209" class="cls-5" d="M157.92,64.53c-.06.07-2.7,6.29-2.7,6.29"/></g><g class="cls-9"><path id="Fill-210" class="cls-11" d="M160.16,52.85a8.7,8.7,0,0,1,0-3.57v0l-3,1.61a.87.87,0,0,1,.09.31h0a3.4,3.4,0,0,1-.07.88c-.08.43-.19.8-.19.8Z"/></g><g class="cls-9"><path id="Fill-211" class="cls-8" d="M157.47,51.93c1.47.21,2.22-1.71,2.25-1.78a1.76,1.76,0,0,1-1.06.82,2.64,2.64,0,0,1-1.12.06h0a4,4,0,0,1-.06.9"/></g><g class="cls-9"><path id="Fill-212" class="cls-11" d="M149,53.3c.44-.49.88-1,1.33-1.43L149,50.63l0,0-.88.87v0a13.73,13.73,0,0,0,.9,1.8"/></g><g class="cls-9"><path id="Fill-213" class="cls-11" d="M148.37,51.5a7.07,7.07,0,0,1-1.67-.87s0-.05,0-.05a1.14,1.14,0,0,1,.54.18s-.55-.47-.55-.59.79.4.79.4S147,50,147,49.88s.76.49.76.49-.53-.64-.46-.66.92.8,1,.72,0-.33-.06-.46,0-.06,0-.06a.21.21,0,0,1,.25.11,2.18,2.18,0,0,1,.36,1.23Z"/></g><g class="cls-9"><path id="Fill-214" class="cls-14" d="M161.91,53.34c-.29-.88-1.67-1.05-1.67-1.05a3,3,0,0,1-3-.27s-.73.31-1.18.52l-3.64,1.22-3-2.71c0,.06-1.37,1-1.43,1.26s2.73,4.47,3.58,4.61a10.84,10.84,0,0,0,2.92-.74l.36-.13a0,0,0,0,0,0,0h0c.07,1.85.29,4.36.29,4.36.69.12,6.06-.11,6.06-.11-.21-.67,1-6.12.65-7"/></g><g class="cls-9"><line id="Stroke-215" class="cls-5" x1="149.38" y1="51.05" x2="152.98" y2="54.64"/></g><g class="cls-9"><line id="Stroke-216" class="cls-5" x1="152.98" y1="54.04" x2="152.53" y2="53.89"/></g><g class="cls-9"><path id="Fill-217" class="cls-8" d="M154.79,56.31v0l-.45.13A3.77,3.77,0,0,1,155,54h0c.1-.15.17-.23.2-.27a5.77,5.77,0,0,0-.43,2.57"/></g><g class="cls-9"><path id="Stroke-218" class="cls-5" d="M156.12,56.44a5.1,5.1,0,0,0,1.35,1.35"/></g><g class="cls-9"><path id="Stroke-219" class="cls-5" d="M156.12,57.34l.9.9"/></g><g class="cls-9"><polygon id="Fill-220" class="cls-12" points="164.14 57.01 164.68 57.62 165.21 56.89 165.21 63.5 165.56 64.48 163.76 64.53 164.14 57.01"/></g><g class="cls-9"><polygon id="Fill-221" class="cls-12" points="163.95 64.53 158.82 64.53 159.07 63.48 159.07 56.89 164.21 56.89 164.21 63.48 163.95 64.53"/></g><g class="cls-9"><path id="Fill-222" class="cls-11" d="M163.37,62.24c0-.09.19-.35.39-.79l-1.3-.52-.12,1h0a4,4,0,0,0-.35.63.27.27,0,0,0,0,.29,0,0,0,0,0,.07,0c.07-.14.25-.38.35-.35s-.23,1.27-.1,1.36a4,4,0,0,0,.32-.84s-.13,1,0,1,.33-.89.33-.89,0,1,.06.94a3.88,3.88,0,0,0,.22-.86,1.3,1.3,0,0,0,.11.58s.05,0,.05,0a5.37,5.37,0,0,0,0-1.54h0"/></g><g class="cls-9"><path id="Fill-223" class="cls-14" d="M160.61,52.4l.6,3.62,1.95,1.18-.94,4.48s1.48.58,1.61.6,2.19-5.54,1.63-6.46a11,11,0,0,0-4.85-3.42"/></g><g class="cls-9"><polygon id="Fill-224" class="cls-8" points="161.51 56.29 159.72 55.54 161.42 56.89 161.51 56.29"/></g><g class="cls-9"><line id="Stroke-225" class="cls-5" x1="162.41" y1="61.83" x2="163.31" y2="56.89"/></g><g class="cls-9"><line id="Stroke-226" class="cls-5" x1="162.86" y1="56.44" x2="163.31" y2="57.34"/></g><g class="cls-9"><path id="Stroke-227" class="cls-5" d="M165.2,55.54a.43.43,0,0,1,.26.45"/></g><g class="cls-9"><path id="Fill-228" class="cls-11" d="M161,48.09a.53.53,0,0,0-.6-.38l-.08,0a2.87,2.87,0,0,0-.69-2.31c-1.29-1.11-3.14-.72-3.53.28a10.26,10.26,0,0,0-.45,3.78,1.27,1.27,0,0,0,.06.47c.2.57,1,.92,1.58,1a2.39,2.39,0,0,0,2-.5,2.67,2.67,0,0,0,.86-1.45,1,1,0,0,0,.35,0,.83.83,0,0,0,.4-.34.67.67,0,0,0,.09-.58"/></g><g class="cls-9"><path id="Fill-229" class="cls-8" d="M156.57,47.68a.23.23,0,1,1-.45,0,.22.22,0,0,1,.23-.22.22.22,0,0,1,.22.22"/></g><g class="cls-9"><path id="Fill-230" class="cls-8" d="M157.92,47.68a.23.23,0,1,0,.45,0,.22.22,0,0,0-.23-.22.22.22,0,0,0-.22.22"/></g><g class="cls-9"><path id="Fill-231" class="cls-8" d="M156.57,48.8a.92.92,0,0,0,.27.32.73.73,0,0,0,.4.13.63.63,0,0,0,.4-.14,1.07,1.07,0,0,0,.16-.14l.12-.17-.16.13a.91.91,0,0,1-.16.11.78.78,0,0,1-.36.1.74.74,0,0,1-.35-.1,1.22,1.22,0,0,1-.32-.24"/></g><g class="cls-9"><path id="Fill-232" class="cls-8" d="M157,49.42a.27.27,0,0,0,.23.11.26.26,0,0,0,.22-.11.65.65,0,0,1-.45,0"/></g><g class="cls-9"><path id="Fill-233" class="cls-8" d="M157.5,46.64a.34.34,0,0,1,.23-.08,1,1,0,0,1,.25,0,.84.84,0,0,1,.23.12.9.9,0,0,1,.15.19.07.07,0,0,1,0,.1.08.08,0,0,1-.08,0h0l-.15-.11a.51.51,0,0,0-.17-.07l-.18,0a.41.41,0,0,1-.19,0h0a.08.08,0,0,1-.06-.09s0,0,0,0"/></g><g class="cls-9"><path id="Fill-234" class="cls-8" d="M157,46.64a.34.34,0,0,0-.23-.08,1,1,0,0,0-.25,0,.84.84,0,0,0-.23.12.9.9,0,0,0-.15.19.07.07,0,0,0,0,.1.08.08,0,0,0,.08,0h0l.15-.11a.51.51,0,0,1,.17-.07l.18,0a.41.41,0,0,0,.19,0h0a.08.08,0,0,0,.06-.09s0,0,0,0"/></g><g class="cls-9"><path id="Fill-235" class="cls-8" d="M157.21,47c0,.14,0,.29-.07.43s0,.29-.07.43,0,.06,0,.1a.3.3,0,0,0,0,.12.26.26,0,0,0,.11.23.17.17,0,0,0,.19,0,.33.33,0,0,0,.15-.11c-.11.05-.23.09-.3,0a.2.2,0,0,1-.06-.14.47.47,0,0,1,0-.09l0-.11a2.3,2.3,0,0,0,.05-.45,2.17,2.17,0,0,0,0-.44"/></g><g class="cls-9"><path id="Fill-236" class="cls-8" d="M160.61,48.54a.17.17,0,0,0-.05-.15.17.17,0,0,0-.17,0,.36.36,0,0,0-.14.1.64.64,0,0,0-.08.14s0,0,0,0a0,0,0,0,0,0,0h0a.6.6,0,0,1,.13-.09h0a.15.15,0,0,1,0,.06s0,.11,0,.13a.28.28,0,0,1-.16,0,.27.27,0,0,0,.18,0,.11.11,0,0,0,.06-.09.16.16,0,0,0,0-.1.24.24,0,0,0-.05-.1.15.15,0,0,0-.11,0,.39.39,0,0,0-.17.11l.07,0a.38.38,0,0,1,.17-.22.15.15,0,0,1,.13,0,.21.21,0,0,1,.07.13"/></g><g class="cls-9"><path id="Fill-237" class="cls-8" d="M161.5,47.6c-.1-1.92-1.36-2.22-1.36-2.22-.62-1.3-3.11-1.44-4-.27-.71.92-.4,2.83-.23,3.61a12.36,12.36,0,0,1,.09-1.6h.3l.25-.47-.07.47,1,0,0-.83.23.83a2.77,2.77,0,0,0,.64,0c.26-.09.51-.66.51-.66s0,1.57.46,1.6a2,2,0,0,0,1.06-.44h0A.51.51,0,0,1,161,48a.64.64,0,0,1-.09.55.82.82,0,0,1-.39.32,1.31,1.31,0,0,1-.33,0,12.78,12.78,0,0,0-.19,2.19,3.09,3.09,0,0,0,.78-.17c.27-.15.78-1.36.68-3.28"/></g><g class="cls-9"><path id="Fill-238" class="cls-18" d="M171.6,78.45H37.77a.23.23,0,1,1,0-.45H171.6a.23.23,0,1,1,0,.45"/></g></g></g></g><g id="Page-1-2" data-name="Page-1"><g id="Feature-Intro-3"><g id="Group-392"><g id="Group-3-2" data-name="Group-3"><g class="cls-19"><path id="Fill-1-2" data-name="Fill-1" class="cls-20" d="M126.64,79c0,.89-28.35,1.62-63.32,1.62S0,79.85,0,79s28.35-1.63,63.32-1.63,63.32.73,63.32,1.63"/></g></g><path id="Fill-4-2" data-name="Fill-4" class="cls-21" d="M66.05,44.48h.21V40.74a1.85,1.85,0,0,1,3.69,0v3.74h.21V40.74a2.06,2.06,0,0,0-4.11,0Z"/><polygon id="Fill-6-2" data-name="Fill-6" class="cls-22" points="72.45 57.2 61.54 57.2 62.12 43.25 73.03 43.25 72.45 57.2"/><polygon id="Fill-8-2" data-name="Fill-8" class="cls-23" points="64.17 57.2 75.08 57.2 74.5 43.25 63.59 43.25 64.17 57.2"/><polygon id="Fill-10-2" data-name="Fill-10" class="cls-21" points="64.41 57.2 63.18 56.37 61.95 57.2 64.41 57.2"/><polygon id="Fill-12-2" data-name="Fill-12" class="cls-21" points="62.77 56.02 62.77 43.25 63.44 43.25 64 57.2 62.77 56.02"/><path id="Fill-14-2" data-name="Fill-14" class="cls-21" d="M71,44.07a.41.41,0,0,0,.41.41.42.42,0,0,0,.41-.41.41.41,0,0,0-.41-.41.41.41,0,0,0-.41.41"/><path id="Fill-16-2" data-name="Fill-16" class="cls-21" d="M67.28,44.07a.42.42,0,0,0,.41.41.41.41,0,0,0,.41-.41.41.41,0,0,0-.41-.41.41.41,0,0,0-.41.41"/><path id="Fill-18-2" data-name="Fill-18" class="cls-21" d="M67.28,44.48h.21V40.74a1.85,1.85,0,0,1,3.69,0v3.74h.21V40.74a2.06,2.06,0,0,0-4.11,0Z"/><path id="Fill-20-2" data-name="Fill-20" class="cls-24" d="M72.62,41.19h.2V37.45a1.85,1.85,0,0,1,3.7,0v3.74h.2V37.45a2.05,2.05,0,0,0-4.1,0Z"/><polygon id="Fill-22-2" data-name="Fill-22" class="cls-25" points="79.4 54.73 68.11 54.73 68.7 40.37 80 40.37 79.4 54.73"/><polygon id="Fill-24-2" data-name="Fill-24" class="cls-25" points="70.75 54.73 82.05 54.73 81.46 40.37 70.16 40.37 70.75 54.73"/><polygon id="Fill-26" class="cls-24" points="70.98 54.73 69.54 53.5 68.11 54.73 70.98 54.73"/><polygon id="Fill-28" class="cls-24" points="69.75 53.52 69.75 40.37 70.41 40.37 70.98 54.73 69.75 53.52"/><path id="Fill-30" class="cls-24" d="M77.54,41.19a.41.41,0,0,0,.82,0,.41.41,0,0,0-.82,0"/><path id="Fill-32" class="cls-24" d="M73.85,41.19a.41.41,0,1,0,.82,0,.41.41,0,0,0-.82,0"/><path id="Fill-34-2" data-name="Fill-34" class="cls-24" d="M73.85,41.19h.2V37.45a1.85,1.85,0,0,1,3.7,0v3.74H78V37.45a2.05,2.05,0,0,0-4.1,0Z"/><path id="Fill-36" class="cls-21" d="M81.23,50.63h.2V45.8a2.27,2.27,0,1,1,4.53,0v4.83h.2V45.8a2.47,2.47,0,1,0-4.93,0Z"/><polygon id="Fill-38" class="cls-22" points="89.52 67.45 75.49 67.45 76.23 49.81 90.26 49.81 89.52 67.45"/><polygon id="Fill-40" class="cls-23" points="78.69 67.45 92.72 67.45 91.98 49.81 77.95 49.81 78.69 67.45"/><polygon id="Fill-42" class="cls-21" points="78.77 67.04 77.13 65.81 75.49 67.04 78.77 67.04"/><polygon id="Fill-44" class="cls-21" points="77.13 65.97 77.13 49.81 78.02 49.81 78.77 67.45 77.13 65.97"/><path id="Fill-46" class="cls-21" d="M87.39,50.63a.41.41,0,0,0,.41.41.41.41,0,1,0,0-.82.41.41,0,0,0-.41.41"/><path id="Fill-48-2" data-name="Fill-48" class="cls-21" d="M82.87,50.63a.42.42,0,1,0,.41-.41.41.41,0,0,0-.41.41"/><path id="Fill-50" class="cls-21" d="M82.87,50.63h.2V45.8a2.27,2.27,0,1,1,4.53,0v4.83h.2V45.8a2.47,2.47,0,1,0-4.93,0Z"/><path id="Fill-52" class="cls-21" d="M77.13,62.12h.19V57.29a2.27,2.27,0,1,1,4.54,0v4.83h.19V57.29a2.46,2.46,0,1,0-4.92,0Z"/><polygon id="Fill-54" class="cls-23" points="85.41 78.53 71.39 78.53 72.13 60.89 86.16 60.89 85.41 78.53"/><polygon id="Fill-56" class="cls-22" points="74.59 78.53 88.62 78.53 87.88 60.89 73.85 60.89 74.59 78.53"/><polygon id="Fill-58" class="cls-21" points="74.67 78.53 73.03 77.3 71.39 78.53 74.67 78.53"/><polygon id="Fill-60-2" data-name="Fill-60" class="cls-21" points="73.03 77.04 73.03 60.89 73.92 60.89 74.67 78.53 73.03 77.04"/><path id="Fill-62" class="cls-21" d="M83.28,62.12a.42.42,0,0,0,.83,0,.42.42,0,0,0-.83,0"/><path id="Fill-64" class="cls-21" d="M78.36,62.12a.42.42,0,0,0,.41.41.41.41,0,0,0,.41-.41.41.41,0,0,0-.41-.41.41.41,0,0,0-.41.41"/><path id="Fill-66" class="cls-21" d="M78.77,62.12H79V57.29a2.27,2.27,0,1,1,4.54,0v4.83h.2V57.29a2.47,2.47,0,1,0-4.93,0Z"/><path id="Fill-68" class="cls-21" d="M61.13,62.12h.19V57.29a2.27,2.27,0,1,1,4.54,0v4.83h.19V57.29a2.46,2.46,0,1,0-4.92,0Z"/><polygon id="Fill-70" class="cls-22" points="69.41 78.53 55.39 78.53 56.13 60.89 70.16 60.89 69.41 78.53"/><polygon id="Fill-72-2" data-name="Fill-72" class="cls-21" points="59 78.53 73.03 78.53 72.29 60.89 58.26 60.89 59 78.53"/><polygon id="Fill-74" class="cls-21" points="58.67 78.53 57.03 77.3 55.39 78.53 58.67 78.53"/><polygon id="Fill-76" class="cls-21" points="57.03 77.04 57.03 60.89 57.92 60.89 58.67 78.53 57.03 77.04"/><path id="Fill-78" class="cls-21" d="M67.28,62.12a.42.42,0,0,0,.41.41.41.41,0,0,0,.41-.41.41.41,0,0,0-.41-.41.41.41,0,0,0-.41.41"/><path id="Fill-80" class="cls-21" d="M62.77,62.12a.42.42,0,0,0,.41.41.41.41,0,0,0,.41-.41.41.41,0,0,0-.41-.41.41.41,0,0,0-.41.41"/><path id="Fill-82" class="cls-21" d="M62.77,62.12H63V57.29a2.27,2.27,0,1,1,4.54,0v4.83h.19V57.29a2.46,2.46,0,1,0-4.92,0Z"/><path id="Fill-84" class="cls-26" d="M88.62,62.12h.19V57.29a2.27,2.27,0,1,1,4.54,0v4.83h.19V57.29a2.46,2.46,0,1,0-4.92,0Z"/><polygon id="Fill-86" class="cls-27" points="96.9 78.53 82.88 78.53 83.62 60.89 97.64 60.89 96.9 78.53"/><polygon id="Fill-88" class="cls-27" points="86.08 78.53 100.11 78.53 99.36 60.89 85.34 60.89 86.08 78.53"/><polygon id="Fill-90" class="cls-26" points="86.57 78.53 84.93 77.3 83.28 78.53 86.57 78.53"/><polygon id="Fill-92" class="cls-26" points="84.93 77.04 84.93 60.89 85.81 60.89 86.57 78.53 84.93 77.04"/><path id="Fill-94" class="cls-26" d="M94.77,62.12a.42.42,0,0,0,.41.41.41.41,0,0,0,.41-.41.41.41,0,0,0-.41-.41.41.41,0,0,0-.41.41"/><path id="Fill-96" class="cls-26" d="M90.26,62.12a.41.41,0,1,0,.82,0,.41.41,0,1,0-.82,0"/><path id="Fill-98" class="cls-26" d="M90.26,62.12h.19V57.29a2.27,2.27,0,1,1,4.54,0v4.83h.19V57.29a2.46,2.46,0,1,0-4.92,0Z"/><path id="Fill-100" class="cls-26" d="M65.23,52.27h.2V47.44a2.27,2.27,0,1,1,4.53,0v4.83h.2V47.44a2.47,2.47,0,1,0-4.93,0Z"/><polygon id="Fill-102" class="cls-27" points="73.93 68.68 59.9 68.68 60.64 51.04 74.67 51.04 73.93 68.68"/><polygon id="Fill-104" class="cls-27" points="63.1 68.68 77.13 68.68 76.39 51.04 62.36 51.04 63.1 68.68"/><polygon id="Fill-106" class="cls-26" points="62.77 68.68 61.13 67.45 59.49 68.68 62.77 68.68"/><polygon id="Fill-108" class="cls-26" points="61.54 67.2 61.54 51.04 62.43 51.04 63.18 68.68 61.54 67.2"/><path id="Fill-110" class="cls-26" d="M71.39,52.27a.41.41,0,0,0,.41.41.41.41,0,0,0,.41-.41.42.42,0,0,0-.41-.41.41.41,0,0,0-.41.41"/><path id="Fill-112" class="cls-26" d="M66.87,52.27a.41.41,0,0,0,.41.41.41.41,0,0,0,.41-.41.41.41,0,0,0-.41-.41.42.42,0,0,0-.41.41"/><path id="Fill-114" class="cls-26" d="M66.87,52.27h.2V47.44a2.27,2.27,0,1,1,4.53,0v4.83h.2V47.44a2.47,2.47,0,1,0-4.93,0Z"/><path id="Fill-116" class="cls-24" d="M71.8,65.4H72V61.66a1.85,1.85,0,0,1,3.7,0V65.4h.2V61.66a2.05,2.05,0,0,0-4.1,0Z"/><polygon id="Fill-118" class="cls-25" points="78.58 78.94 67.28 78.94 67.88 64.58 79.18 64.58 78.58 78.94"/><polygon id="Fill-120" class="cls-25" points="69.93 78.94 81.23 78.94 80.64 64.58 69.34 64.58 69.93 78.94"/><polygon id="Fill-122-2" data-name="Fill-122" class="cls-24" points="70.16 78.94 68.72 77.71 67.28 78.94 70.16 78.94"/><polygon id="Fill-124-2" data-name="Fill-124" class="cls-24" points="68.52 77.73 68.52 64.58 69.18 64.58 69.75 78.94 68.52 77.73"/><path id="Fill-126-2" data-name="Fill-126" class="cls-24" d="M76.72,65.4a.41.41,0,1,0,.41-.41.41.41,0,0,0-.41.41"/><path id="Fill-128" class="cls-24" d="M73,65.4a.41.41,0,0,0,.41.41.41.41,0,0,0,0-.82.41.41,0,0,0-.41.41"/><path id="Fill-130" class="cls-24" d="M73.44,65.4h.2V61.66a1.85,1.85,0,0,1,3.7,0V65.4h.2V61.66a2.05,2.05,0,0,0-4.1,0Z"/><path id="Fill-132" class="cls-28" d="M100.11,34.59s1.92-2.24,8.2.86Z"/><path id="Fill-134" class="cls-28" d="M114.88,40.78s3.91-.06,1.87,3.51-1.87-3.51-1.87-3.51"/><path id="Fill-136" class="cls-28" d="M102.59,34.73s7.81-1.22,11,5-11.66-1.46-11-5"/><path id="Fill-138" class="cls-21" d="M99.7,27.58A3.93,3.93,0,0,0,96,24c-3.49-.25-4.19,4.91-3.37,6.28s7.08-2.67,7.08-2.67"/><path id="Fill-140" class="cls-23" d="M91.52,30.19c.32.93,2.85,1,5.67.17s4.84-2.26,4.52-3.19-2.85-1-5.66-.17-4.84,2.26-4.53,3.19"/><polygon id="Fill-142" class="cls-27" points="102.16 74.78 100.73 76.07 99.28 74.72 100.48 73.19 102.16 74.78"/><path id="Fill-144-2" data-name="Fill-144" class="cls-29" d="M101.11,75.59a14.16,14.16,0,0,0,.87,1.9,1,1,0,0,1,.17.69.42.42,0,0,1-.67.26L98,75.78c-.38-.29-.42-.54,0-.83s.82-.88,1.15-.92c.7-.07,1.38,0,2.06,1.56"/><polygon id="Fill-146" class="cls-27" points="116.11 74.66 115.85 76.48 113.74 76.29 113.64 74.43 116.11 74.66"/><path id="Fill-148-2" data-name="Fill-148" class="cls-29" d="M115.72,76.07a13.48,13.48,0,0,0,1.83.86,1,1,0,0,1,.55.4.4.4,0,0,1-.35.6l-4.35.19c-.47,0-.65-.14-.55-.58s.09-1.14.33-1.36c.5-.48,1.07-.83,2.54-.11"/><path id="Fill-150-2" data-name="Fill-150" class="cls-24" d="M117.06,57.67s1.12,12-1.13,17.17h-2.57s.72-12-3.46-15.35c0,0-1.83,12.46-8.26,15.35L99.7,73.39s3.22-9,2.09-15a1.76,1.76,0,0,1,1.9-2.06Z"/><path id="Fill-152-2" data-name="Fill-152" class="cls-30" d="M114.76,74.84c.51-6.74-.8-10.62-2-12.68A6.78,6.78,0,0,0,110,59.25l-.07.16a6.68,6.68,0,0,1,2.68,2.85c1.18,2,2.47,5.88,2,12.56Z"/><path id="Fill-154" class="cls-30" d="M101.08,74.43a22.45,22.45,0,0,0,4.31-14.36l-.18,0a22.35,22.35,0,0,1-4.28,14.24Z"/><path id="Fill-156-2" data-name="Fill-156" class="cls-23" d="M108.91,39.22c2.84,3.82,8.49,12.4,8.84,20.44,0,0-5-2.3-15.32-1.51,0,0-.3-10.57-5.12-16.22-3-3.53-.37-6,3.29-6.42a9.1,9.1,0,0,1,8.31,3.71"/><path id="Fill-158-2" data-name="Fill-158" class="cls-28" d="M102.37,34.63s-1.49,1.12,3.48,6,5.53,19,12.31,21.88c0,0,.36-23.5-15.79-27.9"/><path id="Fill-160-2" data-name="Fill-160" class="cls-28" d="M96.79,36.68s5.31.69,6.55,5.54,3.32,9.61,3.33,13.1c0,4.43-2.84,5.44-4.51,6.39,0,0-.51-13.68-3.67-17.49s-3.74-5.74-1.7-7.54"/><path id="Fill-162-2" data-name="Fill-162" class="cls-31" d="M100.12,29.46a1.49,1.49,0,0,1,1-1.3c1-.34,1.92,3.92-.25,3.8a3.11,3.11,0,0,1-.64,3c-.16.19-2.55,3.21-5.1-.48,0,0,.3.34-.73.32s-1.57-3-1-3.25,1,.75,1,.75-1.74-2.69.52-4.55,5.17-.55,5.28,1.74"/><polygon id="Fill-164-2" data-name="Fill-164" class="cls-32" points="96.41 30.12 96.64 32.99 97.64 32.59 96.41 30.12"/><path id="Fill-166-2" data-name="Fill-166" class="cls-29" d="M97.71,30.6c.08.22.21.37.29.33s.07-.25,0-.48-.21-.37-.29-.33-.08.26,0,.48"/><path id="Fill-168-2" data-name="Fill-168" class="cls-29" d="M95.65,31.83c.08.23.21.37.29.33s.08-.25,0-.48-.21-.37-.29-.33-.08.26,0,.48"/><path id="Fill-170-2" data-name="Fill-170" class="cls-32" d="M100.12,29.91s.33-.55.68-.61.79,1.38.36,1.79-.62.27-.65,0,.36-.57.23-.78-.72,0-.62-.42"/><path id="Fill-172-2" data-name="Fill-172" class="cls-32" d="M94.16,32.48s-.35-.4-.55-.29a2.67,2.67,0,0,0,.39,2c.35.2.4,0,.34-.28s-.37-.4-.37-.67.39-.3.19-.71"/><path id="Fill-174-2" data-name="Fill-174" class="cls-1" d="M97,35a.73.73,0,0,1-.07-1.39.51.51,0,0,1,.25,0A2.93,2.93,0,0,0,98.86,33c.33-.24.91.86-.33,1.63A2.1,2.1,0,0,1,97,35"/><path id="Fill-176-2" data-name="Fill-176" class="cls-29" d="M97.76,29.59a1.24,1.24,0,1,0,.5-.11,1.25,1.25,0,0,0-.5.11m-.82,1.71h0a1.43,1.43,0,0,1,.75-1.88,1.44,1.44,0,0,1,1.89.74,1.44,1.44,0,0,1-.75,1.89,1.43,1.43,0,0,1-1.89-.75"/><path id="Fill-178-2" data-name="Fill-178" class="cls-29" d="M94.89,30.41a1.21,1.21,0,1,0,.5-.11,1.25,1.25,0,0,0-.5.11m0,2.48a1.43,1.43,0,0,1,0-2.65,1.4,1.4,0,0,1,1.1,0,1.47,1.47,0,0,1,.79.76,1.44,1.44,0,0,1-1.32,2,1.61,1.61,0,0,1-.53-.1"/><polygon id="Fill-180-2" data-name="Fill-180" class="cls-29" points="98.9 29.71 99.7 29.47 99.67 29.3 98.88 29.53 98.9 29.71"/><polygon id="Fill-182-2" data-name="Fill-182" class="cls-29" points="93.66 31.76 94.36 31.09 94.24 30.94 93.54 31.61 93.66 31.76"/><polygon id="Fill-184-2" data-name="Fill-184" class="cls-29" points="95.66 30.12 97.23 29.44 97.17 29.3 95.59 29.97 95.66 30.12"/><path id="Fill-186-2" data-name="Fill-186" class="cls-24" d="M102.6,34.63l.18-.05-.8-2.89a1.35,1.35,0,0,1,.16-1.09,1.49,1.49,0,0,1,.9-.67,1.56,1.56,0,0,1,1.14.15,1.39,1.39,0,0,1,.69.87l.8,2.9.18-.05-.8-2.89a1.56,1.56,0,0,0-.78-1,1.71,1.71,0,0,0-1.27-.17,1.66,1.66,0,0,0-1,.75,1.55,1.55,0,0,0-.18,1.22Z"/><polygon id="Fill-188-2" data-name="Fill-188" class="cls-25" points="110.77 43.39 102.14 45.71 99.7 34.48 108.33 32.17 110.77 43.39"/><polygon id="Fill-190-2" data-name="Fill-190" class="cls-25" points="104.37 44.89 113.23 42.6 109.79 31.76 100.93 34.05 104.37 44.89"/><polygon id="Fill-192-2" data-name="Fill-192" class="cls-24" points="104.21 45.16 102.93 44.48 102.16 45.71 104.21 45.16"/><polygon id="Fill-194-2" data-name="Fill-194" class="cls-24" points="102.9 44.24 100.11 34.36 100.67 34.22 104.21 44.89 102.9 44.24"/><path id="Fill-196-2" data-name="Fill-196" class="cls-24" d="M106.68,33.91a.41.41,0,1,0,.8-.21.42.42,0,0,0-.5-.29.42.42,0,0,0-.3.5"/><path id="Fill-198-2" data-name="Fill-198" class="cls-24" d="M103.81,34.32a.42.42,0,0,0,.5.3.41.41,0,1,0-.21-.8.41.41,0,0,0-.29.5"/><path id="Fill-200-2" data-name="Fill-200" class="cls-24" d="M103.83,34.22l.18,0-.8-2.89a1.35,1.35,0,0,1,.16-1.09,1.48,1.48,0,0,1,.91-.67,1.52,1.52,0,0,1,1.83,1l.79,2.9.18,0-.8-2.89a1.68,1.68,0,0,0-2-1.15,1.66,1.66,0,0,0-1,.75,1.55,1.55,0,0,0-.18,1.22Z"/><path id="Fill-202" class="cls-26" d="M101.05,41.19l.16,0-.88-3.64a1.89,1.89,0,0,1,.17-1.38,1.64,1.64,0,0,1,3.08.45l.88,3.63.16,0-.89-3.64a1.82,1.82,0,0,0-2.25-1.42,1.81,1.81,0,0,0-1.12.93,2.11,2.11,0,0,0-.19,1.52Z"/><polygon id="Fill-204-2" data-name="Fill-204" class="cls-27" points="110.77 52.34 99.89 55.14 96.82 41.54 107.7 38.73 110.77 52.34"/><polygon id="Fill-206" class="cls-27" points="102.19 54.32 112.82 51.53 108.69 38.32 98.06 41.11 102.19 54.32"/><polygon id="Fill-208-2" data-name="Fill-208" class="cls-26" points="102.16 54.59 100.63 53.91 99.7 55.14 102.16 54.59"/><polygon id="Fill-210-2" data-name="Fill-210" class="cls-26" points="100.72 53.5 97.64 40.96 98.27 40.78 102.16 54.32 100.72 53.5"/><path id="Fill-212-2" data-name="Fill-212" class="cls-26" d="M105.45,39.66a.41.41,0,0,0,.5.29.41.41,0,1,0-.5-.29"/><path id="Fill-214-2" data-name="Fill-214" class="cls-26" d="M101.76,40.89a.41.41,0,1,0,.79-.21.4.4,0,0,0-.5-.29.41.41,0,0,0-.29.5"/><path id="Fill-216" class="cls-26" d="M102.28,40.78l.16,0-.88-3.64a1.89,1.89,0,0,1,.17-1.38,1.67,1.67,0,0,1,1-.85,1.53,1.53,0,0,1,1.28.19,1.84,1.84,0,0,1,.78,1.11l.88,3.63.16,0L105,36.12a2,2,0,0,0-.85-1.22,1.7,1.7,0,0,0-1.4-.2,1.83,1.83,0,0,0-1.12.93,2.11,2.11,0,0,0-.19,1.52Z"/><path id="Fill-218" class="cls-21" d="M108.34,42l.18,0-.8-2.9a1.4,1.4,0,0,1,.16-1.09,1.43,1.43,0,0,1,.91-.66,1.53,1.53,0,0,1,1.13.14,1.45,1.45,0,0,1,.7.88l.8,2.89.17,0-.79-2.9a1.69,1.69,0,0,0-.78-1,1.73,1.73,0,0,0-1.28-.16,1.65,1.65,0,0,0-1,.75,1.5,1.5,0,0,0-.17,1.22Z"/><polygon id="Fill-220-2" data-name="Fill-220" class="cls-22" points="116.52 50.77 107.88 53.09 105.44 41.87 114.08 39.55 116.52 50.77"/><polygon id="Fill-222-2" data-name="Fill-222" class="cls-23" points="109.7 52.27 118.57 49.98 115.13 39.14 106.26 41.43 109.7 52.27"/><polygon id="Fill-224-2" data-name="Fill-224" class="cls-21" points="109.95 52.54 108.68 51.86 107.9 53.09 109.95 52.54"/><polygon id="Fill-226" class="cls-21" points="108.64 51.62 105.85 41.74 106.42 41.6 109.95 52.27 108.64 51.62"/><path id="Fill-228-2" data-name="Fill-228" class="cls-21" d="M112.43,40.89a.41.41,0,1,0,.29-.5.41.41,0,0,0-.29.5"/><path id="Fill-230-2" data-name="Fill-230" class="cls-21" d="M109.15,41.3a.4.4,0,0,0,.5.29.41.41,0,1,0-.5-.29"/><path id="Fill-232-2" data-name="Fill-232" class="cls-21" d="M109.58,41.6l.17,0-.79-2.9A1.42,1.42,0,0,1,110,36.91a1.53,1.53,0,0,1,1.13.14,1.45,1.45,0,0,1,.7.88l.8,2.89.17,0-.79-2.9a1.69,1.69,0,0,0-.78-1,1.73,1.73,0,0,0-1.28-.16,1.64,1.64,0,0,0-1,.74,1.53,1.53,0,0,0-.17,1.23Z"/><path id="Fill-234-2" data-name="Fill-234" class="cls-28" d="M97.28,44.27,97,42.89a4,4,0,0,0-.86-1.27c-.75-1-.33-4.12-.33-4.12-2.22,2.5-4,7.57-2.53,11.48,2.52,6.67,10.13,1.15,10.13,1.15L102,47s-5.83,1.94-4.73-2.71"/><path id="Fill-236-2" data-name="Fill-236" class="cls-31" d="M102.57,48a5.15,5.15,0,0,1,2.27-1.06c.87,0-.91.88-.91.88a10.61,10.61,0,0,1,2.88-.14c1.08.2,1,.93-1,1.6s-2.37.51-2.37.51Z"/><path id="Fill-238-2" data-name="Fill-238" class="cls-31" d="M115.9,42.42l-1.3,1.44c-.48.54.36,2.14,2.12,1.09s-.82-2.53-.82-2.53"/><path id="Fill-240" class="cls-31" d="M116.39,43.25a1.17,1.17,0,0,0-.69-1.65l.41,1.65Z"/><path id="Fill-242" class="cls-23" d="M99.7,28.26a9.79,9.79,0,0,0-6,1.86l-.2-1.77L95.68,27l2.66-.19.88.19.48.5Z"/><path id="Fill-244" class="cls-31" d="M17.72,27.59a1.39,1.39,0,0,0-1.31-.76c-.94.07-.2,4.1,1.61,3.19,0,0,0,2.68,1.59,3.49,1.2.61,3.42.65,4.23-3.49,0,0-.12.41.75,0s.25-3.13-.31-3.19-.56,1-.56,1,.5-3-2.13-3.72S17,25.57,17.72,27.59"/><path id="Fill-246" class="cls-25" d="M17.51,27.39a.18.18,0,0,1,.07.1c.08.27.33,1.23.42,1.66s.49-.39.31-.87-1-1.15-.75-1.79,1.34-.11,1.41-1,.73-1.28,1.36-1,.67,1.11,1.36,1,.82,0,1,.48.45.51.45.88a10.09,10.09,0,0,0,0,1.74c.1.26.38,0,.38,0s0-1.1,0-1.33a.61.61,0,0,1,.51-.56c.35-.09.87-1.37.31-1.74a2.27,2.27,0,0,1-1.34-2c-.17-1.41-.83-1.85-2-1.85s-1.82,1.68-2.47,2-1.94,1.46-1.75,2.12a2,2,0,0,1,0,.81,1.35,1.35,0,0,0,.64,1.38h0"/><path id="Fill-248" class="cls-25" d="M18.15,28.16s0,1.55.79,1.84,1.17-.51,2-.29,2.21-.56,2.16-1.25h.39a15.93,15.93,0,0,0,.27,2.09c.23,1.1-.82,1.61-1.24,2.59a2.06,2.06,0,0,1-2.71.91c-1.1-.4-1-1.12-2.11-2s.15-2.48.15-2.48a16.21,16.21,0,0,0-.54-2.28Z"/><path id="Fill-250" class="cls-1" d="M22.94,30.44s-.58-.54-1.12-.23a3.21,3.21,0,0,1-1.86.23c-.4-.08-.53,1.14.93,1.3s2.26-.71,2.05-1.3"/><polygon id="Fill-252" class="cls-32" points="20.73 26.42 21.33 29.2 20.51 29.3 20.73 26.42"/><path id="Fill-254" class="cls-29" d="M19.69,27.25c0,.22-.09.41-.2.41s-.21-.19-.21-.41.09-.42.21-.42.2.19.2.42"/><path id="Fill-256" class="cls-29" d="M22.15,27.25c0,.22-.09.41-.2.41s-.21-.19-.21-.41.1-.42.21-.42.2.19.2.42"/><path id="Fill-258" class="cls-29" d="M19.49,26.18a1.27,1.27,0,1,0,1.27,1.27,1.27,1.27,0,0,0-1.27-1.27m0,2.71a1.44,1.44,0,1,1,1.43-1.44,1.45,1.45,0,0,1-1.43,1.44"/><polygon id="Fill-260" class="cls-29" points="17.29 26.84 17.23 26.62 18.4 26.01 18.46 26.23 17.29 26.84"/><g class="cls-33"><polygon id="Fill-262" class="cls-29" points="20.1 26.42 21.33 26.42 21.33 26.02 20.1 26.02 20.1 26.42"/></g><g class="cls-33"><polygon id="Fill-264" class="cls-29" points="23.8 26.83 24.21 26.83 24.21 26.43 23.8 26.43 23.8 26.83"/></g><g class="cls-33"><path id="Fill-265" class="cls-32" d="M17.11,27.53s-.36-.34-.59-.28-.09,1.37.3,1.55.45,0,.4-.18-.38-.35-.37-.55.45-.21.26-.54"/></g><g class="cls-33"><path id="Fill-266" class="cls-32" d="M23.8,27.76s.22-.51.45-.51.54,1.5.25,1.85-.4.18-.42-.07.22-.53.14-.75-.48-.08-.42-.52"/></g><g class="cls-33"><path id="Fill-267" class="cls-29" d="M22.36,26.18a1.27,1.27,0,1,0,1.27,1.27,1.27,1.27,0,0,0-1.27-1.27m0,2.71a1.44,1.44,0,1,1,1.44-1.44,1.45,1.45,0,0,1-1.44,1.44"/></g><g class="cls-33"><path id="Fill-268" class="cls-34" d="M14.26,51.86s-2.53,7.56,1.87,6.94S20.81,56,20.81,56l.52-1.42Z"/></g><g class="cls-33"><polygon id="Fill-269" class="cls-27" points="29.13 75.63 28.78 77.71 26.67 77.4 26.67 75.25 29.13 75.63"/></g><g class="cls-33"><path id="Fill-270" class="cls-29" d="M28.81,77a13.59,13.59,0,0,0,1.79,1,1,1,0,0,1,.53.43.41.41,0,0,1-.37.6H26.4c-.47,0-.64-.17-.51-.61s.14-1.15.39-1.37c.51-.46,1.1-.8,2.53,0"/></g><g class="cls-33"><polygon id="Fill-271" class="cls-27" points="17.23 75.63 17.58 77.71 19.69 77.4 19.69 75.25 17.23 75.63"/></g><g class="cls-33"><path id="Fill-272" class="cls-24" d="M15.12,49.81s-1.48,15.57,1.63,26.26h3.17s1-14.28,3.28-19.9a59.06,59.06,0,0,1,2.9,19.9h3s4.22-17.78.55-26.26Z"/></g><g class="cls-33"><path id="Fill-273" class="cls-30" d="M18.87,54.32a6.83,6.83,0,0,1-4.09,4.93s0-4.2.07-4.93Z"/></g><g class="cls-33"><path id="Fill-274" class="cls-30" d="M26.26,53.35s1.63,3.72,4.92,5.08a25.09,25.09,0,0,0-.56-5.34Z"/></g><g class="cls-33"><path id="Fill-275" class="cls-30" d="M26.52,75.66l-.16,0c.93-13.09-2.94-19.52-3-19.58l.14-.1c0,.07,3.93,6.55,3,19.7"/></g><g class="cls-33"><path id="Fill-276" class="cls-29" d="M17.14,77a13.59,13.59,0,0,1-1.79,1,1,1,0,0,0-.53.43.41.41,0,0,0,.37.6h4.36c.47,0,.64-.17.51-.61s-.14-1.15-.39-1.37c-.51-.46-1.1-.8-2.53,0"/></g><g class="cls-33"><polygon id="Fill-277" class="cls-30" points="16.41 75.25 16.57 76.07 20 76.07 20.1 75.25 16.41 75.25"/></g><g class="cls-33"><path id="Fill-278" class="cls-35" d="M13.75,58s1.61-3.69,6.67-2.22,10.19,2,12.81-.35c0,0-5.58-21.47-11.85-22.38S8.62,38.52,13.75,58"/></g><g class="cls-33"><path id="Fill-279" class="cls-26" d="M23.8,33h-.19V29.24a1.87,1.87,0,0,0-3.74,0V33h-.18V29.24a2.06,2.06,0,0,1,4.11,0Z"/></g><g class="cls-33"><polygon id="Fill-280" class="cls-27" points="17.01 46.12 28.31 46.12 27.71 32.17 16.41 32.17 17.01 46.12"/></g><g class="cls-33"><polygon id="Fill-281" class="cls-27" points="25.66 46.12 14.36 46.12 14.96 32.17 26.26 32.17 25.66 46.12"/></g><g class="cls-33"><polygon id="Fill-282" class="cls-26" points="25.44 46.12 26.87 44.89 28.31 46.12 25.44 46.12"/></g><g class="cls-33"><polygon id="Fill-283" class="cls-26" points="26.67 44.94 26.67 32.17 26 32.17 25.44 46.12 26.67 44.94"/></g><g class="cls-33"><path id="Fill-284" class="cls-26" d="M18.87,33a.41.41,0,0,1-.41.41.41.41,0,0,1,0-.82.41.41,0,0,1,.41.41"/></g><g class="cls-33"><path id="Fill-285" class="cls-26" d="M22.56,33a.41.41,0,0,1-.41.41.41.41,0,0,1,0-.82.41.41,0,0,1,.41.41"/></g><g class="cls-33"><path id="Fill-286" class="cls-26" d="M22.56,33h-.18V29.24a1.87,1.87,0,0,0-3.74,0V33h-.18V29.24a2.05,2.05,0,0,1,4.1,0Z"/></g><g class="cls-33"><path id="Fill-287" class="cls-21" d="M22.15,35.45H22V32.52a1.47,1.47,0,0,0-2.93,0v2.93h-.18V32.52a1.64,1.64,0,0,1,3.28,0Z"/></g><g class="cls-33"><polygon id="Fill-288" class="cls-22" points="16.48 46.53 25.44 46.53 24.96 35.04 16 35.04 16.48 46.53"/></g><g class="cls-33"><polygon id="Fill-289" class="cls-23" points="23.32 46.53 14.36 46.53 14.83 35.04 23.8 35.04 23.32 46.53"/></g><g class="cls-33"><polygon id="Fill-290" class="cls-21" points="23.39 46.12 24.41 45.3 25.44 46.12 23.39 46.12"/></g><g class="cls-33"><polygon id="Fill-291" class="cls-21" points="24.62 45.56 24.62 35.04 24.17 35.04 23.8 46.53 24.62 45.56"/></g><g class="cls-33"><path id="Fill-292" class="cls-21" d="M18.05,35.45a.41.41,0,0,1-.41.41.41.41,0,0,1,0-.82.41.41,0,0,1,.41.41"/></g><g class="cls-33"><path id="Fill-293" class="cls-21" d="M21.33,35.45a.41.41,0,0,1-.41.41.41.41,0,0,1,0-.82.41.41,0,0,1,.41.41"/></g><g class="cls-33"><path id="Fill-294" class="cls-21" d="M20.92,35.45h-.18V32.52a1.46,1.46,0,0,0-2.92,0v2.93h-.18V32.52a1.64,1.64,0,0,1,3.28,0Z"/></g><g class="cls-33"><path id="Fill-295" class="cls-24" d="M17.53,40.78l-1-3.06a1.65,1.65,0,0,1,.11-1.32,1.7,1.7,0,0,1,1-.86,1.81,1.81,0,0,1,2.26,1.11l1,3.06-.17.06-1-3.07a1.62,1.62,0,0,0-2-1,1.6,1.6,0,0,0-.93.78,1.48,1.48,0,0,0-.1,1.18l1,3.07Z"/></g><g class="cls-33"><polygon id="Fill-296" class="cls-25" points="18.66 52.68 27.9 49.72 23.6 38.32 14.36 41.28 18.66 52.68"/></g><g class="cls-33"><polygon id="Fill-297" class="cls-25" points="25.85 50.52 16.79 53.5 13.54 41.71 22.6 38.73 25.85 50.52"/></g><g class="cls-33"><polygon id="Fill-298" class="cls-24" points="25.85 50.22 26.57 48.99 27.9 49.58 25.85 50.22"/></g><g class="cls-33"><polygon id="Fill-299" class="cls-24" points="26.67 49.32 23.15 38.73 22.57 38.92 25.91 50.63 26.67 49.32"/></g><g class="cls-33"><path id="Fill-300" class="cls-24" d="M16.8,41.07a.41.41,0,0,1-.78.25.42.42,0,0,1,.26-.52.41.41,0,0,1,.52.27"/></g><g class="cls-33"><path id="Fill-301" class="cls-24" d="M20.08,40.25a.4.4,0,0,1-.26.51.41.41,0,0,1-.52-.26.42.42,0,0,1,.27-.52.41.41,0,0,1,.51.27"/></g><g class="cls-33"><path id="Fill-302" class="cls-24" d="M16.71,41.19l-1-3.06A1.72,1.72,0,0,1,16.82,36a1.79,1.79,0,0,1,2.25,1.11l1,3.06-.17.06-1-3.07a1.62,1.62,0,0,0-2-1,1.56,1.56,0,0,0-1,2l1,3.07Z"/></g><g class="cls-33"><path id="Fill-303" class="cls-31" d="M11.76,47.25c1.78,1.39,5.09,2.43,11.22,1.18L22.75,46s-7.15,1.66-10-7.3L10.81,42a4.08,4.08,0,0,0,.95,5.23"/></g><g class="cls-33"><path id="Fill-304" class="cls-31" d="M29.44,37.13a2.14,2.14,0,0,0-1.21.12.68.68,0,0,1,.1.69c-.34.94-.54,2-.79,3a5.36,5.36,0,0,1-.4,1.29,2.78,2.78,0,0,1-.26.34,11.19,11.19,0,0,1-3.49,6.66l1.31,1.45c9.86-7.07,4.74-13.5,4.74-13.5"/></g><g class="cls-33"><path id="Fill-305" class="cls-28" d="M14.74,38.47s0-.67,0-.69c0-1.2.13-3.15.13-3.15-2.37,1.31-5.53,3.93-6.19,8-1.12,6.86,8.09,5.95,8.09,5.95l.43-4s-4.58-3.34-2.49-6.11"/></g><g class="cls-33"><path id="Fill-306" class="cls-28" d="M29.72,37.07a13.07,13.07,0,0,0-1.81-2c0,1.05,0,2.55,0,3.59a7.53,7.53,0,0,1-.09,2.24c0,.27-.76,2.93-.75,3.22l3.88.8s2-3.17-1.24-7.82"/></g><g class="cls-33"><path id="Fill-307" class="cls-31" d="M23,45.85a4.41,4.41,0,0,1,1.66-1.35c.81-.23-.56,1.18-.56,1.18a9.19,9.19,0,0,1,2.61-1c1.06-.13,1.2.64-.44,1.94a8.09,8.09,0,0,1-2.92,1.57Z"/></g><g class="cls-33"><path id="Fill-308" class="cls-31" d="M23.23,49s-1.68.15-2.21.78,1.22,0,1.22,0a9,9,0,0,0-1.94,1.91c-.55.9,0,1.39,1.8.5a7.54,7.54,0,0,0,2.52-1.93Z"/></g><g class="cls-33"><path id="Fill-309" class="cls-24" d="M14.77,58.43H14.6V55.22a1.48,1.48,0,1,0-2.95,0v3.21h-.16V55.22a1.64,1.64,0,1,1,3.28,0Z"/></g><g class="cls-33"><polygon id="Fill-310" class="cls-25" points="9.13 69.91 18.87 69.91 18.36 58.02 8.62 58.02 9.13 69.91"/></g><g class="cls-33"><polygon id="Fill-311" class="cls-25" points="16.72 69.91 6.97 69.91 7.49 58.02 17.23 58.02 16.72 69.91"/></g><g class="cls-33"><polygon id="Fill-312" class="cls-24" points="16.41 69.91 17.64 69.09 18.87 69.91 16.41 69.91"/></g><g class="cls-33"><polygon id="Fill-313" class="cls-24" points="17.23 68.91 17.23 58.02 16.79 58.02 16.41 69.91 17.23 68.91"/></g><g class="cls-33"><path id="Fill-314" class="cls-24" d="M10.67,58.43a.42.42,0,0,1-.41.41.41.41,0,0,1-.41-.41.41.41,0,0,1,.41-.41.41.41,0,0,1,.41.41"/></g><g class="cls-33"><path id="Fill-315" class="cls-24" d="M14,58.43a.41.41,0,1,1-.82,0,.41.41,0,1,1,.82,0"/></g><g class="cls-33"><path id="Fill-316" class="cls-24" d="M14,58.43h-.17V55.22a1.48,1.48,0,1,0-2.95,0v3.21h-.16V55.22a1.64,1.64,0,1,1,3.28,0Z"/></g><g class="cls-33"><path id="Fill-317" class="cls-26" d="M18.87,65h-.18V61a2.07,2.07,0,0,0-4.14,0v4h-.19V61a2.26,2.26,0,0,1,4.51,0Z"/></g><g class="cls-33"><polygon id="Fill-318" class="cls-27" points="11.7 78.94 23.39 78.94 22.77 63.76 11.08 63.76 11.7 78.94"/></g><g class="cls-33"><polygon id="Fill-319" class="cls-27" points="20.71 78.94 9.03 78.94 9.64 63.76 21.33 63.76 20.71 78.94"/></g><g class="cls-33"><polygon id="Fill-320" class="cls-26" points="20.92 79.35 22.36 78.12 23.8 79.35 20.92 79.35"/></g><g class="cls-33"><polygon id="Fill-321" class="cls-26" points="22.16 77.66 22.16 63.76 21.49 63.76 20.92 78.94 22.16 77.66"/></g><g class="cls-33"><path id="Fill-322" class="cls-26" d="M13.54,65a.41.41,0,1,1-.41-.41.41.41,0,0,1,.41.41"/></g><g class="cls-33"><path id="Fill-323" class="cls-26" d="M17.64,65a.41.41,0,1,1-.41-.41.41.41,0,0,1,.41.41"/></g><g class="cls-33"><path id="Fill-324" class="cls-26" d="M17.64,65h-.18V61a2.08,2.08,0,0,0-4.15,0v4h-.18V61a2.26,2.26,0,0,1,4.51,0Z"/></g><g class="cls-33"><path id="Fill-325" class="cls-21" d="M11.08,67.86h-.17v-3.2a1.48,1.48,0,1,0-2.95,0v3.2H7.8v-3.2a1.64,1.64,0,1,1,3.28,0Z"/></g><g class="cls-33"><polygon id="Fill-326" class="cls-22" points="5.03 78.94 14.77 78.94 14.25 67.04 4.51 67.04 5.03 78.94"/></g><g class="cls-33"><polygon id="Fill-327" class="cls-23" points="12.61 78.94 2.87 78.94 3.39 67.04 13.13 67.04 12.61 78.94"/></g><g class="cls-33"><polygon id="Fill-328" class="cls-21" points="12.31 78.94 13.54 78.12 14.77 78.94 12.31 78.94"/></g><g class="cls-33"><polygon id="Fill-329" class="cls-21" points="13.54 77.94 13.54 67.04 13.09 67.04 12.72 78.94 13.54 77.94"/></g><g class="cls-33"><path id="Fill-330" class="cls-21" d="M7,67.86a.41.41,0,0,1-.41.41.41.41,0,0,1-.41-.41.42.42,0,0,1,.41-.41.41.41,0,0,1,.41.41"/></g><g class="cls-33"><path id="Fill-331" class="cls-21" d="M10.26,67.86a.41.41,0,0,1-.41.41.41.41,0,0,1-.41-.41.41.41,0,0,1,.41-.41.42.42,0,0,1,.41.41"/></g><g class="cls-33"><path id="Fill-332" class="cls-21" d="M9.85,67.86H9.68v-3.2a1.52,1.52,0,0,0-1.47-1.55,1.52,1.52,0,0,0-1.48,1.55v3.2H6.56v-3.2a1.65,1.65,0,1,1,3.29,0Z"/></g><g class="cls-33"><path id="Fill-333" class="cls-26" d="M49.64,65.81h.18V62.06a1.87,1.87,0,0,1,3.74,0v3.75h.19V62.06a2.06,2.06,0,0,0-4.11,0Z"/></g><g class="cls-33"><polygon id="Fill-334" class="cls-27" points="56.43 78.94 45.13 78.94 45.73 64.99 57.03 64.99 56.43 78.94"/></g><g class="cls-33"><polygon id="Fill-335" class="cls-27" points="47.78 78.94 59.08 78.94 58.48 64.99 47.18 64.99 47.78 78.94"/></g><g class="cls-33"><polygon id="Fill-336" class="cls-26" points="48 78.94 46.57 77.71 45.13 78.94 48 78.94"/></g><g class="cls-33"><polygon id="Fill-337" class="cls-26" points="46.36 77.77 46.36 64.99 47.03 64.99 47.59 78.94 46.36 77.77"/></g><g class="cls-33"><path id="Fill-338" class="cls-26" d="M54.57,65.81a.41.41,0,0,0,.41.41.41.41,0,1,0,0-.82.41.41,0,0,0-.41.41"/></g><g class="cls-33"><path id="Fill-339" class="cls-26" d="M50.87,65.81a.41.41,0,0,0,.41.41.41.41,0,0,0,0-.82.41.41,0,0,0-.41.41"/></g><g class="cls-33"><path id="Fill-340" class="cls-26" d="M51.28,65.81h.19V62.06a1.87,1.87,0,0,1,3.74,0v3.75h.18V62.06a2.06,2.06,0,0,0-4.11,0Z"/></g><g class="cls-33"><path id="Fill-341" class="cls-21" d="M51.69,59s0,1-6.84.54-7.93-1.69-7.93-1.69l4.47-2.53,9.2-1Z"/></g><g class="cls-33"><path id="Fill-342" class="cls-25" d="M41.85,32.17a3.69,3.69,0,1,0,3.69-3.69,3.69,3.69,0,0,0-3.69,3.69"/></g><g class="cls-33"><path id="Fill-343" class="cls-25" d="M39.8,35.45a5.74,5.74,0,1,0,5.74-5.74,5.74,5.74,0,0,0-5.74,5.74"/></g><g class="cls-33"><path id="Fill-344" class="cls-25" d="M38.16,43a7.59,7.59,0,1,0,7.59-7.59A7.59,7.59,0,0,0,38.16,43"/></g><g class="cls-33"><path id="Fill-345" class="cls-31" d="M50.05,75.56v1.73l1.61,2.47.85-.56a3.52,3.52,0,0,0-.85-1.54V74.84Z"/></g><g class="cls-33"><path id="Fill-346" class="cls-23" d="M50,76.48s-.84.47-.73,1a5.4,5.4,0,0,1,.23,1.41v.91h.29V78.38s0-.49.37-.26a6,6,0,0,1,.6,1,1.11,1.11,0,0,0,.75.65h2.26a.41.41,0,0,0-.45-.49,1,1,0,0,1-1-.54.71.71,0,0,1-.94-.32c-.43-.61-.41-1.56-1.38-1.93"/></g><g class="cls-33"><path id="Fill-347" class="cls-31" d="M35.69,74l-.82,1.56.14,3,1-.12a3.79,3.79,0,0,0,0-1.77l1.33-2.55Z"/></g><g class="cls-33"><path id="Fill-348" class="cls-23" d="M35.27,75.25s-.93,0-1.08.52a5.46,5.46,0,0,1-.51,1.33l-.45.79.25.13.68-1.2s.27-.42.44-.07a6.28,6.28,0,0,1,0,1.12,1,1,0,0,0,.31.9l1.9,1a.4.4,0,0,0-.14-.63.92.92,0,0,1-.57-.9s-.56,0-.63-.69.42-1.55-.21-2.29"/></g><g class="cls-33"><path id="Fill-349" class="cls-31" d="M60.31,32.43,55.88,39a1.22,1.22,0,0,1-.5.4L49.7,42.84,48.41,40l6.28-2.91,4.38-4.88Z"/></g><g class="cls-33"><polygon id="Fill-350" class="cls-31" points="32.39 53.91 38.09 49.37 42.26 43.64 39.82 42.84 36.59 47.78 31.59 52.99 32.39 53.91"/></g><g class="cls-33"><polygon id="Fill-351" class="cls-24" points="49.19 53.91 51.82 65.2 52.1 76.07 49.88 76.07 48.88 65.69 43.9 58 49.19 53.91"/></g><g class="cls-33"><polygon id="Fill-352" class="cls-24" points="47.18 55.14 42.48 66.04 37.25 75.66 35.28 74.53 39.63 64.97 39.1 55.73 47.18 55.14"/></g><g class="cls-33"><polygon id="Fill-353" class="cls-36" points="50.73 76.07 50.87 76.06 50.5 65.64 50.49 65.63 46.49 58.43 46.36 58.51 50.36 65.69 50.73 76.07"/></g><g class="cls-33"><polygon id="Fill-354" class="cls-36" points="36.24 74.84 41.19 65.03 41.85 58.03 41.69 58.02 41.04 64.98 36.1 74.77 36.24 74.84"/></g><g class="cls-33"><path id="Fill-355" class="cls-23" d="M53.34,41.2l-2.53,1.5a4.6,4.6,0,0,0-.69,3.15l1.69,13.3s-6.14-1.13-9.91,0-5.39,0-5.39,0l4.16-13.44-2.08-.59a.41.41,0,0,1-.24-.62,25,25,0,0,1,3.36-4.22c1.76-1.64,4.32-.71,9.42-2a.4.4,0,0,1,.41.15Z"/></g><g class="cls-33"><path id="Fill-356" class="cls-31" d="M46.9,37.91l.28,2.57a2.69,2.69,0,0,1-2.46,0l.67-2.57Z"/></g><g class="cls-33"><path id="Fill-357" class="cls-31" d="M48.41,32.93s.05,4.53-1.34,5.55-2.87-1.15-3.53-4.09,4.75-4.35,4.87-1.46"/></g><g class="cls-33"><path id="Fill-358" class="cls-31" d="M48,34.22c0,.68.28,1.23.62,1.23s.61-.55.61-1.23S49,33,48.62,33s-.62.55-.62,1.23"/></g><g class="cls-33"><path id="Fill-359" class="cls-31" d="M42.27,35.54c.07.68.39,1.19.73,1.14s.54-.64.48-1.32-.4-1.19-.73-1.14-.55.64-.48,1.32"/></g><g class="cls-33"><path id="Fill-360" class="cls-25" d="M45.55,31.57a1.8,1.8,0,0,0,2.38,1.78c1.76-.3.51-1.76-.29-2.52a1.13,1.13,0,0,0-1.25-.19c-.45.21-.91.53-.84.93"/></g><g class="cls-33"><path id="Fill-361" class="cls-25" d="M46,31.71c-.12.07-.63,2.5-2.75,2.51s0-1.76,0-1.76l1.14-1L46,31.35Z"/></g><g class="cls-33"><polygon id="Fill-362" class="cls-32" points="45.83 33.4 46.36 35.33 45.54 35.45 45.83 33.4"/></g><g class="cls-33"><path id="Fill-363" class="cls-29" d="M46.36,33.81a.82.82,0,1,0,.82-.82.82.82,0,0,0-.82.82"/></g><g class="cls-33"><path id="Fill-364" class="cls-29" d="M43.9,34.22a.82.82,0,1,0,.82-.82.82.82,0,0,0-.82.82"/></g><g class="cls-33"><polygon id="Fill-365" class="cls-29" points="47.7 33.81 48.41 33.56 48.3 33.4 47.59 33.65 47.7 33.81"/></g><g class="cls-33"><polygon id="Fill-366" class="cls-29" points="45.15 33.81 46.36 33.61 46.34 33.4 45.13 33.6 45.15 33.81"/></g><g class="cls-33"><polygon id="Fill-367" class="cls-29" points="43.88 33.81 43.9 33.58 43.1 33.4 43.08 33.62 43.88 33.81"/></g><g class="cls-33"><path id="Fill-368" class="cls-32" d="M48.46,34s.33-.32.51-.17a.8.8,0,0,1,.22.86c-.12.36-.3.34-.38.32s-.16-.21-.06-.38.18-.19.1-.3-.59,0-.39-.33"/></g><g class="cls-33"><path id="Fill-369" class="cls-32" d="M43.44,34.43s-.33-.32-.51-.17a.8.8,0,0,0-.22.86c.12.36.3.34.38.32s.16-.21.06-.38-.18-.19-.1-.3.59,0,.39-.33"/></g><g class="cls-33"><path id="Fill-370" class="cls-1" d="M47.59,36.6s-.08-.43-.61-.3-.92.3-1.37,0-.8.33,0,.58,1.71.28,2-.32"/></g><g class="cls-33"><path id="Fill-371" class="cls-1" d="M48.41,35.45a.41.41,0,0,0,.41.41.41.41,0,0,0,0-.82.41.41,0,0,0-.41.41"/></g><g class="cls-33"><path id="Fill-372" class="cls-1" d="M43.08,36.27a.41.41,0,1,0,.41-.41.41.41,0,0,0-.41.41"/></g><g class="cls-33"><path id="Fill-373" class="cls-1" d="M48.82,33a2.87,2.87,0,0,0-3-1.78c-2.48,0-2.61,3-2.61,3s-.9-3.26,2-4S48.82,33,48.82,33"/></g><g class="cls-33"><path id="Fill-374" class="cls-31" d="M58.93,32.31a1.76,1.76,0,0,1-.83-.88c-.26-.63-.47-.62-.62-.89s.1-.53.37-.36.25.58.76.09c0,0-.07-.58.17-.56s.34.32.34.32.43-.48.65-.11l.22.37s.43-.12.47.16-.16.32-.16.32.56-.3.39.27A7.73,7.73,0,0,1,60,32.33a.54.54,0,0,1-.71.19Z"/></g><g class="cls-33"><path id="Fill-375" class="cls-31" d="M31.66,52.83a1.57,1.57,0,0,0-1.21,0c-.65.24-.78.06-1.08.13a.29.29,0,0,0,0,.57c.3.1.59-.21.57.58,0,0-.48.38-.31.57s.47.06.47.06-.07.71.35.62l.42-.08s.19.46.44.28a.28.28,0,0,0,.13-.37s.15.7.45.14a8.54,8.54,0,0,0,.52-1.53.64.64,0,0,0-.33-.75Z"/></g><g class="cls-33"><polygon id="Fill-376" class="cls-25" points="25.14 69.91 16.82 64.76 23.69 54.32 32 59.48 25.14 69.91"/></g><g class="cls-33"><polygon id="Fill-377" class="cls-25" points="18.87 65.75 26.98 70.73 32.82 60.12 24.71 55.14 18.87 65.75"/></g><g class="cls-33"><polygon id="Fill-378" class="cls-24" points="18.87 65.81 18.42 64.58 16.82 64.83 18.87 65.81"/></g><g class="cls-33"><polygon id="Fill-379" class="cls-24" points="18.46 64.34 24.49 54.73 25.03 55.05 18.89 65.81 18.46 64.34"/></g><g class="cls-33"><path id="Fill-380" class="cls-24" d="M30,59a.41.41,0,0,0,.14.57.42.42,0,0,0,.56-.14.4.4,0,0,0-.14-.56A.41.41,0,0,0,30,59"/></g><g class="cls-33"><path id="Fill-381" class="cls-24" d="M26.73,57.39a.42.42,0,0,0,.13.57.43.43,0,0,0,.57-.14.41.41,0,1,0-.7-.43"/></g><g class="cls-33"><path id="Fill-382" class="cls-24" d="M27.24,57.6,29,54.78a1.64,1.64,0,0,1,.93-.7l-.05-.17a1.79,1.79,0,0,0-1,.77l-1.79,2.83Z"/></g><g class="cls-33"><path id="Fill-383" class="cls-24" d="M30.51,59.25l1.65-2.84a1.88,1.88,0,0,0,.1-1.68l-.16.08a1.68,1.68,0,0,1-.08,1.5l-1.66,2.84Z"/></g><g class="cls-33"><polygon id="Fill-384" class="cls-27" points="63.95 14.94 72.62 19.15 66.92 30.12 58.26 25.91 63.95 14.94"/></g><g class="cls-33"><polygon id="Fill-385" class="cls-27" points="70.98 18.32 61.99 14.12 57.03 25.5 66.02 29.71 70.98 18.32"/></g><g class="cls-33"><polygon id="Fill-386" class="cls-26" points="70.57 18.63 71.14 19.86 72.62 19.47 70.57 18.63"/></g><g class="cls-33"><polygon id="Fill-387" class="cls-26" points="71.39 19.67 66.59 30.12 66.05 29.85 70.83 18.22 71.39 19.67"/></g><g class="cls-33"><path id="Fill-388" class="cls-26" d="M60.68,26.19a.41.41,0,1,0-.74-.35.41.41,0,0,0,.74.35"/></g><g class="cls-33"><path id="Fill-389" class="cls-26" d="M63.14,27.83a.41.41,0,0,0-.74-.35.41.41,0,1,0,.74.35"/></g><g class="cls-33"><path id="Fill-390" class="cls-26" d="M60.79,31.76a1.83,1.83,0,0,0,.93-.91l1.46-3.11L63,27.66l-1.46,3.11a1.64,1.64,0,0,1-.84.82Z"/></g><g class="cls-33"><path id="Fill-391" class="cls-26" d="M58.9,30.53l.14-.09A1.61,1.61,0,0,1,59,29l1.33-2.9L60.16,26l-1.33,2.9a1.78,1.78,0,0,0,.07,1.62"/></g></g></g></g></g></g></svg>